M48
; DRILL file {KiCad 7.0.1} date Wed Aug  9 19:54:42 2023
; FORMAT={-:-/ absolute / inch / decimal}
; #@! TF.CreationDate,2023-08-09T19:54:42+10:00
; #@! TF.GenerationSoftware,Kicad,Pcbnew,7.0.1
; #@! TF.FileFunction,Plated,1,2,PTH
FMAT,2
INCH
; #@! TA.AperFunction,Plated,PTH,ComponentDrill
T1C0.0118
; #@! TA.AperFunction,Plated,PTH,ViaDrill
T2C0.0157
; #@! TA.AperFunction,Plated,PTH,ComponentDrill
T3C0.0236
; #@! TA.AperFunction,Plated,PTH,ComponentDrill
T4C0.0374
; #@! TA.AperFunction,Plated,PTH,ComponentDrill
T5C0.0394
; #@! TA.AperFunction,Plated,PTH,ComponentDrill
T6C0.0906
%
G90
G05
T1
X0.8346Y-1.1772
T2
X0.6457Y-3.7163
X0.6742Y-3.746
X0.6929Y-4.3307
X0.7008Y-1.6614
X0.7027Y-3.7789
X0.7312Y-3.8179
X0.7874Y-3.5118
X0.7953Y-3.9449
X0.7953Y-4.3307
X0.937Y-3.8346
X0.9757Y-4.2362
X0.9764Y-1.6693
X0.9764Y-3.3858
X1.0151Y-4.2362
X1.0157Y-3.3858
X1.0544Y-4.2364
X1.0551Y-3.3858
X1.0938Y-4.2355
X1.0945Y-3.3858
X1.1336Y-4.236
X1.1339Y-3.3858
X1.1732Y-1.1654
X1.1732Y-3.3858
X1.1732Y-4.2367
X1.1811Y-0.7874
X1.2126Y-3.3858
X1.2126Y-4.2362
X1.252Y-1.4409
X1.252Y-3.3858
X1.252Y-4.2362
X1.2598Y-2.0236
X1.2598Y-2.6614
X1.277Y-1.1437
X1.2913Y-0.8395
X1.3228Y-3.3858
X1.3228Y-4.0738
X1.3543Y-1.0
X1.3543Y-1.0945
X1.3622Y-3.3858
X1.3622Y-4.0738
X1.4016Y-3.3858
X1.4016Y-4.0738
X1.4409Y-4.0738
X1.4409Y-3.3858
X1.4488Y-1.0
X1.4488Y-1.0945
X1.4488Y-1.4961
X1.4803Y-4.0738
X1.4803Y-3.3858
X1.5039Y-0.8819
X1.5039Y-2.6614
X1.5196Y-4.0738
X1.5197Y-3.3858
X1.559Y-4.0738
X1.5591Y-1.2283
X1.5591Y-3.3858
X1.5983Y-4.0738
X1.5984Y-3.3858
X1.6299Y-3.3465
X1.6466Y-1.0462
X1.6614Y-3.1496
X1.6751Y-1.1137
X1.6911Y-2.2143
X1.6929Y-2.2638
X1.7087Y-4.1654
X1.7142Y-1.2348
X1.7165Y-3.6693
X1.7165Y-3.7756
X1.7166Y-1.1955
X1.7463Y-1.3545
X1.7717Y-2.4409
X1.7717Y-3.0157
X1.7854Y-1.3498
X1.8425Y-1.6457
X1.8425Y-4.2756
X1.8543Y-1.8071
X1.8783Y-1.6712
X1.8936Y-1.806
X1.9093Y-1.647
X1.9214Y-1.3201
X1.936Y-1.8081
X1.9531Y-1.2884
X1.9685Y-4.2441
X2.0236Y-1.4488
X2.0315Y-3.3937
X2.0394Y-1.3071
X2.0472Y-0.7874
X2.063Y-4.3386
X2.0787Y-4.0472
X2.0866Y-4.3701
X2.1654Y-4.1417
X2.218Y-1.4803
X2.252Y-4.1417
X2.2926Y-3.6602
X2.2992Y-4.1811
X2.3307Y-1.811
X2.3307Y-1.8504
X2.3307Y-1.8897
X2.3307Y-1.9291
X2.3307Y-1.9684
X2.3307Y-2.0078
X2.3386Y-1.6299
X2.3386Y-3.9843
X2.3622Y-3.6309
X2.3726Y-4.0892
X2.3775Y-1.654
X2.4331Y-4.4094
X2.4488Y-0.9055
X2.4597Y-1.4803
X2.4803Y-1.5984
X2.4816Y-0.9273
X2.498Y-2.4646
X2.5039Y-0.9715
X2.5039Y-4.0157
X2.5591Y-1.6614
X2.5591Y-2.4646
X2.5591Y-3.2126
X2.5773Y-1.5167
X2.5984Y-1.6457
X2.5984Y-3.2126
X2.6181Y-2.4606
X2.622Y-1.5512
X2.623Y-4.3848
X2.6378Y-3.2126
X2.6461Y-4.4167
X2.6772Y-2.4606
X2.6772Y-3.2126
X2.685Y-1.0285
X2.7087Y-0.8425
X2.7087Y-1.5748
X2.7087Y-1.6299
X2.7165Y-1.4882
X2.7165Y-2.9232
X2.7165Y-2.9626
X2.7165Y-3.3268
X2.7252Y-2.4803
X2.7451Y-2.0679
X2.7559Y-2.9528
X2.7559Y-2.9921
X2.7559Y-3.3563
X2.7645Y-2.4803
X2.7717Y-4.4094
X2.7751Y-0.9798
X2.7953Y-2.9921
X2.7953Y-3.0315
X2.7953Y-3.3858
X2.8039Y-2.4803
X2.8317Y-1.0079
X2.8346Y-3.0315
X2.8346Y-3.0708
X2.8346Y-3.4154
X2.8432Y-2.4801
X2.874Y-3.0709
X2.874Y-3.1102
X2.874Y-3.4449
X2.8819Y-1.3937
X2.8819Y-3.9764
X2.8826Y-2.4803
X2.8976Y-4.3307
X2.9055Y-4.0394
X2.9134Y-3.1102
X2.9134Y-3.1496
X2.9134Y-3.4744
X2.9213Y-2.0945
X2.9232Y-2.4803
X2.9449Y-1.4488
X2.9528Y-1.6614
X2.9528Y-3.1496
X2.9528Y-3.189
X2.9528Y-3.5039
X2.9626Y-2.4803
X2.9918Y-3.1792
X2.9921Y-3.2185
X2.9921Y-3.5335
X2.9921Y-3.5984
X3.002Y-2.4803
X3.0315Y-4.1437
X3.0709Y-4.5276
X3.0866Y-3.7638
X3.0866Y-3.9764
X3.1732Y-4.2756
X3.1732Y-4.315
X3.2067Y-4.3465
X3.223Y-4.0892
X3.2677Y-4.0315
T4
X1.0752Y-2.185
X1.0752Y-2.2835
X1.0752Y-2.3622
X1.0752Y-2.4606
X1.0772Y-2.878
X1.0772Y-2.9764
X1.0772Y-3.0551
X1.0772Y-3.1535
T5
X1.8661Y-4.6772
X1.9661Y-4.6772
X2.0661Y-4.6772
X2.1661Y-4.6772
X3.3307Y-1.3614
X3.3307Y-1.4614
X3.3307Y-1.5614
X3.3307Y-1.6614
X3.3307Y-1.7614
T6
X0.9685Y-2.0642
X0.9685Y-2.5815
X0.9705Y-2.7571
X0.9705Y-3.2744
T3
G00X2.4354Y-4.4783
M15
G01X2.4354Y-4.5217
M16
G05
G00X2.4354Y-4.6496
M15
G01X2.4354Y-4.6811
M16
G05
G00X2.7756Y-4.4783
M15
G01X2.7756Y-4.5217
M16
G05
G00X2.7756Y-4.6496
M15
G01X2.7756Y-4.6811
M16
G05
T0
M30
