%TF.GenerationSoftware,KiCad,Pcbnew,7.0.1*%
%TF.CreationDate,2023-08-09T19:54:46+10:00*%
%TF.ProjectId,STM32MP151_Dev_Board,53544d33-324d-4503-9135-315f4465765f,rev?*%
%TF.SameCoordinates,Original*%
%TF.FileFunction,Paste,Bot*%
%TF.FilePolarity,Positive*%
%FSLAX46Y46*%
G04 Gerber Fmt 4.6, Leading zero omitted, Abs format (unit mm)*
G04 Created by KiCad (PCBNEW 7.0.1) date 2023-08-09 19:54:46*
%MOMM*%
%LPD*%
G01*
G04 APERTURE LIST*
G04 Aperture macros list*
%AMRoundRect*
0 Rectangle with rounded corners*
0 $1 Rounding radius*
0 $2 $3 $4 $5 $6 $7 $8 $9 X,Y pos of 4 corners*
0 Add a 4 corners polygon primitive as box body*
4,1,4,$2,$3,$4,$5,$6,$7,$8,$9,$2,$3,0*
0 Add four circle primitives for the rounded corners*
1,1,$1+$1,$2,$3*
1,1,$1+$1,$4,$5*
1,1,$1+$1,$6,$7*
1,1,$1+$1,$8,$9*
0 Add four rect primitives between the rounded corners*
20,1,$1+$1,$2,$3,$4,$5,0*
20,1,$1+$1,$4,$5,$6,$7,0*
20,1,$1+$1,$6,$7,$8,$9,0*
20,1,$1+$1,$8,$9,$2,$3,0*%
G04 Aperture macros list end*
%ADD10C,0.010000*%
%ADD11RoundRect,0.250000X-0.312500X-0.625000X0.312500X-0.625000X0.312500X0.625000X-0.312500X0.625000X0*%
%ADD12RoundRect,0.250000X0.312500X0.625000X-0.312500X0.625000X-0.312500X-0.625000X0.312500X-0.625000X0*%
%ADD13RoundRect,0.008100X-0.396900X-0.126900X0.396900X-0.126900X0.396900X0.126900X-0.396900X0.126900X0*%
%ADD14RoundRect,0.008100X-0.126900X0.396900X-0.126900X-0.396900X0.126900X-0.396900X0.126900X0.396900X0*%
%ADD15RoundRect,0.250000X-0.475000X0.250000X-0.475000X-0.250000X0.475000X-0.250000X0.475000X0.250000X0*%
%ADD16O,1.400000X0.600000*%
%ADD17O,0.600000X1.400000*%
%ADD18R,2.440000X1.120000*%
%ADD19RoundRect,0.250000X-0.250000X-0.475000X0.250000X-0.475000X0.250000X0.475000X-0.250000X0.475000X0*%
%ADD20RoundRect,0.250000X0.475000X-0.250000X0.475000X0.250000X-0.475000X0.250000X-0.475000X-0.250000X0*%
%ADD21R,1.300000X1.550000*%
%ADD22RoundRect,0.250000X0.250000X0.475000X-0.250000X0.475000X-0.250000X-0.475000X0.250000X-0.475000X0*%
%ADD23R,1.300000X0.700000*%
%ADD24RoundRect,0.250000X0.625000X-0.312500X0.625000X0.312500X-0.625000X0.312500X-0.625000X-0.312500X0*%
%ADD25RoundRect,0.237500X-0.237500X0.287500X-0.237500X-0.287500X0.237500X-0.287500X0.237500X0.287500X0*%
%ADD26R,1.400000X1.200000*%
%ADD27RoundRect,0.250000X-0.550000X1.250000X-0.550000X-1.250000X0.550000X-1.250000X0.550000X1.250000X0*%
%ADD28RoundRect,0.250000X-0.625000X0.312500X-0.625000X-0.312500X0.625000X-0.312500X0.625000X0.312500X0*%
%ADD29RoundRect,0.020500X-0.184500X0.764500X-0.184500X-0.764500X0.184500X-0.764500X0.184500X0.764500X0*%
%ADD30R,2.800000X2.200000*%
%ADD31R,2.800000X2.800000*%
%ADD32R,0.300000X0.300000*%
%ADD33RoundRect,0.250000X0.550000X-1.250000X0.550000X1.250000X-0.550000X1.250000X-0.550000X-1.250000X0*%
G04 APERTURE END LIST*
%TO.C,U7*%
D10*
X36815000Y-27770000D02*
X34475000Y-27770000D01*
X34475000Y-25430000D01*
X36815000Y-25430000D01*
X36815000Y-27770000D01*
G36*
X36815000Y-27770000D02*
G01*
X34475000Y-27770000D01*
X34475000Y-25430000D01*
X36815000Y-25430000D01*
X36815000Y-27770000D01*
G37*
%TD*%
D11*
%TO.C,R27*%
X75737500Y-108600000D03*
X78662500Y-108600000D03*
%TD*%
D12*
%TO.C,R23*%
X37462500Y-54000000D03*
X34537500Y-54000000D03*
%TD*%
D13*
%TO.C,U7*%
X33200000Y-28350000D03*
X33200000Y-27850000D03*
X33200000Y-27350000D03*
X33200000Y-26850000D03*
X33200000Y-26350000D03*
X33200000Y-25850000D03*
X33200000Y-25350000D03*
X33200000Y-24850000D03*
D14*
X33895000Y-24155000D03*
X34395000Y-24155000D03*
X34895000Y-24155000D03*
X35395000Y-24155000D03*
X35895000Y-24155000D03*
X36395000Y-24155000D03*
X36895000Y-24155000D03*
X37395000Y-24155000D03*
D13*
X38090000Y-24850000D03*
X38090000Y-25350000D03*
X38090000Y-25850000D03*
X38090000Y-26350000D03*
X38090000Y-26850000D03*
X38090000Y-27350000D03*
X38090000Y-27850000D03*
X38090000Y-28350000D03*
D14*
X37395000Y-29045000D03*
X36895000Y-29045000D03*
X36395000Y-29045000D03*
X35895000Y-29045000D03*
X35395000Y-29045000D03*
X34895000Y-29045000D03*
X34395000Y-29045000D03*
X33895000Y-29045000D03*
%TD*%
D12*
%TO.C,R22*%
X37462500Y-51550000D03*
X34537500Y-51550000D03*
%TD*%
D15*
%TO.C,C7*%
X33195000Y-31250000D03*
X33195000Y-33150000D03*
%TD*%
%TO.C,C16*%
X25645000Y-27650000D03*
X25645000Y-29550000D03*
%TD*%
D12*
%TO.C,R20*%
X37462500Y-46800000D03*
X34537500Y-46800000D03*
%TD*%
D16*
%TO.C,U1*%
X78000000Y-45000000D03*
X78000000Y-46000000D03*
X78000000Y-47000000D03*
X78000000Y-48000000D03*
X78000000Y-49000000D03*
X78000000Y-50000000D03*
X78000000Y-51000000D03*
X78000000Y-52000000D03*
X78000000Y-53000000D03*
X78000000Y-54000000D03*
X78000000Y-55000000D03*
X78000000Y-56000000D03*
X78000000Y-57000000D03*
X78000000Y-58000000D03*
X78000000Y-59000000D03*
X78000000Y-60000000D03*
X78000000Y-61000000D03*
X78000000Y-62000000D03*
X78000000Y-63000000D03*
X78000000Y-64000000D03*
X78000000Y-65000000D03*
X78000000Y-66000000D03*
X78000000Y-67000000D03*
X78000000Y-68000000D03*
X78000000Y-69000000D03*
X78000000Y-70000000D03*
X78000000Y-71000000D03*
X78000000Y-72000000D03*
X78000000Y-73000000D03*
X78000000Y-74000000D03*
X78000000Y-75000000D03*
X78000000Y-76000000D03*
X78000000Y-77000000D03*
X78000000Y-78000000D03*
X78000000Y-79000000D03*
X78000000Y-80000000D03*
X78000000Y-81000000D03*
X78000000Y-82000000D03*
D17*
X77000000Y-83000000D03*
X76000000Y-83000000D03*
X75000000Y-83000000D03*
X74000000Y-83000000D03*
X73000000Y-83000000D03*
X72000000Y-83000000D03*
X71000000Y-83000000D03*
X70000000Y-83000000D03*
X69000000Y-83000000D03*
X68000000Y-83000000D03*
X67000000Y-83000000D03*
X66000000Y-83000000D03*
X65000000Y-83000000D03*
X64000000Y-83000000D03*
X63000000Y-83000000D03*
X62000000Y-83000000D03*
X61000000Y-83000000D03*
X60000000Y-83000000D03*
X59000000Y-83000000D03*
X58000000Y-83000000D03*
X57000000Y-83000000D03*
X56000000Y-83000000D03*
X55000000Y-83000000D03*
X54000000Y-83000000D03*
X53000000Y-83000000D03*
X52000000Y-83000000D03*
X51000000Y-83000000D03*
X50000000Y-83000000D03*
X49000000Y-83000000D03*
X48000000Y-83000000D03*
X47000000Y-83000000D03*
X46000000Y-83000000D03*
X45000000Y-83000000D03*
X44000000Y-83000000D03*
X43000000Y-83000000D03*
X42000000Y-83000000D03*
D16*
X41000000Y-82000000D03*
X41000000Y-81000000D03*
X41000000Y-80000000D03*
X41000000Y-79000000D03*
X41000000Y-78000000D03*
X41000000Y-77000000D03*
X41000000Y-76000000D03*
X41000000Y-75000000D03*
X41000000Y-74000000D03*
X41000000Y-73000000D03*
X41000000Y-72000000D03*
X41000000Y-71000000D03*
X41000000Y-70000000D03*
X41000000Y-69000000D03*
X41000000Y-68000000D03*
X41000000Y-67000000D03*
X41000000Y-66000000D03*
X41000000Y-65000000D03*
X41000000Y-64000000D03*
X41000000Y-63000000D03*
X41000000Y-62000000D03*
X41000000Y-61000000D03*
X41000000Y-60000000D03*
X41000000Y-59000000D03*
X41000000Y-58000000D03*
X41000000Y-57000000D03*
X41000000Y-56000000D03*
X41000000Y-55000000D03*
X41000000Y-54000000D03*
X41000000Y-53000000D03*
X41000000Y-52000000D03*
X41000000Y-51000000D03*
X41000000Y-50000000D03*
X41000000Y-49000000D03*
X41000000Y-48000000D03*
X41000000Y-47000000D03*
X41000000Y-46000000D03*
X41000000Y-45000000D03*
D17*
X42000000Y-44000000D03*
X43000000Y-44000000D03*
X44000000Y-44000000D03*
X45000000Y-44000000D03*
X46000000Y-44000000D03*
X47000000Y-44000000D03*
X48000000Y-44000000D03*
X49000000Y-44000000D03*
X50000000Y-44000000D03*
X51000000Y-44000000D03*
X52000000Y-44000000D03*
X53000000Y-44000000D03*
X54000000Y-44000000D03*
X55000000Y-44000000D03*
X56000000Y-44000000D03*
X57000000Y-44000000D03*
X58000000Y-44000000D03*
X59000000Y-44000000D03*
X60000000Y-44000000D03*
X61000000Y-44000000D03*
X62000000Y-44000000D03*
X63000000Y-44000000D03*
X64000000Y-44000000D03*
X65000000Y-44000000D03*
X66000000Y-44000000D03*
X67000000Y-44000000D03*
X68000000Y-44000000D03*
X69000000Y-44000000D03*
X70000000Y-44000000D03*
X71000000Y-44000000D03*
X72000000Y-44000000D03*
X73000000Y-44000000D03*
X74000000Y-44000000D03*
X75000000Y-44000000D03*
X76000000Y-44000000D03*
X77000000Y-44000000D03*
%TD*%
D18*
%TO.C,SW1*%
X72110000Y-93420000D03*
X72110000Y-95960000D03*
X72110000Y-98500000D03*
X63500000Y-98500000D03*
X63500000Y-95960000D03*
X63500000Y-93420000D03*
%TD*%
D19*
%TO.C,C8*%
X34845000Y-22445000D03*
X36745000Y-22445000D03*
%TD*%
D20*
%TO.C,C18*%
X67000000Y-21350000D03*
X67000000Y-19450000D03*
%TD*%
D21*
%TO.C,SW2*%
X80610000Y-99500000D03*
X80610000Y-91550000D03*
X76110000Y-99500000D03*
X76110000Y-91550000D03*
%TD*%
D22*
%TO.C,C17*%
X29395000Y-27800000D03*
X27495000Y-27800000D03*
%TD*%
D23*
%TO.C,D1*%
X36550000Y-62900000D03*
X36550000Y-64000000D03*
X36550000Y-65100000D03*
X33450000Y-65100000D03*
X33450000Y-64000000D03*
X33450000Y-62900000D03*
%TD*%
D24*
%TO.C,R18*%
X58000000Y-89462500D03*
X58000000Y-86537500D03*
%TD*%
D20*
%TO.C,C6*%
X39595000Y-33150000D03*
X39595000Y-31250000D03*
%TD*%
D12*
%TO.C,R24*%
X37062500Y-77200000D03*
X34137500Y-77200000D03*
%TD*%
D25*
%TO.C,L2*%
X31045000Y-27770000D03*
X31045000Y-29520000D03*
%TD*%
D11*
%TO.C,R28*%
X75737500Y-111000000D03*
X78662500Y-111000000D03*
%TD*%
D26*
%TO.C,Y2*%
X35295000Y-31350000D03*
X37495000Y-31350000D03*
X37495000Y-33050000D03*
X35295000Y-33050000D03*
%TD*%
D24*
%TO.C,R19*%
X55000000Y-89462500D03*
X55000000Y-86537500D03*
%TD*%
D27*
%TO.C,C12*%
X59400000Y-30000000D03*
X59400000Y-34400000D03*
%TD*%
D28*
%TO.C,R1*%
X32800000Y-19537500D03*
X32800000Y-22462500D03*
%TD*%
D29*
%TO.C,U4*%
X64775000Y-23530000D03*
X65425000Y-23530000D03*
X66075000Y-23530000D03*
X66725000Y-23530000D03*
X67375000Y-23530000D03*
X68025000Y-23530000D03*
X68675000Y-23530000D03*
X69325000Y-23530000D03*
X69975000Y-23530000D03*
X70625000Y-23530000D03*
X71275000Y-23530000D03*
X71925000Y-23530000D03*
X72575000Y-23530000D03*
X73225000Y-23530000D03*
X73225000Y-29270000D03*
X72575000Y-29270000D03*
X71925000Y-29270000D03*
X71275000Y-29270000D03*
X70625000Y-29270000D03*
X69975000Y-29270000D03*
X69325000Y-29270000D03*
X68675000Y-29270000D03*
X68025000Y-29270000D03*
X67375000Y-29270000D03*
X66725000Y-29270000D03*
X66075000Y-29270000D03*
X65425000Y-29270000D03*
X64775000Y-29270000D03*
%TD*%
D12*
%TO.C,R25*%
X37062500Y-73400000D03*
X34137500Y-73400000D03*
%TD*%
D24*
%TO.C,R2*%
X83000000Y-99662500D03*
X83000000Y-96737500D03*
%TD*%
D22*
%TO.C,C19*%
X67350000Y-31400000D03*
X65450000Y-31400000D03*
%TD*%
D12*
%TO.C,R26*%
X37062500Y-69800000D03*
X34137500Y-69800000D03*
%TD*%
%TO.C,R21*%
X37462500Y-49150000D03*
X34537500Y-49150000D03*
%TD*%
D30*
%TO.C,J2*%
X76100000Y-21400000D03*
X83500000Y-19400000D03*
D31*
X83500000Y-28800000D03*
%TD*%
D28*
%TO.C,R29*%
X30600000Y-31137500D03*
X30600000Y-34062500D03*
%TD*%
D20*
%TO.C,C14*%
X39995000Y-24195000D03*
X39995000Y-22295000D03*
%TD*%
D32*
%TO.C,U5*%
X70550000Y-110950000D03*
X70550000Y-110250000D03*
X71400000Y-110600000D03*
%TD*%
D33*
%TO.C,C20*%
X59400000Y-22600000D03*
X59400000Y-18200000D03*
%TD*%
M02*
