%TF.GenerationSoftware,KiCad,Pcbnew,7.0.1*%
%TF.CreationDate,2023-08-09T19:54:46+10:00*%
%TF.ProjectId,STM32MP151_Dev_Board,53544d33-324d-4503-9135-315f4465765f,rev?*%
%TF.SameCoordinates,Original*%
%TF.FileFunction,Legend,Top*%
%TF.FilePolarity,Positive*%
%FSLAX46Y46*%
G04 Gerber Fmt 4.6, Leading zero omitted, Abs format (unit mm)*
G04 Created by KiCad (PCBNEW 7.0.1) date 2023-08-09 19:54:46*
%MOMM*%
%LPD*%
G01*
G04 APERTURE LIST*
%ADD10C,0.150000*%
%ADD11C,0.200000*%
%ADD12C,0.120000*%
%ADD13C,0.127000*%
G04 APERTURE END LIST*
D10*
X56281951Y-108222439D02*
X54981951Y-107622439D01*
X56281951Y-107022439D01*
X56281951Y-108222439D01*
G36*
X56281951Y-108222439D02*
G01*
X54981951Y-107622439D01*
X56281951Y-107022439D01*
X56281951Y-108222439D01*
G37*
D11*
X16882843Y-42600000D02*
G75*
G03*
X16882843Y-42600000I-282843J0D01*
G01*
D10*
X59881951Y-77622439D02*
X58581951Y-77022439D01*
X59881951Y-76422439D01*
X59881951Y-77622439D01*
G36*
X59881951Y-77622439D02*
G01*
X58581951Y-77022439D01*
X59881951Y-76422439D01*
X59881951Y-77622439D01*
G37*
X36000000Y-89200000D02*
G75*
G03*
X36000000Y-89200000I-200000J0D01*
G01*
X24481951Y-114422477D02*
X23181951Y-113822477D01*
X24481951Y-113222477D01*
X24481951Y-114422477D01*
G36*
X24481951Y-114422477D02*
G01*
X23181951Y-113822477D01*
X24481951Y-113222477D01*
X24481951Y-114422477D01*
G37*
X78400000Y-102800000D02*
G75*
G03*
X78400000Y-102800000I-200000J0D01*
G01*
%TO.C,R3*%
X66862619Y-35366666D02*
X66386428Y-35699999D01*
X66862619Y-35938094D02*
X65862619Y-35938094D01*
X65862619Y-35938094D02*
X65862619Y-35557142D01*
X65862619Y-35557142D02*
X65910238Y-35461904D01*
X65910238Y-35461904D02*
X65957857Y-35414285D01*
X65957857Y-35414285D02*
X66053095Y-35366666D01*
X66053095Y-35366666D02*
X66195952Y-35366666D01*
X66195952Y-35366666D02*
X66291190Y-35414285D01*
X66291190Y-35414285D02*
X66338809Y-35461904D01*
X66338809Y-35461904D02*
X66386428Y-35557142D01*
X66386428Y-35557142D02*
X66386428Y-35938094D01*
X65862619Y-35033332D02*
X65862619Y-34414285D01*
X65862619Y-34414285D02*
X66243571Y-34747618D01*
X66243571Y-34747618D02*
X66243571Y-34604761D01*
X66243571Y-34604761D02*
X66291190Y-34509523D01*
X66291190Y-34509523D02*
X66338809Y-34461904D01*
X66338809Y-34461904D02*
X66434047Y-34414285D01*
X66434047Y-34414285D02*
X66672142Y-34414285D01*
X66672142Y-34414285D02*
X66767380Y-34461904D01*
X66767380Y-34461904D02*
X66815000Y-34509523D01*
X66815000Y-34509523D02*
X66862619Y-34604761D01*
X66862619Y-34604761D02*
X66862619Y-34890475D01*
X66862619Y-34890475D02*
X66815000Y-34985713D01*
X66815000Y-34985713D02*
X66767380Y-35033332D01*
X62709523Y-42462619D02*
X62138095Y-42462619D01*
X62423809Y-42462619D02*
X62423809Y-41462619D01*
X62423809Y-41462619D02*
X62328571Y-41605476D01*
X62328571Y-41605476D02*
X62233333Y-41700714D01*
X62233333Y-41700714D02*
X62138095Y-41748333D01*
X63328571Y-41462619D02*
X63423809Y-41462619D01*
X63423809Y-41462619D02*
X63519047Y-41510238D01*
X63519047Y-41510238D02*
X63566666Y-41557857D01*
X63566666Y-41557857D02*
X63614285Y-41653095D01*
X63614285Y-41653095D02*
X63661904Y-41843571D01*
X63661904Y-41843571D02*
X63661904Y-42081666D01*
X63661904Y-42081666D02*
X63614285Y-42272142D01*
X63614285Y-42272142D02*
X63566666Y-42367380D01*
X63566666Y-42367380D02*
X63519047Y-42415000D01*
X63519047Y-42415000D02*
X63423809Y-42462619D01*
X63423809Y-42462619D02*
X63328571Y-42462619D01*
X63328571Y-42462619D02*
X63233333Y-42415000D01*
X63233333Y-42415000D02*
X63185714Y-42367380D01*
X63185714Y-42367380D02*
X63138095Y-42272142D01*
X63138095Y-42272142D02*
X63090476Y-42081666D01*
X63090476Y-42081666D02*
X63090476Y-41843571D01*
X63090476Y-41843571D02*
X63138095Y-41653095D01*
X63138095Y-41653095D02*
X63185714Y-41557857D01*
X63185714Y-41557857D02*
X63233333Y-41510238D01*
X63233333Y-41510238D02*
X63328571Y-41462619D01*
X64090476Y-42462619D02*
X64090476Y-41462619D01*
X64661904Y-42462619D02*
X64233333Y-41891190D01*
X64661904Y-41462619D02*
X64090476Y-42034047D01*
%TO.C,R7*%
X57462619Y-39966666D02*
X56986428Y-40299999D01*
X57462619Y-40538094D02*
X56462619Y-40538094D01*
X56462619Y-40538094D02*
X56462619Y-40157142D01*
X56462619Y-40157142D02*
X56510238Y-40061904D01*
X56510238Y-40061904D02*
X56557857Y-40014285D01*
X56557857Y-40014285D02*
X56653095Y-39966666D01*
X56653095Y-39966666D02*
X56795952Y-39966666D01*
X56795952Y-39966666D02*
X56891190Y-40014285D01*
X56891190Y-40014285D02*
X56938809Y-40061904D01*
X56938809Y-40061904D02*
X56986428Y-40157142D01*
X56986428Y-40157142D02*
X56986428Y-40538094D01*
X56462619Y-39633332D02*
X56462619Y-38966666D01*
X56462619Y-38966666D02*
X57462619Y-39395237D01*
X59214285Y-44595952D02*
X59214285Y-45262619D01*
X58976190Y-44215000D02*
X58738095Y-44929285D01*
X58738095Y-44929285D02*
X59357142Y-44929285D01*
X59642857Y-44262619D02*
X60309523Y-44262619D01*
X60309523Y-44262619D02*
X59880952Y-45262619D01*
X60690476Y-45262619D02*
X60690476Y-44262619D01*
X61261904Y-45262619D02*
X60833333Y-44691190D01*
X61261904Y-44262619D02*
X60690476Y-44834047D01*
%TO.C,L1*%
X49862619Y-93316666D02*
X49862619Y-93792856D01*
X49862619Y-93792856D02*
X48862619Y-93792856D01*
X49862619Y-92459523D02*
X49862619Y-93030951D01*
X49862619Y-92745237D02*
X48862619Y-92745237D01*
X48862619Y-92745237D02*
X49005476Y-92840475D01*
X49005476Y-92840475D02*
X49100714Y-92935713D01*
X49100714Y-92935713D02*
X49148333Y-93030951D01*
X47607857Y-94888094D02*
X47560238Y-94840475D01*
X47560238Y-94840475D02*
X47512619Y-94745237D01*
X47512619Y-94745237D02*
X47512619Y-94507142D01*
X47512619Y-94507142D02*
X47560238Y-94411904D01*
X47560238Y-94411904D02*
X47607857Y-94364285D01*
X47607857Y-94364285D02*
X47703095Y-94316666D01*
X47703095Y-94316666D02*
X47798333Y-94316666D01*
X47798333Y-94316666D02*
X47941190Y-94364285D01*
X47941190Y-94364285D02*
X48512619Y-94935713D01*
X48512619Y-94935713D02*
X48512619Y-94316666D01*
X47512619Y-93697618D02*
X47512619Y-93602380D01*
X47512619Y-93602380D02*
X47560238Y-93507142D01*
X47560238Y-93507142D02*
X47607857Y-93459523D01*
X47607857Y-93459523D02*
X47703095Y-93411904D01*
X47703095Y-93411904D02*
X47893571Y-93364285D01*
X47893571Y-93364285D02*
X48131666Y-93364285D01*
X48131666Y-93364285D02*
X48322142Y-93411904D01*
X48322142Y-93411904D02*
X48417380Y-93459523D01*
X48417380Y-93459523D02*
X48465000Y-93507142D01*
X48465000Y-93507142D02*
X48512619Y-93602380D01*
X48512619Y-93602380D02*
X48512619Y-93697618D01*
X48512619Y-93697618D02*
X48465000Y-93792856D01*
X48465000Y-93792856D02*
X48417380Y-93840475D01*
X48417380Y-93840475D02*
X48322142Y-93888094D01*
X48322142Y-93888094D02*
X48131666Y-93935713D01*
X48131666Y-93935713D02*
X47893571Y-93935713D01*
X47893571Y-93935713D02*
X47703095Y-93888094D01*
X47703095Y-93888094D02*
X47607857Y-93840475D01*
X47607857Y-93840475D02*
X47560238Y-93792856D01*
X47560238Y-93792856D02*
X47512619Y-93697618D01*
X47845952Y-92507142D02*
X48512619Y-92507142D01*
X47845952Y-92935713D02*
X48369761Y-92935713D01*
X48369761Y-92935713D02*
X48465000Y-92888094D01*
X48465000Y-92888094D02*
X48512619Y-92792856D01*
X48512619Y-92792856D02*
X48512619Y-92649999D01*
X48512619Y-92649999D02*
X48465000Y-92554761D01*
X48465000Y-92554761D02*
X48417380Y-92507142D01*
X48512619Y-92030951D02*
X47512619Y-92030951D01*
X47988809Y-92030951D02*
X47988809Y-91459523D01*
X48512619Y-91459523D02*
X47512619Y-91459523D01*
%TO.C,C2*%
X24967380Y-39366666D02*
X25015000Y-39414285D01*
X25015000Y-39414285D02*
X25062619Y-39557142D01*
X25062619Y-39557142D02*
X25062619Y-39652380D01*
X25062619Y-39652380D02*
X25015000Y-39795237D01*
X25015000Y-39795237D02*
X24919761Y-39890475D01*
X24919761Y-39890475D02*
X24824523Y-39938094D01*
X24824523Y-39938094D02*
X24634047Y-39985713D01*
X24634047Y-39985713D02*
X24491190Y-39985713D01*
X24491190Y-39985713D02*
X24300714Y-39938094D01*
X24300714Y-39938094D02*
X24205476Y-39890475D01*
X24205476Y-39890475D02*
X24110238Y-39795237D01*
X24110238Y-39795237D02*
X24062619Y-39652380D01*
X24062619Y-39652380D02*
X24062619Y-39557142D01*
X24062619Y-39557142D02*
X24110238Y-39414285D01*
X24110238Y-39414285D02*
X24157857Y-39366666D01*
X24157857Y-38985713D02*
X24110238Y-38938094D01*
X24110238Y-38938094D02*
X24062619Y-38842856D01*
X24062619Y-38842856D02*
X24062619Y-38604761D01*
X24062619Y-38604761D02*
X24110238Y-38509523D01*
X24110238Y-38509523D02*
X24157857Y-38461904D01*
X24157857Y-38461904D02*
X24253095Y-38414285D01*
X24253095Y-38414285D02*
X24348333Y-38414285D01*
X24348333Y-38414285D02*
X24491190Y-38461904D01*
X24491190Y-38461904D02*
X25062619Y-39033332D01*
X25062619Y-39033332D02*
X25062619Y-38414285D01*
X32262619Y-40471428D02*
X32262619Y-41042856D01*
X32262619Y-40757142D02*
X31262619Y-40757142D01*
X31262619Y-40757142D02*
X31405476Y-40852380D01*
X31405476Y-40852380D02*
X31500714Y-40947618D01*
X31500714Y-40947618D02*
X31548333Y-41042856D01*
X31262619Y-39852380D02*
X31262619Y-39757142D01*
X31262619Y-39757142D02*
X31310238Y-39661904D01*
X31310238Y-39661904D02*
X31357857Y-39614285D01*
X31357857Y-39614285D02*
X31453095Y-39566666D01*
X31453095Y-39566666D02*
X31643571Y-39519047D01*
X31643571Y-39519047D02*
X31881666Y-39519047D01*
X31881666Y-39519047D02*
X32072142Y-39566666D01*
X32072142Y-39566666D02*
X32167380Y-39614285D01*
X32167380Y-39614285D02*
X32215000Y-39661904D01*
X32215000Y-39661904D02*
X32262619Y-39757142D01*
X32262619Y-39757142D02*
X32262619Y-39852380D01*
X32262619Y-39852380D02*
X32215000Y-39947618D01*
X32215000Y-39947618D02*
X32167380Y-39995237D01*
X32167380Y-39995237D02*
X32072142Y-40042856D01*
X32072142Y-40042856D02*
X31881666Y-40090475D01*
X31881666Y-40090475D02*
X31643571Y-40090475D01*
X31643571Y-40090475D02*
X31453095Y-40042856D01*
X31453095Y-40042856D02*
X31357857Y-39995237D01*
X31357857Y-39995237D02*
X31310238Y-39947618D01*
X31310238Y-39947618D02*
X31262619Y-39852380D01*
X31595952Y-38661904D02*
X32262619Y-38661904D01*
X31595952Y-39090475D02*
X32119761Y-39090475D01*
X32119761Y-39090475D02*
X32215000Y-39042856D01*
X32215000Y-39042856D02*
X32262619Y-38947618D01*
X32262619Y-38947618D02*
X32262619Y-38804761D01*
X32262619Y-38804761D02*
X32215000Y-38709523D01*
X32215000Y-38709523D02*
X32167380Y-38661904D01*
X31738809Y-37852380D02*
X31738809Y-38185713D01*
X32262619Y-38185713D02*
X31262619Y-38185713D01*
X31262619Y-38185713D02*
X31262619Y-37709523D01*
%TO.C,C1*%
X19567380Y-40566666D02*
X19615000Y-40614285D01*
X19615000Y-40614285D02*
X19662619Y-40757142D01*
X19662619Y-40757142D02*
X19662619Y-40852380D01*
X19662619Y-40852380D02*
X19615000Y-40995237D01*
X19615000Y-40995237D02*
X19519761Y-41090475D01*
X19519761Y-41090475D02*
X19424523Y-41138094D01*
X19424523Y-41138094D02*
X19234047Y-41185713D01*
X19234047Y-41185713D02*
X19091190Y-41185713D01*
X19091190Y-41185713D02*
X18900714Y-41138094D01*
X18900714Y-41138094D02*
X18805476Y-41090475D01*
X18805476Y-41090475D02*
X18710238Y-40995237D01*
X18710238Y-40995237D02*
X18662619Y-40852380D01*
X18662619Y-40852380D02*
X18662619Y-40757142D01*
X18662619Y-40757142D02*
X18710238Y-40614285D01*
X18710238Y-40614285D02*
X18757857Y-40566666D01*
X19662619Y-39614285D02*
X19662619Y-40185713D01*
X19662619Y-39899999D02*
X18662619Y-39899999D01*
X18662619Y-39899999D02*
X18805476Y-39995237D01*
X18805476Y-39995237D02*
X18900714Y-40090475D01*
X18900714Y-40090475D02*
X18948333Y-40185713D01*
X20157143Y-38062619D02*
X20252381Y-38062619D01*
X20252381Y-38062619D02*
X20347619Y-38110238D01*
X20347619Y-38110238D02*
X20395238Y-38157857D01*
X20395238Y-38157857D02*
X20442857Y-38253095D01*
X20442857Y-38253095D02*
X20490476Y-38443571D01*
X20490476Y-38443571D02*
X20490476Y-38681666D01*
X20490476Y-38681666D02*
X20442857Y-38872142D01*
X20442857Y-38872142D02*
X20395238Y-38967380D01*
X20395238Y-38967380D02*
X20347619Y-39015000D01*
X20347619Y-39015000D02*
X20252381Y-39062619D01*
X20252381Y-39062619D02*
X20157143Y-39062619D01*
X20157143Y-39062619D02*
X20061905Y-39015000D01*
X20061905Y-39015000D02*
X20014286Y-38967380D01*
X20014286Y-38967380D02*
X19966667Y-38872142D01*
X19966667Y-38872142D02*
X19919048Y-38681666D01*
X19919048Y-38681666D02*
X19919048Y-38443571D01*
X19919048Y-38443571D02*
X19966667Y-38253095D01*
X19966667Y-38253095D02*
X20014286Y-38157857D01*
X20014286Y-38157857D02*
X20061905Y-38110238D01*
X20061905Y-38110238D02*
X20157143Y-38062619D01*
X20919048Y-38967380D02*
X20966667Y-39015000D01*
X20966667Y-39015000D02*
X20919048Y-39062619D01*
X20919048Y-39062619D02*
X20871429Y-39015000D01*
X20871429Y-39015000D02*
X20919048Y-38967380D01*
X20919048Y-38967380D02*
X20919048Y-39062619D01*
X21919047Y-39062619D02*
X21347619Y-39062619D01*
X21633333Y-39062619D02*
X21633333Y-38062619D01*
X21633333Y-38062619D02*
X21538095Y-38205476D01*
X21538095Y-38205476D02*
X21442857Y-38300714D01*
X21442857Y-38300714D02*
X21347619Y-38348333D01*
X22776190Y-38395952D02*
X22776190Y-39062619D01*
X22347619Y-38395952D02*
X22347619Y-38919761D01*
X22347619Y-38919761D02*
X22395238Y-39015000D01*
X22395238Y-39015000D02*
X22490476Y-39062619D01*
X22490476Y-39062619D02*
X22633333Y-39062619D01*
X22633333Y-39062619D02*
X22728571Y-39015000D01*
X22728571Y-39015000D02*
X22776190Y-38967380D01*
X23585714Y-38538809D02*
X23252381Y-38538809D01*
X23252381Y-39062619D02*
X23252381Y-38062619D01*
X23252381Y-38062619D02*
X23728571Y-38062619D01*
%TO.C,C4*%
X37633333Y-97567380D02*
X37585714Y-97615000D01*
X37585714Y-97615000D02*
X37442857Y-97662619D01*
X37442857Y-97662619D02*
X37347619Y-97662619D01*
X37347619Y-97662619D02*
X37204762Y-97615000D01*
X37204762Y-97615000D02*
X37109524Y-97519761D01*
X37109524Y-97519761D02*
X37061905Y-97424523D01*
X37061905Y-97424523D02*
X37014286Y-97234047D01*
X37014286Y-97234047D02*
X37014286Y-97091190D01*
X37014286Y-97091190D02*
X37061905Y-96900714D01*
X37061905Y-96900714D02*
X37109524Y-96805476D01*
X37109524Y-96805476D02*
X37204762Y-96710238D01*
X37204762Y-96710238D02*
X37347619Y-96662619D01*
X37347619Y-96662619D02*
X37442857Y-96662619D01*
X37442857Y-96662619D02*
X37585714Y-96710238D01*
X37585714Y-96710238D02*
X37633333Y-96757857D01*
X38490476Y-96995952D02*
X38490476Y-97662619D01*
X38252381Y-96615000D02*
X38014286Y-97329285D01*
X38014286Y-97329285D02*
X38633333Y-97329285D01*
X37204761Y-96392619D02*
X36633333Y-96392619D01*
X36919047Y-96392619D02*
X36919047Y-95392619D01*
X36919047Y-95392619D02*
X36823809Y-95535476D01*
X36823809Y-95535476D02*
X36728571Y-95630714D01*
X36728571Y-95630714D02*
X36633333Y-95678333D01*
X38061904Y-95725952D02*
X38061904Y-96392619D01*
X37633333Y-95725952D02*
X37633333Y-96249761D01*
X37633333Y-96249761D02*
X37680952Y-96345000D01*
X37680952Y-96345000D02*
X37776190Y-96392619D01*
X37776190Y-96392619D02*
X37919047Y-96392619D01*
X37919047Y-96392619D02*
X38014285Y-96345000D01*
X38014285Y-96345000D02*
X38061904Y-96297380D01*
X38871428Y-95868809D02*
X38538095Y-95868809D01*
X38538095Y-96392619D02*
X38538095Y-95392619D01*
X38538095Y-95392619D02*
X39014285Y-95392619D01*
%TO.C,C9*%
X58167380Y-99566666D02*
X58215000Y-99614285D01*
X58215000Y-99614285D02*
X58262619Y-99757142D01*
X58262619Y-99757142D02*
X58262619Y-99852380D01*
X58262619Y-99852380D02*
X58215000Y-99995237D01*
X58215000Y-99995237D02*
X58119761Y-100090475D01*
X58119761Y-100090475D02*
X58024523Y-100138094D01*
X58024523Y-100138094D02*
X57834047Y-100185713D01*
X57834047Y-100185713D02*
X57691190Y-100185713D01*
X57691190Y-100185713D02*
X57500714Y-100138094D01*
X57500714Y-100138094D02*
X57405476Y-100090475D01*
X57405476Y-100090475D02*
X57310238Y-99995237D01*
X57310238Y-99995237D02*
X57262619Y-99852380D01*
X57262619Y-99852380D02*
X57262619Y-99757142D01*
X57262619Y-99757142D02*
X57310238Y-99614285D01*
X57310238Y-99614285D02*
X57357857Y-99566666D01*
X58262619Y-99090475D02*
X58262619Y-98899999D01*
X58262619Y-98899999D02*
X58215000Y-98804761D01*
X58215000Y-98804761D02*
X58167380Y-98757142D01*
X58167380Y-98757142D02*
X58024523Y-98661904D01*
X58024523Y-98661904D02*
X57834047Y-98614285D01*
X57834047Y-98614285D02*
X57453095Y-98614285D01*
X57453095Y-98614285D02*
X57357857Y-98661904D01*
X57357857Y-98661904D02*
X57310238Y-98709523D01*
X57310238Y-98709523D02*
X57262619Y-98804761D01*
X57262619Y-98804761D02*
X57262619Y-98995237D01*
X57262619Y-98995237D02*
X57310238Y-99090475D01*
X57310238Y-99090475D02*
X57357857Y-99138094D01*
X57357857Y-99138094D02*
X57453095Y-99185713D01*
X57453095Y-99185713D02*
X57691190Y-99185713D01*
X57691190Y-99185713D02*
X57786428Y-99138094D01*
X57786428Y-99138094D02*
X57834047Y-99090475D01*
X57834047Y-99090475D02*
X57881666Y-98995237D01*
X57881666Y-98995237D02*
X57881666Y-98804761D01*
X57881666Y-98804761D02*
X57834047Y-98709523D01*
X57834047Y-98709523D02*
X57786428Y-98661904D01*
X57786428Y-98661904D02*
X57691190Y-98614285D01*
X61928571Y-96262619D02*
X61357143Y-96262619D01*
X61642857Y-96262619D02*
X61642857Y-95262619D01*
X61642857Y-95262619D02*
X61547619Y-95405476D01*
X61547619Y-95405476D02*
X61452381Y-95500714D01*
X61452381Y-95500714D02*
X61357143Y-95548333D01*
X62547619Y-95262619D02*
X62642857Y-95262619D01*
X62642857Y-95262619D02*
X62738095Y-95310238D01*
X62738095Y-95310238D02*
X62785714Y-95357857D01*
X62785714Y-95357857D02*
X62833333Y-95453095D01*
X62833333Y-95453095D02*
X62880952Y-95643571D01*
X62880952Y-95643571D02*
X62880952Y-95881666D01*
X62880952Y-95881666D02*
X62833333Y-96072142D01*
X62833333Y-96072142D02*
X62785714Y-96167380D01*
X62785714Y-96167380D02*
X62738095Y-96215000D01*
X62738095Y-96215000D02*
X62642857Y-96262619D01*
X62642857Y-96262619D02*
X62547619Y-96262619D01*
X62547619Y-96262619D02*
X62452381Y-96215000D01*
X62452381Y-96215000D02*
X62404762Y-96167380D01*
X62404762Y-96167380D02*
X62357143Y-96072142D01*
X62357143Y-96072142D02*
X62309524Y-95881666D01*
X62309524Y-95881666D02*
X62309524Y-95643571D01*
X62309524Y-95643571D02*
X62357143Y-95453095D01*
X62357143Y-95453095D02*
X62404762Y-95357857D01*
X62404762Y-95357857D02*
X62452381Y-95310238D01*
X62452381Y-95310238D02*
X62547619Y-95262619D01*
X63738095Y-95595952D02*
X63738095Y-96262619D01*
X63309524Y-95595952D02*
X63309524Y-96119761D01*
X63309524Y-96119761D02*
X63357143Y-96215000D01*
X63357143Y-96215000D02*
X63452381Y-96262619D01*
X63452381Y-96262619D02*
X63595238Y-96262619D01*
X63595238Y-96262619D02*
X63690476Y-96215000D01*
X63690476Y-96215000D02*
X63738095Y-96167380D01*
X64547619Y-95738809D02*
X64214286Y-95738809D01*
X64214286Y-96262619D02*
X64214286Y-95262619D01*
X64214286Y-95262619D02*
X64690476Y-95262619D01*
%TO.C,D2*%
X75461905Y-112462619D02*
X75461905Y-111462619D01*
X75461905Y-111462619D02*
X75700000Y-111462619D01*
X75700000Y-111462619D02*
X75842857Y-111510238D01*
X75842857Y-111510238D02*
X75938095Y-111605476D01*
X75938095Y-111605476D02*
X75985714Y-111700714D01*
X75985714Y-111700714D02*
X76033333Y-111891190D01*
X76033333Y-111891190D02*
X76033333Y-112034047D01*
X76033333Y-112034047D02*
X75985714Y-112224523D01*
X75985714Y-112224523D02*
X75938095Y-112319761D01*
X75938095Y-112319761D02*
X75842857Y-112415000D01*
X75842857Y-112415000D02*
X75700000Y-112462619D01*
X75700000Y-112462619D02*
X75461905Y-112462619D01*
X76414286Y-111557857D02*
X76461905Y-111510238D01*
X76461905Y-111510238D02*
X76557143Y-111462619D01*
X76557143Y-111462619D02*
X76795238Y-111462619D01*
X76795238Y-111462619D02*
X76890476Y-111510238D01*
X76890476Y-111510238D02*
X76938095Y-111557857D01*
X76938095Y-111557857D02*
X76985714Y-111653095D01*
X76985714Y-111653095D02*
X76985714Y-111748333D01*
X76985714Y-111748333D02*
X76938095Y-111891190D01*
X76938095Y-111891190D02*
X76366667Y-112462619D01*
X76366667Y-112462619D02*
X76985714Y-112462619D01*
%TO.C,J11*%
X56167380Y-110371428D02*
X56215000Y-110419047D01*
X56215000Y-110419047D02*
X56262619Y-110561904D01*
X56262619Y-110561904D02*
X56262619Y-110657142D01*
X56262619Y-110657142D02*
X56215000Y-110799999D01*
X56215000Y-110799999D02*
X56119761Y-110895237D01*
X56119761Y-110895237D02*
X56024523Y-110942856D01*
X56024523Y-110942856D02*
X55834047Y-110990475D01*
X55834047Y-110990475D02*
X55691190Y-110990475D01*
X55691190Y-110990475D02*
X55500714Y-110942856D01*
X55500714Y-110942856D02*
X55405476Y-110895237D01*
X55405476Y-110895237D02*
X55310238Y-110799999D01*
X55310238Y-110799999D02*
X55262619Y-110657142D01*
X55262619Y-110657142D02*
X55262619Y-110561904D01*
X55262619Y-110561904D02*
X55310238Y-110419047D01*
X55310238Y-110419047D02*
X55357857Y-110371428D01*
X55262619Y-110085713D02*
X55262619Y-109514285D01*
X56262619Y-109799999D02*
X55262619Y-109799999D01*
X56262619Y-109180951D02*
X55262619Y-109180951D01*
X55262619Y-109180951D02*
X55262619Y-108799999D01*
X55262619Y-108799999D02*
X55310238Y-108704761D01*
X55310238Y-108704761D02*
X55357857Y-108657142D01*
X55357857Y-108657142D02*
X55453095Y-108609523D01*
X55453095Y-108609523D02*
X55595952Y-108609523D01*
X55595952Y-108609523D02*
X55691190Y-108657142D01*
X55691190Y-108657142D02*
X55738809Y-108704761D01*
X55738809Y-108704761D02*
X55786428Y-108799999D01*
X55786428Y-108799999D02*
X55786428Y-109180951D01*
%TO.C,J12*%
X71262619Y-117609523D02*
X71976904Y-117609523D01*
X71976904Y-117609523D02*
X72119761Y-117657142D01*
X72119761Y-117657142D02*
X72215000Y-117752380D01*
X72215000Y-117752380D02*
X72262619Y-117895237D01*
X72262619Y-117895237D02*
X72262619Y-117990475D01*
X72262619Y-116609523D02*
X72262619Y-117180951D01*
X72262619Y-116895237D02*
X71262619Y-116895237D01*
X71262619Y-116895237D02*
X71405476Y-116990475D01*
X71405476Y-116990475D02*
X71500714Y-117085713D01*
X71500714Y-117085713D02*
X71548333Y-117180951D01*
X71357857Y-116228570D02*
X71310238Y-116180951D01*
X71310238Y-116180951D02*
X71262619Y-116085713D01*
X71262619Y-116085713D02*
X71262619Y-115847618D01*
X71262619Y-115847618D02*
X71310238Y-115752380D01*
X71310238Y-115752380D02*
X71357857Y-115704761D01*
X71357857Y-115704761D02*
X71453095Y-115657142D01*
X71453095Y-115657142D02*
X71548333Y-115657142D01*
X71548333Y-115657142D02*
X71691190Y-115704761D01*
X71691190Y-115704761D02*
X72262619Y-116276189D01*
X72262619Y-116276189D02*
X72262619Y-115657142D01*
D11*
G36*
X59901403Y-116962746D02*
G01*
X59928504Y-116995267D01*
X59962619Y-117077142D01*
X59962619Y-117414285D01*
X59638809Y-117414285D01*
X59638809Y-117127916D01*
X59677021Y-116990349D01*
X59700024Y-116962746D01*
X59756983Y-116928571D01*
X59844444Y-116928571D01*
X59901403Y-116962746D01*
G37*
G36*
X59377594Y-117019889D02*
G01*
X59404694Y-117052409D01*
X59438809Y-117134285D01*
X59438809Y-117414285D01*
X59162619Y-117414285D01*
X59162619Y-117134285D01*
X59196733Y-117052410D01*
X59223834Y-117019889D01*
X59280793Y-116985714D01*
X59320635Y-116985714D01*
X59377594Y-117019889D01*
G37*
G36*
X59783802Y-114863614D02*
G01*
X59853783Y-114905603D01*
X59924405Y-114990347D01*
X59962619Y-115127915D01*
X59962619Y-115299999D01*
X59162619Y-115299999D01*
X59162619Y-115127916D01*
X59200831Y-114990348D01*
X59271452Y-114905603D01*
X59341433Y-114863615D01*
X59505868Y-114814285D01*
X59619370Y-114814285D01*
X59783802Y-114863614D01*
G37*
G36*
X59901403Y-112562746D02*
G01*
X59928504Y-112595267D01*
X59962619Y-112677142D01*
X59962619Y-113014285D01*
X59638809Y-113014285D01*
X59638809Y-112727916D01*
X59677021Y-112590349D01*
X59700024Y-112562746D01*
X59756983Y-112528571D01*
X59844444Y-112528571D01*
X59901403Y-112562746D01*
G37*
G36*
X59377594Y-112619889D02*
G01*
X59404694Y-112652409D01*
X59438809Y-112734285D01*
X59438809Y-113014285D01*
X59162619Y-113014285D01*
X59162619Y-112734285D01*
X59196733Y-112652410D01*
X59223834Y-112619889D01*
X59280793Y-112585714D01*
X59320635Y-112585714D01*
X59377594Y-112619889D01*
G37*
G36*
X60792857Y-120642857D02*
G01*
X58407143Y-120642857D01*
X58407143Y-119929117D01*
X58959458Y-119929117D01*
X58983853Y-119982536D01*
X59033256Y-120014285D01*
X59870592Y-120014285D01*
X59898413Y-120015141D01*
X59912604Y-120006626D01*
X59928489Y-120001962D01*
X59937272Y-119991825D01*
X60008680Y-119948980D01*
X60025403Y-119943719D01*
X60042595Y-119923088D01*
X60060807Y-119903334D01*
X60061273Y-119900676D01*
X60083084Y-119874502D01*
X60096014Y-119865566D01*
X60107028Y-119839131D01*
X60118427Y-119812844D01*
X60118301Y-119812075D01*
X60151523Y-119732341D01*
X60162619Y-119715077D01*
X60162619Y-119691183D01*
X60165224Y-119667423D01*
X60162619Y-119662192D01*
X60162619Y-119465988D01*
X60166220Y-119445785D01*
X60157030Y-119423729D01*
X60150296Y-119400795D01*
X60145879Y-119396968D01*
X60112556Y-119316991D01*
X60110619Y-119301395D01*
X60092322Y-119279439D01*
X60074261Y-119257122D01*
X60073520Y-119256877D01*
X60051778Y-119230787D01*
X60044008Y-119215072D01*
X60020980Y-119201255D01*
X59998662Y-119186297D01*
X59995963Y-119186245D01*
X59924922Y-119143620D01*
X59901505Y-119128571D01*
X59884954Y-119128571D01*
X59868934Y-119124398D01*
X59856187Y-119128571D01*
X59048240Y-119128571D01*
X59006272Y-119140894D01*
X58967815Y-119185276D01*
X58959458Y-119243403D01*
X58983853Y-119296822D01*
X59033256Y-119328571D01*
X59844444Y-119328571D01*
X59901403Y-119362746D01*
X59928504Y-119395267D01*
X59962619Y-119477142D01*
X59962619Y-119665715D01*
X59928505Y-119747588D01*
X59901404Y-119780107D01*
X59844443Y-119814285D01*
X59048240Y-119814285D01*
X59006272Y-119826608D01*
X58967815Y-119870990D01*
X58959458Y-119929117D01*
X58407143Y-119929117D01*
X58407143Y-118497071D01*
X58959018Y-118497071D01*
X58968207Y-118519126D01*
X58974942Y-118542061D01*
X58979358Y-118545887D01*
X59012681Y-118625862D01*
X59014618Y-118641460D01*
X59032941Y-118663448D01*
X59050978Y-118685734D01*
X59051716Y-118685978D01*
X59073458Y-118712068D01*
X59081229Y-118727784D01*
X59104261Y-118741603D01*
X59126574Y-118756558D01*
X59129272Y-118756609D01*
X59200314Y-118799235D01*
X59223732Y-118814285D01*
X59240283Y-118814285D01*
X59256303Y-118818458D01*
X59269050Y-118814285D01*
X59346783Y-118814285D01*
X59374604Y-118815141D01*
X59388795Y-118806626D01*
X59404680Y-118801962D01*
X59413463Y-118791825D01*
X59484871Y-118748980D01*
X59501596Y-118743718D01*
X59518790Y-118723084D01*
X59536998Y-118703334D01*
X59537464Y-118700675D01*
X59559274Y-118674502D01*
X59572204Y-118665565D01*
X59583214Y-118639139D01*
X59594618Y-118612842D01*
X59594492Y-118612073D01*
X59623683Y-118542014D01*
X59630718Y-118534855D01*
X59634769Y-118515410D01*
X59636647Y-118510903D01*
X59637690Y-118501389D01*
X59682389Y-118286835D01*
X59720542Y-118195267D01*
X59747643Y-118162746D01*
X59804602Y-118128571D01*
X59844444Y-118128571D01*
X59901403Y-118162746D01*
X59928504Y-118195267D01*
X59962619Y-118277142D01*
X59962619Y-118529226D01*
X59914800Y-118701375D01*
X59915441Y-118745110D01*
X59947911Y-118794043D01*
X60001680Y-118817652D01*
X60059680Y-118808444D01*
X60103493Y-118769341D01*
X60154921Y-118584197D01*
X60162619Y-118572220D01*
X60162619Y-118556487D01*
X60162819Y-118555767D01*
X60162619Y-118542121D01*
X60162619Y-118265988D01*
X60166220Y-118245785D01*
X60157030Y-118223729D01*
X60150296Y-118200795D01*
X60145879Y-118196968D01*
X60112556Y-118116991D01*
X60110619Y-118101395D01*
X60092322Y-118079439D01*
X60074261Y-118057122D01*
X60073520Y-118056877D01*
X60051778Y-118030787D01*
X60044008Y-118015072D01*
X60020980Y-118001255D01*
X59998662Y-117986297D01*
X59995963Y-117986245D01*
X59924922Y-117943620D01*
X59901505Y-117928571D01*
X59884954Y-117928571D01*
X59868934Y-117924398D01*
X59856187Y-117928571D01*
X59778472Y-117928571D01*
X59750633Y-117927714D01*
X59736438Y-117936230D01*
X59720557Y-117940894D01*
X59711774Y-117951029D01*
X59640362Y-117993876D01*
X59623641Y-117999139D01*
X59606453Y-118019764D01*
X59588239Y-118039522D01*
X59587772Y-118042181D01*
X59565962Y-118068353D01*
X59553033Y-118077291D01*
X59542018Y-118103725D01*
X59530619Y-118130015D01*
X59530744Y-118130782D01*
X59501553Y-118200840D01*
X59494519Y-118208000D01*
X59490467Y-118227446D01*
X59488590Y-118231953D01*
X59487547Y-118241464D01*
X59442847Y-118456021D01*
X59404693Y-118547589D01*
X59377595Y-118580107D01*
X59320634Y-118614285D01*
X59280793Y-118614285D01*
X59223834Y-118580109D01*
X59196733Y-118547587D01*
X59162619Y-118465714D01*
X59162619Y-118213630D01*
X59210438Y-118041481D01*
X59209797Y-117997746D01*
X59177327Y-117948813D01*
X59123558Y-117925204D01*
X59065558Y-117934411D01*
X59021745Y-117973515D01*
X58970316Y-118158658D01*
X58962619Y-118170636D01*
X58962619Y-118186369D01*
X58962419Y-118187089D01*
X58962619Y-118200735D01*
X58962619Y-118476868D01*
X58959018Y-118497071D01*
X58407143Y-118497071D01*
X58407143Y-117529117D01*
X58959458Y-117529117D01*
X58968684Y-117549320D01*
X58974942Y-117570632D01*
X58980692Y-117575614D01*
X58983853Y-117582536D01*
X59002538Y-117594544D01*
X59019324Y-117609089D01*
X59026855Y-117610171D01*
X59033256Y-117614285D01*
X59055465Y-117614285D01*
X59077451Y-117617446D01*
X59084373Y-117614285D01*
X59531655Y-117614285D01*
X59553641Y-117617446D01*
X59560563Y-117614285D01*
X60055465Y-117614285D01*
X60077451Y-117617446D01*
X60097654Y-117608219D01*
X60118966Y-117601962D01*
X60123948Y-117596211D01*
X60130870Y-117593051D01*
X60142878Y-117574365D01*
X60157423Y-117557580D01*
X60158505Y-117550048D01*
X60162619Y-117543648D01*
X60162619Y-117521439D01*
X60165780Y-117499453D01*
X60162619Y-117492531D01*
X60162619Y-117065988D01*
X60166220Y-117045785D01*
X60157030Y-117023729D01*
X60150296Y-117000795D01*
X60145879Y-116996968D01*
X60112556Y-116916991D01*
X60110619Y-116901395D01*
X60092322Y-116879439D01*
X60074261Y-116857122D01*
X60073520Y-116856877D01*
X60051778Y-116830787D01*
X60044008Y-116815072D01*
X60020980Y-116801255D01*
X59998662Y-116786297D01*
X59995963Y-116786245D01*
X59924922Y-116743620D01*
X59901505Y-116728571D01*
X59884954Y-116728571D01*
X59868934Y-116724398D01*
X59856187Y-116728571D01*
X59730853Y-116728571D01*
X59703014Y-116727714D01*
X59688819Y-116736230D01*
X59672938Y-116740894D01*
X59664155Y-116751029D01*
X59592743Y-116793876D01*
X59576022Y-116799139D01*
X59558834Y-116819764D01*
X59540620Y-116839522D01*
X59540153Y-116842181D01*
X59516816Y-116870185D01*
X59497175Y-116858400D01*
X59474854Y-116843441D01*
X59472155Y-116843389D01*
X59401113Y-116800763D01*
X59377696Y-116785714D01*
X59361145Y-116785714D01*
X59345125Y-116781541D01*
X59332378Y-116785714D01*
X59254663Y-116785714D01*
X59226824Y-116784857D01*
X59212629Y-116793373D01*
X59196748Y-116798037D01*
X59187965Y-116808172D01*
X59116553Y-116851019D01*
X59099832Y-116856282D01*
X59082644Y-116876907D01*
X59064430Y-116896665D01*
X59063963Y-116899324D01*
X59042153Y-116925496D01*
X59029224Y-116934434D01*
X59018209Y-116960868D01*
X59006810Y-116987158D01*
X59006935Y-116987925D01*
X58973713Y-117067658D01*
X58962619Y-117084922D01*
X58962619Y-117108816D01*
X58960014Y-117132576D01*
X58962619Y-117137807D01*
X58962619Y-117507131D01*
X58959458Y-117529117D01*
X58407143Y-117529117D01*
X58407143Y-116614379D01*
X60057857Y-116614379D01*
X60070180Y-116656347D01*
X60114562Y-116694804D01*
X60172689Y-116703161D01*
X60226108Y-116678766D01*
X60257857Y-116629363D01*
X60257857Y-115671335D01*
X60245534Y-115629367D01*
X60201152Y-115590910D01*
X60143025Y-115582553D01*
X60089606Y-115606948D01*
X60057857Y-115656351D01*
X60057857Y-116614379D01*
X58407143Y-116614379D01*
X58407143Y-115414831D01*
X58959458Y-115414831D01*
X58968684Y-115435034D01*
X58974942Y-115456346D01*
X58980692Y-115461328D01*
X58983853Y-115468250D01*
X59002538Y-115480258D01*
X59019324Y-115494803D01*
X59026855Y-115495885D01*
X59033256Y-115499999D01*
X59055465Y-115499999D01*
X59077451Y-115503160D01*
X59084373Y-115499999D01*
X60055465Y-115499999D01*
X60077451Y-115503160D01*
X60097654Y-115493933D01*
X60118966Y-115487676D01*
X60123948Y-115481925D01*
X60130870Y-115478765D01*
X60142878Y-115460079D01*
X60157423Y-115443294D01*
X60158505Y-115435762D01*
X60162619Y-115429362D01*
X60162619Y-115407153D01*
X60165780Y-115385167D01*
X60162619Y-115378245D01*
X60162619Y-115129414D01*
X60166830Y-115115813D01*
X60162619Y-115100653D01*
X60162619Y-115099906D01*
X60158772Y-115086805D01*
X60113329Y-114923211D01*
X60110620Y-114901394D01*
X60096252Y-114884153D01*
X60084398Y-114865099D01*
X60077740Y-114861940D01*
X60004158Y-114773643D01*
X59996389Y-114757929D01*
X59973361Y-114744112D01*
X59951043Y-114729154D01*
X59948344Y-114729102D01*
X59889910Y-114694041D01*
X59881383Y-114684083D01*
X59865243Y-114679241D01*
X59863643Y-114678281D01*
X59851493Y-114675116D01*
X59676269Y-114622549D01*
X59663410Y-114614285D01*
X59634373Y-114614285D01*
X59605270Y-114614114D01*
X59605000Y-114614285D01*
X59505270Y-114614285D01*
X59490580Y-114610065D01*
X59462797Y-114618399D01*
X59434843Y-114626608D01*
X59434634Y-114626848D01*
X59287548Y-114670974D01*
X59274443Y-114670571D01*
X59259992Y-114679241D01*
X59258207Y-114679777D01*
X59247694Y-114686620D01*
X59164174Y-114736733D01*
X59147452Y-114741995D01*
X59130263Y-114762621D01*
X59112049Y-114782379D01*
X59111582Y-114785038D01*
X59038146Y-114873161D01*
X59021745Y-114887800D01*
X59015739Y-114909421D01*
X59006810Y-114930013D01*
X59007999Y-114937285D01*
X58970316Y-115072944D01*
X58962619Y-115084922D01*
X58962619Y-115100655D01*
X58962419Y-115101375D01*
X58962619Y-115115021D01*
X58962619Y-115392845D01*
X58959458Y-115414831D01*
X58407143Y-115414831D01*
X58407143Y-114214831D01*
X58959458Y-114214831D01*
X58968684Y-114235034D01*
X58974942Y-114256346D01*
X58980692Y-114261328D01*
X58983853Y-114268250D01*
X59002538Y-114280258D01*
X59019324Y-114294803D01*
X59026855Y-114295885D01*
X59033256Y-114299999D01*
X59055465Y-114299999D01*
X59077451Y-114303160D01*
X59084373Y-114299999D01*
X59531655Y-114299999D01*
X59553641Y-114303160D01*
X59560563Y-114299999D01*
X60055465Y-114299999D01*
X60077451Y-114303160D01*
X60097654Y-114293933D01*
X60118966Y-114287676D01*
X60123948Y-114281925D01*
X60130870Y-114278765D01*
X60142878Y-114260079D01*
X60157423Y-114243294D01*
X60158505Y-114235762D01*
X60162619Y-114229362D01*
X60162619Y-114207153D01*
X60165780Y-114185167D01*
X60162619Y-114178245D01*
X60162619Y-113614192D01*
X60150296Y-113572224D01*
X60105914Y-113533767D01*
X60047787Y-113525410D01*
X59994368Y-113549805D01*
X59962619Y-113599208D01*
X59962619Y-114099999D01*
X59638809Y-114099999D01*
X59638809Y-113785620D01*
X59626486Y-113743652D01*
X59582104Y-113705195D01*
X59523977Y-113696838D01*
X59470558Y-113721233D01*
X59438809Y-113770636D01*
X59438809Y-114099999D01*
X59162619Y-114099999D01*
X59162619Y-113614192D01*
X59150296Y-113572224D01*
X59105914Y-113533767D01*
X59047787Y-113525410D01*
X58994368Y-113549805D01*
X58962619Y-113599208D01*
X58962619Y-114192845D01*
X58959458Y-114214831D01*
X58407143Y-114214831D01*
X58407143Y-113129117D01*
X58959458Y-113129117D01*
X58968684Y-113149320D01*
X58974942Y-113170632D01*
X58980692Y-113175614D01*
X58983853Y-113182536D01*
X59002538Y-113194544D01*
X59019324Y-113209089D01*
X59026855Y-113210171D01*
X59033256Y-113214285D01*
X59055465Y-113214285D01*
X59077451Y-113217446D01*
X59084373Y-113214285D01*
X59531655Y-113214285D01*
X59553641Y-113217446D01*
X59560563Y-113214285D01*
X60055465Y-113214285D01*
X60077451Y-113217446D01*
X60097654Y-113208219D01*
X60118966Y-113201962D01*
X60123948Y-113196211D01*
X60130870Y-113193051D01*
X60142878Y-113174365D01*
X60157423Y-113157580D01*
X60158505Y-113150048D01*
X60162619Y-113143648D01*
X60162619Y-113121439D01*
X60165780Y-113099453D01*
X60162619Y-113092531D01*
X60162619Y-112665988D01*
X60166220Y-112645785D01*
X60157030Y-112623729D01*
X60150296Y-112600795D01*
X60145879Y-112596968D01*
X60112556Y-112516991D01*
X60110619Y-112501395D01*
X60092322Y-112479439D01*
X60074261Y-112457122D01*
X60073520Y-112456877D01*
X60051778Y-112430787D01*
X60044008Y-112415072D01*
X60020980Y-112401255D01*
X59998662Y-112386297D01*
X59995963Y-112386245D01*
X59924922Y-112343620D01*
X59901505Y-112328571D01*
X59884954Y-112328571D01*
X59868934Y-112324398D01*
X59856187Y-112328571D01*
X59730853Y-112328571D01*
X59703014Y-112327714D01*
X59688819Y-112336230D01*
X59672938Y-112340894D01*
X59664155Y-112351029D01*
X59592743Y-112393876D01*
X59576022Y-112399139D01*
X59558834Y-112419764D01*
X59540620Y-112439522D01*
X59540153Y-112442181D01*
X59516816Y-112470185D01*
X59497175Y-112458400D01*
X59474854Y-112443441D01*
X59472155Y-112443389D01*
X59401113Y-112400763D01*
X59377696Y-112385714D01*
X59361145Y-112385714D01*
X59345125Y-112381541D01*
X59332378Y-112385714D01*
X59254663Y-112385714D01*
X59226824Y-112384857D01*
X59212629Y-112393373D01*
X59196748Y-112398037D01*
X59187965Y-112408172D01*
X59116553Y-112451019D01*
X59099832Y-112456282D01*
X59082644Y-112476907D01*
X59064430Y-112496665D01*
X59063963Y-112499324D01*
X59042153Y-112525496D01*
X59029224Y-112534434D01*
X59018209Y-112560868D01*
X59006810Y-112587158D01*
X59006935Y-112587925D01*
X58973713Y-112667658D01*
X58962619Y-112684922D01*
X58962619Y-112708816D01*
X58960014Y-112732576D01*
X58962619Y-112737807D01*
X58962619Y-113107131D01*
X58959458Y-113129117D01*
X58407143Y-113129117D01*
X58407143Y-111929117D01*
X58959458Y-111929117D01*
X58983853Y-111982536D01*
X59033256Y-112014285D01*
X59870592Y-112014285D01*
X59898413Y-112015141D01*
X59912604Y-112006626D01*
X59928489Y-112001962D01*
X59937272Y-111991825D01*
X60008680Y-111948980D01*
X60025403Y-111943719D01*
X60042595Y-111923088D01*
X60060807Y-111903334D01*
X60061273Y-111900676D01*
X60083084Y-111874502D01*
X60096014Y-111865566D01*
X60107028Y-111839131D01*
X60118427Y-111812844D01*
X60118301Y-111812075D01*
X60151523Y-111732341D01*
X60162619Y-111715077D01*
X60162619Y-111691183D01*
X60165224Y-111667423D01*
X60162619Y-111662192D01*
X60162619Y-111465988D01*
X60166220Y-111445785D01*
X60157030Y-111423729D01*
X60150296Y-111400795D01*
X60145879Y-111396968D01*
X60112556Y-111316991D01*
X60110619Y-111301395D01*
X60092322Y-111279439D01*
X60074261Y-111257122D01*
X60073520Y-111256877D01*
X60051778Y-111230787D01*
X60044008Y-111215072D01*
X60020980Y-111201255D01*
X59998662Y-111186297D01*
X59995963Y-111186245D01*
X59924922Y-111143620D01*
X59901505Y-111128571D01*
X59884954Y-111128571D01*
X59868934Y-111124398D01*
X59856187Y-111128571D01*
X59048240Y-111128571D01*
X59006272Y-111140894D01*
X58967815Y-111185276D01*
X58959458Y-111243403D01*
X58983853Y-111296822D01*
X59033256Y-111328571D01*
X59844444Y-111328571D01*
X59901403Y-111362746D01*
X59928504Y-111395267D01*
X59962619Y-111477142D01*
X59962619Y-111665715D01*
X59928505Y-111747588D01*
X59901404Y-111780107D01*
X59844443Y-111814285D01*
X59048240Y-111814285D01*
X59006272Y-111826608D01*
X58967815Y-111870990D01*
X58959458Y-111929117D01*
X58407143Y-111929117D01*
X58407143Y-110312758D01*
X58958408Y-110312758D01*
X58962619Y-110327917D01*
X58962619Y-110328664D01*
X58966461Y-110341749D01*
X59011908Y-110505358D01*
X59014618Y-110527175D01*
X59028984Y-110544415D01*
X59040841Y-110563472D01*
X59047497Y-110566630D01*
X59121078Y-110654927D01*
X59128848Y-110670641D01*
X59151871Y-110684455D01*
X59174193Y-110699415D01*
X59176891Y-110699466D01*
X59235326Y-110734528D01*
X59243854Y-110744487D01*
X59259993Y-110749328D01*
X59261594Y-110750289D01*
X59273743Y-110753453D01*
X59448967Y-110806020D01*
X59461827Y-110814285D01*
X59490864Y-110814285D01*
X59519967Y-110814456D01*
X59520237Y-110814285D01*
X59619967Y-110814285D01*
X59634657Y-110818505D01*
X59662445Y-110810168D01*
X59690394Y-110801962D01*
X59690602Y-110801721D01*
X59837691Y-110757594D01*
X59850794Y-110757998D01*
X59865240Y-110749330D01*
X59867031Y-110748793D01*
X59877567Y-110741933D01*
X59961062Y-110691836D01*
X59977785Y-110686575D01*
X59994976Y-110665945D01*
X60013188Y-110646191D01*
X60013654Y-110643532D01*
X60087094Y-110555405D01*
X60103493Y-110540770D01*
X60109498Y-110519150D01*
X60118428Y-110498557D01*
X60117238Y-110491284D01*
X60154921Y-110355625D01*
X60162619Y-110343648D01*
X60162619Y-110327915D01*
X60162819Y-110327195D01*
X60162619Y-110313549D01*
X60162619Y-110215127D01*
X60166830Y-110201526D01*
X60162619Y-110186367D01*
X60162619Y-110185620D01*
X60158775Y-110172531D01*
X60113328Y-110008922D01*
X60110619Y-109987109D01*
X60096254Y-109969871D01*
X60084397Y-109950813D01*
X60077739Y-109947653D01*
X60052779Y-109917702D01*
X60046146Y-109903177D01*
X60022244Y-109887816D01*
X59998662Y-109872011D01*
X59997618Y-109871990D01*
X59996743Y-109871428D01*
X59968369Y-109871428D01*
X59939947Y-109870881D01*
X59939059Y-109871428D01*
X59641201Y-109871428D01*
X59619215Y-109868267D01*
X59599011Y-109877493D01*
X59577700Y-109883751D01*
X59572717Y-109889501D01*
X59565796Y-109892662D01*
X59553787Y-109911347D01*
X59539243Y-109928133D01*
X59538160Y-109935664D01*
X59534047Y-109942065D01*
X59534047Y-109964274D01*
X59530886Y-109986260D01*
X59534047Y-109993182D01*
X59534047Y-110214378D01*
X59546370Y-110256346D01*
X59590752Y-110294803D01*
X59648879Y-110303160D01*
X59702298Y-110278765D01*
X59734047Y-110229362D01*
X59734047Y-110071428D01*
X59920543Y-110071428D01*
X59924405Y-110076062D01*
X59962619Y-110213629D01*
X59962619Y-110300654D01*
X59924406Y-110438220D01*
X59853784Y-110522965D01*
X59783802Y-110564955D01*
X59619370Y-110614285D01*
X59505867Y-110614285D01*
X59341434Y-110564955D01*
X59271452Y-110522966D01*
X59200832Y-110438221D01*
X59162619Y-110300655D01*
X59162619Y-110162856D01*
X59208076Y-110053759D01*
X59212843Y-110010280D01*
X59186666Y-109957711D01*
X59136224Y-109927641D01*
X59077532Y-109929613D01*
X59029224Y-109963005D01*
X58973714Y-110096229D01*
X58962619Y-110113494D01*
X58962619Y-110137388D01*
X58960014Y-110161148D01*
X58962619Y-110166379D01*
X58962619Y-110299157D01*
X58958408Y-110312758D01*
X58407143Y-110312758D01*
X58407143Y-109040000D01*
X60792857Y-109040000D01*
X60792857Y-120642857D01*
G37*
D10*
%TO.C,C10*%
X71817380Y-105242857D02*
X71865000Y-105290476D01*
X71865000Y-105290476D02*
X71912619Y-105433333D01*
X71912619Y-105433333D02*
X71912619Y-105528571D01*
X71912619Y-105528571D02*
X71865000Y-105671428D01*
X71865000Y-105671428D02*
X71769761Y-105766666D01*
X71769761Y-105766666D02*
X71674523Y-105814285D01*
X71674523Y-105814285D02*
X71484047Y-105861904D01*
X71484047Y-105861904D02*
X71341190Y-105861904D01*
X71341190Y-105861904D02*
X71150714Y-105814285D01*
X71150714Y-105814285D02*
X71055476Y-105766666D01*
X71055476Y-105766666D02*
X70960238Y-105671428D01*
X70960238Y-105671428D02*
X70912619Y-105528571D01*
X70912619Y-105528571D02*
X70912619Y-105433333D01*
X70912619Y-105433333D02*
X70960238Y-105290476D01*
X70960238Y-105290476D02*
X71007857Y-105242857D01*
X71912619Y-104290476D02*
X71912619Y-104861904D01*
X71912619Y-104576190D02*
X70912619Y-104576190D01*
X70912619Y-104576190D02*
X71055476Y-104671428D01*
X71055476Y-104671428D02*
X71150714Y-104766666D01*
X71150714Y-104766666D02*
X71198333Y-104861904D01*
X70912619Y-103671428D02*
X70912619Y-103576190D01*
X70912619Y-103576190D02*
X70960238Y-103480952D01*
X70960238Y-103480952D02*
X71007857Y-103433333D01*
X71007857Y-103433333D02*
X71103095Y-103385714D01*
X71103095Y-103385714D02*
X71293571Y-103338095D01*
X71293571Y-103338095D02*
X71531666Y-103338095D01*
X71531666Y-103338095D02*
X71722142Y-103385714D01*
X71722142Y-103385714D02*
X71817380Y-103433333D01*
X71817380Y-103433333D02*
X71865000Y-103480952D01*
X71865000Y-103480952D02*
X71912619Y-103576190D01*
X71912619Y-103576190D02*
X71912619Y-103671428D01*
X71912619Y-103671428D02*
X71865000Y-103766666D01*
X71865000Y-103766666D02*
X71817380Y-103814285D01*
X71817380Y-103814285D02*
X71722142Y-103861904D01*
X71722142Y-103861904D02*
X71531666Y-103909523D01*
X71531666Y-103909523D02*
X71293571Y-103909523D01*
X71293571Y-103909523D02*
X71103095Y-103861904D01*
X71103095Y-103861904D02*
X71007857Y-103814285D01*
X71007857Y-103814285D02*
X70960238Y-103766666D01*
X70960238Y-103766666D02*
X70912619Y-103671428D01*
X68604761Y-106742619D02*
X68033333Y-106742619D01*
X68319047Y-106742619D02*
X68319047Y-105742619D01*
X68319047Y-105742619D02*
X68223809Y-105885476D01*
X68223809Y-105885476D02*
X68128571Y-105980714D01*
X68128571Y-105980714D02*
X68033333Y-106028333D01*
X69461904Y-106075952D02*
X69461904Y-106742619D01*
X69033333Y-106075952D02*
X69033333Y-106599761D01*
X69033333Y-106599761D02*
X69080952Y-106695000D01*
X69080952Y-106695000D02*
X69176190Y-106742619D01*
X69176190Y-106742619D02*
X69319047Y-106742619D01*
X69319047Y-106742619D02*
X69414285Y-106695000D01*
X69414285Y-106695000D02*
X69461904Y-106647380D01*
X70271428Y-106218809D02*
X69938095Y-106218809D01*
X69938095Y-106742619D02*
X69938095Y-105742619D01*
X69938095Y-105742619D02*
X70414285Y-105742619D01*
%TO.C,R4*%
X60262619Y-37566666D02*
X59786428Y-37899999D01*
X60262619Y-38138094D02*
X59262619Y-38138094D01*
X59262619Y-38138094D02*
X59262619Y-37757142D01*
X59262619Y-37757142D02*
X59310238Y-37661904D01*
X59310238Y-37661904D02*
X59357857Y-37614285D01*
X59357857Y-37614285D02*
X59453095Y-37566666D01*
X59453095Y-37566666D02*
X59595952Y-37566666D01*
X59595952Y-37566666D02*
X59691190Y-37614285D01*
X59691190Y-37614285D02*
X59738809Y-37661904D01*
X59738809Y-37661904D02*
X59786428Y-37757142D01*
X59786428Y-37757142D02*
X59786428Y-38138094D01*
X59595952Y-36709523D02*
X60262619Y-36709523D01*
X59215000Y-36947618D02*
X59929285Y-37185713D01*
X59929285Y-37185713D02*
X59929285Y-36566666D01*
X62014285Y-43195952D02*
X62014285Y-43862619D01*
X61776190Y-42815000D02*
X61538095Y-43529285D01*
X61538095Y-43529285D02*
X62157142Y-43529285D01*
X62442857Y-42862619D02*
X63109523Y-42862619D01*
X63109523Y-42862619D02*
X62680952Y-43862619D01*
X63490476Y-43862619D02*
X63490476Y-42862619D01*
X64061904Y-43862619D02*
X63633333Y-43291190D01*
X64061904Y-42862619D02*
X63490476Y-43434047D01*
%TO.C,U3*%
X19438095Y-41862619D02*
X19438095Y-42672142D01*
X19438095Y-42672142D02*
X19485714Y-42767380D01*
X19485714Y-42767380D02*
X19533333Y-42815000D01*
X19533333Y-42815000D02*
X19628571Y-42862619D01*
X19628571Y-42862619D02*
X19819047Y-42862619D01*
X19819047Y-42862619D02*
X19914285Y-42815000D01*
X19914285Y-42815000D02*
X19961904Y-42767380D01*
X19961904Y-42767380D02*
X20009523Y-42672142D01*
X20009523Y-42672142D02*
X20009523Y-41862619D01*
X20390476Y-41862619D02*
X21009523Y-41862619D01*
X21009523Y-41862619D02*
X20676190Y-42243571D01*
X20676190Y-42243571D02*
X20819047Y-42243571D01*
X20819047Y-42243571D02*
X20914285Y-42291190D01*
X20914285Y-42291190D02*
X20961904Y-42338809D01*
X20961904Y-42338809D02*
X21009523Y-42434047D01*
X21009523Y-42434047D02*
X21009523Y-42672142D01*
X21009523Y-42672142D02*
X20961904Y-42767380D01*
X20961904Y-42767380D02*
X20914285Y-42815000D01*
X20914285Y-42815000D02*
X20819047Y-42862619D01*
X20819047Y-42862619D02*
X20533333Y-42862619D01*
X20533333Y-42862619D02*
X20438095Y-42815000D01*
X20438095Y-42815000D02*
X20390476Y-42767380D01*
X16533333Y-48662619D02*
X17104761Y-48662619D01*
X16819047Y-49662619D02*
X16819047Y-48662619D01*
X17438095Y-49662619D02*
X17438095Y-48662619D01*
X17438095Y-48662619D02*
X17819047Y-48662619D01*
X17819047Y-48662619D02*
X17914285Y-48710238D01*
X17914285Y-48710238D02*
X17961904Y-48757857D01*
X17961904Y-48757857D02*
X18009523Y-48853095D01*
X18009523Y-48853095D02*
X18009523Y-48995952D01*
X18009523Y-48995952D02*
X17961904Y-49091190D01*
X17961904Y-49091190D02*
X17914285Y-49138809D01*
X17914285Y-49138809D02*
X17819047Y-49186428D01*
X17819047Y-49186428D02*
X17438095Y-49186428D01*
X18390476Y-49615000D02*
X18533333Y-49662619D01*
X18533333Y-49662619D02*
X18771428Y-49662619D01*
X18771428Y-49662619D02*
X18866666Y-49615000D01*
X18866666Y-49615000D02*
X18914285Y-49567380D01*
X18914285Y-49567380D02*
X18961904Y-49472142D01*
X18961904Y-49472142D02*
X18961904Y-49376904D01*
X18961904Y-49376904D02*
X18914285Y-49281666D01*
X18914285Y-49281666D02*
X18866666Y-49234047D01*
X18866666Y-49234047D02*
X18771428Y-49186428D01*
X18771428Y-49186428D02*
X18580952Y-49138809D01*
X18580952Y-49138809D02*
X18485714Y-49091190D01*
X18485714Y-49091190D02*
X18438095Y-49043571D01*
X18438095Y-49043571D02*
X18390476Y-48948333D01*
X18390476Y-48948333D02*
X18390476Y-48853095D01*
X18390476Y-48853095D02*
X18438095Y-48757857D01*
X18438095Y-48757857D02*
X18485714Y-48710238D01*
X18485714Y-48710238D02*
X18580952Y-48662619D01*
X18580952Y-48662619D02*
X18819047Y-48662619D01*
X18819047Y-48662619D02*
X18961904Y-48710238D01*
X19342857Y-48757857D02*
X19390476Y-48710238D01*
X19390476Y-48710238D02*
X19485714Y-48662619D01*
X19485714Y-48662619D02*
X19723809Y-48662619D01*
X19723809Y-48662619D02*
X19819047Y-48710238D01*
X19819047Y-48710238D02*
X19866666Y-48757857D01*
X19866666Y-48757857D02*
X19914285Y-48853095D01*
X19914285Y-48853095D02*
X19914285Y-48948333D01*
X19914285Y-48948333D02*
X19866666Y-49091190D01*
X19866666Y-49091190D02*
X19295238Y-49662619D01*
X19295238Y-49662619D02*
X19914285Y-49662619D01*
X20533333Y-48662619D02*
X20628571Y-48662619D01*
X20628571Y-48662619D02*
X20723809Y-48710238D01*
X20723809Y-48710238D02*
X20771428Y-48757857D01*
X20771428Y-48757857D02*
X20819047Y-48853095D01*
X20819047Y-48853095D02*
X20866666Y-49043571D01*
X20866666Y-49043571D02*
X20866666Y-49281666D01*
X20866666Y-49281666D02*
X20819047Y-49472142D01*
X20819047Y-49472142D02*
X20771428Y-49567380D01*
X20771428Y-49567380D02*
X20723809Y-49615000D01*
X20723809Y-49615000D02*
X20628571Y-49662619D01*
X20628571Y-49662619D02*
X20533333Y-49662619D01*
X20533333Y-49662619D02*
X20438095Y-49615000D01*
X20438095Y-49615000D02*
X20390476Y-49567380D01*
X20390476Y-49567380D02*
X20342857Y-49472142D01*
X20342857Y-49472142D02*
X20295238Y-49281666D01*
X20295238Y-49281666D02*
X20295238Y-49043571D01*
X20295238Y-49043571D02*
X20342857Y-48853095D01*
X20342857Y-48853095D02*
X20390476Y-48757857D01*
X20390476Y-48757857D02*
X20438095Y-48710238D01*
X20438095Y-48710238D02*
X20533333Y-48662619D01*
X21723809Y-48995952D02*
X21723809Y-49662619D01*
X21485714Y-48615000D02*
X21247619Y-49329285D01*
X21247619Y-49329285D02*
X21866666Y-49329285D01*
X22200000Y-48757857D02*
X22247619Y-48710238D01*
X22247619Y-48710238D02*
X22342857Y-48662619D01*
X22342857Y-48662619D02*
X22580952Y-48662619D01*
X22580952Y-48662619D02*
X22676190Y-48710238D01*
X22676190Y-48710238D02*
X22723809Y-48757857D01*
X22723809Y-48757857D02*
X22771428Y-48853095D01*
X22771428Y-48853095D02*
X22771428Y-48948333D01*
X22771428Y-48948333D02*
X22723809Y-49091190D01*
X22723809Y-49091190D02*
X22152381Y-49662619D01*
X22152381Y-49662619D02*
X22771428Y-49662619D01*
X23200000Y-49662619D02*
X23200000Y-48662619D01*
X23200000Y-48662619D02*
X23438095Y-48662619D01*
X23438095Y-48662619D02*
X23580952Y-48710238D01*
X23580952Y-48710238D02*
X23676190Y-48805476D01*
X23676190Y-48805476D02*
X23723809Y-48900714D01*
X23723809Y-48900714D02*
X23771428Y-49091190D01*
X23771428Y-49091190D02*
X23771428Y-49234047D01*
X23771428Y-49234047D02*
X23723809Y-49424523D01*
X23723809Y-49424523D02*
X23676190Y-49519761D01*
X23676190Y-49519761D02*
X23580952Y-49615000D01*
X23580952Y-49615000D02*
X23438095Y-49662619D01*
X23438095Y-49662619D02*
X23200000Y-49662619D01*
%TO.C,C11*%
X84357142Y-102967380D02*
X84309523Y-103015000D01*
X84309523Y-103015000D02*
X84166666Y-103062619D01*
X84166666Y-103062619D02*
X84071428Y-103062619D01*
X84071428Y-103062619D02*
X83928571Y-103015000D01*
X83928571Y-103015000D02*
X83833333Y-102919761D01*
X83833333Y-102919761D02*
X83785714Y-102824523D01*
X83785714Y-102824523D02*
X83738095Y-102634047D01*
X83738095Y-102634047D02*
X83738095Y-102491190D01*
X83738095Y-102491190D02*
X83785714Y-102300714D01*
X83785714Y-102300714D02*
X83833333Y-102205476D01*
X83833333Y-102205476D02*
X83928571Y-102110238D01*
X83928571Y-102110238D02*
X84071428Y-102062619D01*
X84071428Y-102062619D02*
X84166666Y-102062619D01*
X84166666Y-102062619D02*
X84309523Y-102110238D01*
X84309523Y-102110238D02*
X84357142Y-102157857D01*
X85309523Y-103062619D02*
X84738095Y-103062619D01*
X85023809Y-103062619D02*
X85023809Y-102062619D01*
X85023809Y-102062619D02*
X84928571Y-102205476D01*
X84928571Y-102205476D02*
X84833333Y-102300714D01*
X84833333Y-102300714D02*
X84738095Y-102348333D01*
X86261904Y-103062619D02*
X85690476Y-103062619D01*
X85976190Y-103062619D02*
X85976190Y-102062619D01*
X85976190Y-102062619D02*
X85880952Y-102205476D01*
X85880952Y-102205476D02*
X85785714Y-102300714D01*
X85785714Y-102300714D02*
X85690476Y-102348333D01*
X83157143Y-97262619D02*
X83252381Y-97262619D01*
X83252381Y-97262619D02*
X83347619Y-97310238D01*
X83347619Y-97310238D02*
X83395238Y-97357857D01*
X83395238Y-97357857D02*
X83442857Y-97453095D01*
X83442857Y-97453095D02*
X83490476Y-97643571D01*
X83490476Y-97643571D02*
X83490476Y-97881666D01*
X83490476Y-97881666D02*
X83442857Y-98072142D01*
X83442857Y-98072142D02*
X83395238Y-98167380D01*
X83395238Y-98167380D02*
X83347619Y-98215000D01*
X83347619Y-98215000D02*
X83252381Y-98262619D01*
X83252381Y-98262619D02*
X83157143Y-98262619D01*
X83157143Y-98262619D02*
X83061905Y-98215000D01*
X83061905Y-98215000D02*
X83014286Y-98167380D01*
X83014286Y-98167380D02*
X82966667Y-98072142D01*
X82966667Y-98072142D02*
X82919048Y-97881666D01*
X82919048Y-97881666D02*
X82919048Y-97643571D01*
X82919048Y-97643571D02*
X82966667Y-97453095D01*
X82966667Y-97453095D02*
X83014286Y-97357857D01*
X83014286Y-97357857D02*
X83061905Y-97310238D01*
X83061905Y-97310238D02*
X83157143Y-97262619D01*
X83919048Y-98167380D02*
X83966667Y-98215000D01*
X83966667Y-98215000D02*
X83919048Y-98262619D01*
X83919048Y-98262619D02*
X83871429Y-98215000D01*
X83871429Y-98215000D02*
X83919048Y-98167380D01*
X83919048Y-98167380D02*
X83919048Y-98262619D01*
X84919047Y-98262619D02*
X84347619Y-98262619D01*
X84633333Y-98262619D02*
X84633333Y-97262619D01*
X84633333Y-97262619D02*
X84538095Y-97405476D01*
X84538095Y-97405476D02*
X84442857Y-97500714D01*
X84442857Y-97500714D02*
X84347619Y-97548333D01*
X85776190Y-97595952D02*
X85776190Y-98262619D01*
X85347619Y-97595952D02*
X85347619Y-98119761D01*
X85347619Y-98119761D02*
X85395238Y-98215000D01*
X85395238Y-98215000D02*
X85490476Y-98262619D01*
X85490476Y-98262619D02*
X85633333Y-98262619D01*
X85633333Y-98262619D02*
X85728571Y-98215000D01*
X85728571Y-98215000D02*
X85776190Y-98167380D01*
X86585714Y-97738809D02*
X86252381Y-97738809D01*
X86252381Y-98262619D02*
X86252381Y-97262619D01*
X86252381Y-97262619D02*
X86728571Y-97262619D01*
%TO.C,J9*%
X55062619Y-67733333D02*
X55776904Y-67733333D01*
X55776904Y-67733333D02*
X55919761Y-67780952D01*
X55919761Y-67780952D02*
X56015000Y-67876190D01*
X56015000Y-67876190D02*
X56062619Y-68019047D01*
X56062619Y-68019047D02*
X56062619Y-68114285D01*
X56062619Y-67209523D02*
X56062619Y-67019047D01*
X56062619Y-67019047D02*
X56015000Y-66923809D01*
X56015000Y-66923809D02*
X55967380Y-66876190D01*
X55967380Y-66876190D02*
X55824523Y-66780952D01*
X55824523Y-66780952D02*
X55634047Y-66733333D01*
X55634047Y-66733333D02*
X55253095Y-66733333D01*
X55253095Y-66733333D02*
X55157857Y-66780952D01*
X55157857Y-66780952D02*
X55110238Y-66828571D01*
X55110238Y-66828571D02*
X55062619Y-66923809D01*
X55062619Y-66923809D02*
X55062619Y-67114285D01*
X55062619Y-67114285D02*
X55110238Y-67209523D01*
X55110238Y-67209523D02*
X55157857Y-67257142D01*
X55157857Y-67257142D02*
X55253095Y-67304761D01*
X55253095Y-67304761D02*
X55491190Y-67304761D01*
X55491190Y-67304761D02*
X55586428Y-67257142D01*
X55586428Y-67257142D02*
X55634047Y-67209523D01*
X55634047Y-67209523D02*
X55681666Y-67114285D01*
X55681666Y-67114285D02*
X55681666Y-66923809D01*
X55681666Y-66923809D02*
X55634047Y-66828571D01*
X55634047Y-66828571D02*
X55586428Y-66780952D01*
X55586428Y-66780952D02*
X55491190Y-66733333D01*
X59776904Y-72107142D02*
X59776904Y-71630952D01*
X60062619Y-72202380D02*
X59062619Y-71869047D01*
X59062619Y-71869047D02*
X60062619Y-71535714D01*
X59538809Y-70869047D02*
X59538809Y-71202380D01*
X60062619Y-71202380D02*
X59062619Y-71202380D01*
X59062619Y-71202380D02*
X59062619Y-70726190D01*
X59586428Y-70154761D02*
X60062619Y-70154761D01*
X59062619Y-70488094D02*
X59586428Y-70154761D01*
X59586428Y-70154761D02*
X59062619Y-69821428D01*
X59395952Y-69059523D02*
X60062619Y-69059523D01*
X59015000Y-69297618D02*
X59729285Y-69535713D01*
X59729285Y-69535713D02*
X59729285Y-68916666D01*
X59491190Y-68392856D02*
X59443571Y-68488094D01*
X59443571Y-68488094D02*
X59395952Y-68535713D01*
X59395952Y-68535713D02*
X59300714Y-68583332D01*
X59300714Y-68583332D02*
X59253095Y-68583332D01*
X59253095Y-68583332D02*
X59157857Y-68535713D01*
X59157857Y-68535713D02*
X59110238Y-68488094D01*
X59110238Y-68488094D02*
X59062619Y-68392856D01*
X59062619Y-68392856D02*
X59062619Y-68202380D01*
X59062619Y-68202380D02*
X59110238Y-68107142D01*
X59110238Y-68107142D02*
X59157857Y-68059523D01*
X59157857Y-68059523D02*
X59253095Y-68011904D01*
X59253095Y-68011904D02*
X59300714Y-68011904D01*
X59300714Y-68011904D02*
X59395952Y-68059523D01*
X59395952Y-68059523D02*
X59443571Y-68107142D01*
X59443571Y-68107142D02*
X59491190Y-68202380D01*
X59491190Y-68202380D02*
X59491190Y-68392856D01*
X59491190Y-68392856D02*
X59538809Y-68488094D01*
X59538809Y-68488094D02*
X59586428Y-68535713D01*
X59586428Y-68535713D02*
X59681666Y-68583332D01*
X59681666Y-68583332D02*
X59872142Y-68583332D01*
X59872142Y-68583332D02*
X59967380Y-68535713D01*
X59967380Y-68535713D02*
X60015000Y-68488094D01*
X60015000Y-68488094D02*
X60062619Y-68392856D01*
X60062619Y-68392856D02*
X60062619Y-68202380D01*
X60062619Y-68202380D02*
X60015000Y-68107142D01*
X60015000Y-68107142D02*
X59967380Y-68059523D01*
X59967380Y-68059523D02*
X59872142Y-68011904D01*
X59872142Y-68011904D02*
X59681666Y-68011904D01*
X59681666Y-68011904D02*
X59586428Y-68059523D01*
X59586428Y-68059523D02*
X59538809Y-68107142D01*
X59538809Y-68107142D02*
X59491190Y-68202380D01*
X59062619Y-67392856D02*
X59062619Y-67297618D01*
X59062619Y-67297618D02*
X59110238Y-67202380D01*
X59110238Y-67202380D02*
X59157857Y-67154761D01*
X59157857Y-67154761D02*
X59253095Y-67107142D01*
X59253095Y-67107142D02*
X59443571Y-67059523D01*
X59443571Y-67059523D02*
X59681666Y-67059523D01*
X59681666Y-67059523D02*
X59872142Y-67107142D01*
X59872142Y-67107142D02*
X59967380Y-67154761D01*
X59967380Y-67154761D02*
X60015000Y-67202380D01*
X60015000Y-67202380D02*
X60062619Y-67297618D01*
X60062619Y-67297618D02*
X60062619Y-67392856D01*
X60062619Y-67392856D02*
X60015000Y-67488094D01*
X60015000Y-67488094D02*
X59967380Y-67535713D01*
X59967380Y-67535713D02*
X59872142Y-67583332D01*
X59872142Y-67583332D02*
X59681666Y-67630951D01*
X59681666Y-67630951D02*
X59443571Y-67630951D01*
X59443571Y-67630951D02*
X59253095Y-67583332D01*
X59253095Y-67583332D02*
X59157857Y-67535713D01*
X59157857Y-67535713D02*
X59110238Y-67488094D01*
X59110238Y-67488094D02*
X59062619Y-67392856D01*
X59157857Y-66678570D02*
X59110238Y-66630951D01*
X59110238Y-66630951D02*
X59062619Y-66535713D01*
X59062619Y-66535713D02*
X59062619Y-66297618D01*
X59062619Y-66297618D02*
X59110238Y-66202380D01*
X59110238Y-66202380D02*
X59157857Y-66154761D01*
X59157857Y-66154761D02*
X59253095Y-66107142D01*
X59253095Y-66107142D02*
X59348333Y-66107142D01*
X59348333Y-66107142D02*
X59491190Y-66154761D01*
X59491190Y-66154761D02*
X60062619Y-66726189D01*
X60062619Y-66726189D02*
X60062619Y-66107142D01*
X59062619Y-65773808D02*
X59062619Y-65107142D01*
X59062619Y-65107142D02*
X60062619Y-65535713D01*
X59157857Y-64773808D02*
X59110238Y-64726189D01*
X59110238Y-64726189D02*
X59062619Y-64630951D01*
X59062619Y-64630951D02*
X59062619Y-64392856D01*
X59062619Y-64392856D02*
X59110238Y-64297618D01*
X59110238Y-64297618D02*
X59157857Y-64249999D01*
X59157857Y-64249999D02*
X59253095Y-64202380D01*
X59253095Y-64202380D02*
X59348333Y-64202380D01*
X59348333Y-64202380D02*
X59491190Y-64249999D01*
X59491190Y-64249999D02*
X60062619Y-64821427D01*
X60062619Y-64821427D02*
X60062619Y-64202380D01*
X59776904Y-63821427D02*
X59776904Y-63345237D01*
X60062619Y-63916665D02*
X59062619Y-63583332D01*
X59062619Y-63583332D02*
X60062619Y-63249999D01*
X59062619Y-62726189D02*
X59062619Y-62630951D01*
X59062619Y-62630951D02*
X59110238Y-62535713D01*
X59110238Y-62535713D02*
X59157857Y-62488094D01*
X59157857Y-62488094D02*
X59253095Y-62440475D01*
X59253095Y-62440475D02*
X59443571Y-62392856D01*
X59443571Y-62392856D02*
X59681666Y-62392856D01*
X59681666Y-62392856D02*
X59872142Y-62440475D01*
X59872142Y-62440475D02*
X59967380Y-62488094D01*
X59967380Y-62488094D02*
X60015000Y-62535713D01*
X60015000Y-62535713D02*
X60062619Y-62630951D01*
X60062619Y-62630951D02*
X60062619Y-62726189D01*
X60062619Y-62726189D02*
X60015000Y-62821427D01*
X60015000Y-62821427D02*
X59967380Y-62869046D01*
X59967380Y-62869046D02*
X59872142Y-62916665D01*
X59872142Y-62916665D02*
X59681666Y-62964284D01*
X59681666Y-62964284D02*
X59443571Y-62964284D01*
X59443571Y-62964284D02*
X59253095Y-62916665D01*
X59253095Y-62916665D02*
X59157857Y-62869046D01*
X59157857Y-62869046D02*
X59110238Y-62821427D01*
X59110238Y-62821427D02*
X59062619Y-62726189D01*
%TO.C,U6*%
X32762619Y-92261904D02*
X33572142Y-92261904D01*
X33572142Y-92261904D02*
X33667380Y-92214285D01*
X33667380Y-92214285D02*
X33715000Y-92166666D01*
X33715000Y-92166666D02*
X33762619Y-92071428D01*
X33762619Y-92071428D02*
X33762619Y-91880952D01*
X33762619Y-91880952D02*
X33715000Y-91785714D01*
X33715000Y-91785714D02*
X33667380Y-91738095D01*
X33667380Y-91738095D02*
X33572142Y-91690476D01*
X33572142Y-91690476D02*
X32762619Y-91690476D01*
X32762619Y-90785714D02*
X32762619Y-90976190D01*
X32762619Y-90976190D02*
X32810238Y-91071428D01*
X32810238Y-91071428D02*
X32857857Y-91119047D01*
X32857857Y-91119047D02*
X33000714Y-91214285D01*
X33000714Y-91214285D02*
X33191190Y-91261904D01*
X33191190Y-91261904D02*
X33572142Y-91261904D01*
X33572142Y-91261904D02*
X33667380Y-91214285D01*
X33667380Y-91214285D02*
X33715000Y-91166666D01*
X33715000Y-91166666D02*
X33762619Y-91071428D01*
X33762619Y-91071428D02*
X33762619Y-90880952D01*
X33762619Y-90880952D02*
X33715000Y-90785714D01*
X33715000Y-90785714D02*
X33667380Y-90738095D01*
X33667380Y-90738095D02*
X33572142Y-90690476D01*
X33572142Y-90690476D02*
X33334047Y-90690476D01*
X33334047Y-90690476D02*
X33238809Y-90738095D01*
X33238809Y-90738095D02*
X33191190Y-90785714D01*
X33191190Y-90785714D02*
X33143571Y-90880952D01*
X33143571Y-90880952D02*
X33143571Y-91071428D01*
X33143571Y-91071428D02*
X33191190Y-91166666D01*
X33191190Y-91166666D02*
X33238809Y-91214285D01*
X33238809Y-91214285D02*
X33334047Y-91261904D01*
X35262619Y-94595238D02*
X34786428Y-94928571D01*
X35262619Y-95166666D02*
X34262619Y-95166666D01*
X34262619Y-95166666D02*
X34262619Y-94785714D01*
X34262619Y-94785714D02*
X34310238Y-94690476D01*
X34310238Y-94690476D02*
X34357857Y-94642857D01*
X34357857Y-94642857D02*
X34453095Y-94595238D01*
X34453095Y-94595238D02*
X34595952Y-94595238D01*
X34595952Y-94595238D02*
X34691190Y-94642857D01*
X34691190Y-94642857D02*
X34738809Y-94690476D01*
X34738809Y-94690476D02*
X34786428Y-94785714D01*
X34786428Y-94785714D02*
X34786428Y-95166666D01*
X35262619Y-93642857D02*
X35262619Y-94214285D01*
X35262619Y-93928571D02*
X34262619Y-93928571D01*
X34262619Y-93928571D02*
X34405476Y-94023809D01*
X34405476Y-94023809D02*
X34500714Y-94119047D01*
X34500714Y-94119047D02*
X34548333Y-94214285D01*
X34357857Y-93261904D02*
X34310238Y-93214285D01*
X34310238Y-93214285D02*
X34262619Y-93119047D01*
X34262619Y-93119047D02*
X34262619Y-92880952D01*
X34262619Y-92880952D02*
X34310238Y-92785714D01*
X34310238Y-92785714D02*
X34357857Y-92738095D01*
X34357857Y-92738095D02*
X34453095Y-92690476D01*
X34453095Y-92690476D02*
X34548333Y-92690476D01*
X34548333Y-92690476D02*
X34691190Y-92738095D01*
X34691190Y-92738095D02*
X35262619Y-93309523D01*
X35262619Y-93309523D02*
X35262619Y-92690476D01*
X35262619Y-91738095D02*
X35262619Y-92309523D01*
X35262619Y-92023809D02*
X34262619Y-92023809D01*
X34262619Y-92023809D02*
X34405476Y-92119047D01*
X34405476Y-92119047D02*
X34500714Y-92214285D01*
X34500714Y-92214285D02*
X34548333Y-92309523D01*
X34691190Y-91166666D02*
X34643571Y-91261904D01*
X34643571Y-91261904D02*
X34595952Y-91309523D01*
X34595952Y-91309523D02*
X34500714Y-91357142D01*
X34500714Y-91357142D02*
X34453095Y-91357142D01*
X34453095Y-91357142D02*
X34357857Y-91309523D01*
X34357857Y-91309523D02*
X34310238Y-91261904D01*
X34310238Y-91261904D02*
X34262619Y-91166666D01*
X34262619Y-91166666D02*
X34262619Y-90976190D01*
X34262619Y-90976190D02*
X34310238Y-90880952D01*
X34310238Y-90880952D02*
X34357857Y-90833333D01*
X34357857Y-90833333D02*
X34453095Y-90785714D01*
X34453095Y-90785714D02*
X34500714Y-90785714D01*
X34500714Y-90785714D02*
X34595952Y-90833333D01*
X34595952Y-90833333D02*
X34643571Y-90880952D01*
X34643571Y-90880952D02*
X34691190Y-90976190D01*
X34691190Y-90976190D02*
X34691190Y-91166666D01*
X34691190Y-91166666D02*
X34738809Y-91261904D01*
X34738809Y-91261904D02*
X34786428Y-91309523D01*
X34786428Y-91309523D02*
X34881666Y-91357142D01*
X34881666Y-91357142D02*
X35072142Y-91357142D01*
X35072142Y-91357142D02*
X35167380Y-91309523D01*
X35167380Y-91309523D02*
X35215000Y-91261904D01*
X35215000Y-91261904D02*
X35262619Y-91166666D01*
X35262619Y-91166666D02*
X35262619Y-90976190D01*
X35262619Y-90976190D02*
X35215000Y-90880952D01*
X35215000Y-90880952D02*
X35167380Y-90833333D01*
X35167380Y-90833333D02*
X35072142Y-90785714D01*
X35072142Y-90785714D02*
X34881666Y-90785714D01*
X34881666Y-90785714D02*
X34786428Y-90833333D01*
X34786428Y-90833333D02*
X34738809Y-90880952D01*
X34738809Y-90880952D02*
X34691190Y-90976190D01*
X35262619Y-90357142D02*
X34262619Y-90357142D01*
X34262619Y-90357142D02*
X35262619Y-89785714D01*
X35262619Y-89785714D02*
X34262619Y-89785714D01*
X34262619Y-89119047D02*
X34262619Y-88928571D01*
X34262619Y-88928571D02*
X34310238Y-88833333D01*
X34310238Y-88833333D02*
X34405476Y-88738095D01*
X34405476Y-88738095D02*
X34595952Y-88690476D01*
X34595952Y-88690476D02*
X34929285Y-88690476D01*
X34929285Y-88690476D02*
X35119761Y-88738095D01*
X35119761Y-88738095D02*
X35215000Y-88833333D01*
X35215000Y-88833333D02*
X35262619Y-88928571D01*
X35262619Y-88928571D02*
X35262619Y-89119047D01*
X35262619Y-89119047D02*
X35215000Y-89214285D01*
X35215000Y-89214285D02*
X35119761Y-89309523D01*
X35119761Y-89309523D02*
X34929285Y-89357142D01*
X34929285Y-89357142D02*
X34595952Y-89357142D01*
X34595952Y-89357142D02*
X34405476Y-89309523D01*
X34405476Y-89309523D02*
X34310238Y-89214285D01*
X34310238Y-89214285D02*
X34262619Y-89119047D01*
X34595952Y-87833333D02*
X35262619Y-87833333D01*
X34215000Y-88071428D02*
X34929285Y-88309523D01*
X34929285Y-88309523D02*
X34929285Y-87690476D01*
X35262619Y-86785714D02*
X35262619Y-87357142D01*
X35262619Y-87071428D02*
X34262619Y-87071428D01*
X34262619Y-87071428D02*
X34405476Y-87166666D01*
X34405476Y-87166666D02*
X34500714Y-87261904D01*
X34500714Y-87261904D02*
X34548333Y-87357142D01*
%TO.C,C3*%
X28233333Y-51767380D02*
X28185714Y-51815000D01*
X28185714Y-51815000D02*
X28042857Y-51862619D01*
X28042857Y-51862619D02*
X27947619Y-51862619D01*
X27947619Y-51862619D02*
X27804762Y-51815000D01*
X27804762Y-51815000D02*
X27709524Y-51719761D01*
X27709524Y-51719761D02*
X27661905Y-51624523D01*
X27661905Y-51624523D02*
X27614286Y-51434047D01*
X27614286Y-51434047D02*
X27614286Y-51291190D01*
X27614286Y-51291190D02*
X27661905Y-51100714D01*
X27661905Y-51100714D02*
X27709524Y-51005476D01*
X27709524Y-51005476D02*
X27804762Y-50910238D01*
X27804762Y-50910238D02*
X27947619Y-50862619D01*
X27947619Y-50862619D02*
X28042857Y-50862619D01*
X28042857Y-50862619D02*
X28185714Y-50910238D01*
X28185714Y-50910238D02*
X28233333Y-50957857D01*
X28566667Y-50862619D02*
X29185714Y-50862619D01*
X29185714Y-50862619D02*
X28852381Y-51243571D01*
X28852381Y-51243571D02*
X28995238Y-51243571D01*
X28995238Y-51243571D02*
X29090476Y-51291190D01*
X29090476Y-51291190D02*
X29138095Y-51338809D01*
X29138095Y-51338809D02*
X29185714Y-51434047D01*
X29185714Y-51434047D02*
X29185714Y-51672142D01*
X29185714Y-51672142D02*
X29138095Y-51767380D01*
X29138095Y-51767380D02*
X29090476Y-51815000D01*
X29090476Y-51815000D02*
X28995238Y-51862619D01*
X28995238Y-51862619D02*
X28709524Y-51862619D01*
X28709524Y-51862619D02*
X28614286Y-51815000D01*
X28614286Y-51815000D02*
X28566667Y-51767380D01*
X27328571Y-50562619D02*
X26757143Y-50562619D01*
X27042857Y-50562619D02*
X27042857Y-49562619D01*
X27042857Y-49562619D02*
X26947619Y-49705476D01*
X26947619Y-49705476D02*
X26852381Y-49800714D01*
X26852381Y-49800714D02*
X26757143Y-49848333D01*
X27947619Y-49562619D02*
X28042857Y-49562619D01*
X28042857Y-49562619D02*
X28138095Y-49610238D01*
X28138095Y-49610238D02*
X28185714Y-49657857D01*
X28185714Y-49657857D02*
X28233333Y-49753095D01*
X28233333Y-49753095D02*
X28280952Y-49943571D01*
X28280952Y-49943571D02*
X28280952Y-50181666D01*
X28280952Y-50181666D02*
X28233333Y-50372142D01*
X28233333Y-50372142D02*
X28185714Y-50467380D01*
X28185714Y-50467380D02*
X28138095Y-50515000D01*
X28138095Y-50515000D02*
X28042857Y-50562619D01*
X28042857Y-50562619D02*
X27947619Y-50562619D01*
X27947619Y-50562619D02*
X27852381Y-50515000D01*
X27852381Y-50515000D02*
X27804762Y-50467380D01*
X27804762Y-50467380D02*
X27757143Y-50372142D01*
X27757143Y-50372142D02*
X27709524Y-50181666D01*
X27709524Y-50181666D02*
X27709524Y-49943571D01*
X27709524Y-49943571D02*
X27757143Y-49753095D01*
X27757143Y-49753095D02*
X27804762Y-49657857D01*
X27804762Y-49657857D02*
X27852381Y-49610238D01*
X27852381Y-49610238D02*
X27947619Y-49562619D01*
X29138095Y-49895952D02*
X29138095Y-50562619D01*
X28709524Y-49895952D02*
X28709524Y-50419761D01*
X28709524Y-50419761D02*
X28757143Y-50515000D01*
X28757143Y-50515000D02*
X28852381Y-50562619D01*
X28852381Y-50562619D02*
X28995238Y-50562619D01*
X28995238Y-50562619D02*
X29090476Y-50515000D01*
X29090476Y-50515000D02*
X29138095Y-50467380D01*
X29947619Y-50038809D02*
X29614286Y-50038809D01*
X29614286Y-50562619D02*
X29614286Y-49562619D01*
X29614286Y-49562619D02*
X30090476Y-49562619D01*
%TO.C,R17*%
X62861904Y-110862619D02*
X62385714Y-110862619D01*
X62385714Y-110862619D02*
X62338095Y-111338809D01*
X62338095Y-111338809D02*
X62385714Y-111291190D01*
X62385714Y-111291190D02*
X62480952Y-111243571D01*
X62480952Y-111243571D02*
X62719047Y-111243571D01*
X62719047Y-111243571D02*
X62814285Y-111291190D01*
X62814285Y-111291190D02*
X62861904Y-111338809D01*
X62861904Y-111338809D02*
X62909523Y-111434047D01*
X62909523Y-111434047D02*
X62909523Y-111672142D01*
X62909523Y-111672142D02*
X62861904Y-111767380D01*
X62861904Y-111767380D02*
X62814285Y-111815000D01*
X62814285Y-111815000D02*
X62719047Y-111862619D01*
X62719047Y-111862619D02*
X62480952Y-111862619D01*
X62480952Y-111862619D02*
X62385714Y-111815000D01*
X62385714Y-111815000D02*
X62338095Y-111767380D01*
X63338095Y-111862619D02*
X63338095Y-110862619D01*
X63909523Y-111862619D02*
X63480952Y-111291190D01*
X63909523Y-110862619D02*
X63338095Y-111434047D01*
X64861904Y-111862619D02*
X64290476Y-111862619D01*
X64576190Y-111862619D02*
X64576190Y-110862619D01*
X64576190Y-110862619D02*
X64480952Y-111005476D01*
X64480952Y-111005476D02*
X64385714Y-111100714D01*
X64385714Y-111100714D02*
X64290476Y-111148333D01*
%TO.C,J5*%
X67890427Y-33735318D02*
X67890427Y-34450695D01*
X67890427Y-34450695D02*
X67842736Y-34593771D01*
X67842736Y-34593771D02*
X67747352Y-34689155D01*
X67747352Y-34689155D02*
X67604277Y-34736846D01*
X67604277Y-34736846D02*
X67508893Y-34736846D01*
X68844264Y-33735318D02*
X68367346Y-33735318D01*
X68367346Y-33735318D02*
X68319654Y-34212236D01*
X68319654Y-34212236D02*
X68367346Y-34164545D01*
X68367346Y-34164545D02*
X68462729Y-34116853D01*
X68462729Y-34116853D02*
X68701188Y-34116853D01*
X68701188Y-34116853D02*
X68796572Y-34164545D01*
X68796572Y-34164545D02*
X68844264Y-34212236D01*
X68844264Y-34212236D02*
X68891955Y-34307620D01*
X68891955Y-34307620D02*
X68891955Y-34546079D01*
X68891955Y-34546079D02*
X68844264Y-34641463D01*
X68844264Y-34641463D02*
X68796572Y-34689155D01*
X68796572Y-34689155D02*
X68701188Y-34736846D01*
X68701188Y-34736846D02*
X68462729Y-34736846D01*
X68462729Y-34736846D02*
X68367346Y-34689155D01*
X68367346Y-34689155D02*
X68319654Y-34641463D01*
G36*
X56123238Y-26987397D02*
G01*
X56153681Y-27017838D01*
X56187976Y-27086430D01*
X56187976Y-27374971D01*
X55813762Y-27374971D01*
X55813762Y-27128551D01*
X55851970Y-27013926D01*
X55878500Y-26987397D01*
X55947091Y-26953102D01*
X56054647Y-26953102D01*
X56123238Y-26987397D01*
G37*
G36*
X55599023Y-27035051D02*
G01*
X55629467Y-27065495D01*
X55663119Y-27132801D01*
X55663016Y-27135678D01*
X55663762Y-27136937D01*
X55663762Y-27374971D01*
X55337204Y-27374971D01*
X55337204Y-27134087D01*
X55371499Y-27065495D01*
X55401942Y-27035052D01*
X55470533Y-27000758D01*
X55530434Y-27000758D01*
X55599023Y-27035051D01*
G37*
G36*
X56081666Y-25945052D02*
G01*
X56153681Y-26017067D01*
X56187976Y-26085658D01*
X56187976Y-26240871D01*
X56153681Y-26309461D01*
X56081665Y-26381476D01*
X55920152Y-26421855D01*
X55605027Y-26421855D01*
X55443515Y-26381476D01*
X55371499Y-26309461D01*
X55337204Y-26240871D01*
X55337204Y-26085659D01*
X55371498Y-26017068D01*
X55443515Y-25945052D01*
X55605030Y-25904674D01*
X55920151Y-25904674D01*
X56081666Y-25945052D01*
G37*
G36*
X56081666Y-24896624D02*
G01*
X56153681Y-24968639D01*
X56187976Y-25037230D01*
X56187976Y-25192443D01*
X56153681Y-25261033D01*
X56081665Y-25333048D01*
X55920152Y-25373427D01*
X55605027Y-25373427D01*
X55443515Y-25333048D01*
X55371499Y-25261033D01*
X55337204Y-25192443D01*
X55337204Y-25037231D01*
X55371498Y-24968640D01*
X55443515Y-24896624D01*
X55605030Y-24856246D01*
X55920151Y-24856246D01*
X56081666Y-24896624D01*
G37*
G36*
X55998520Y-21420792D02*
G01*
X56075581Y-21459321D01*
X56149768Y-21533508D01*
X56187976Y-21648133D01*
X56187976Y-21799241D01*
X55337204Y-21799241D01*
X55337204Y-21648132D01*
X55375412Y-21533508D01*
X55449598Y-21459323D01*
X55526658Y-21420792D01*
X55700342Y-21377372D01*
X55824839Y-21377372D01*
X55998520Y-21420792D01*
G37*
G36*
X56855853Y-28143641D02*
G01*
X54744147Y-28143641D01*
X54744147Y-27124772D01*
X55184490Y-27124772D01*
X55187204Y-27131316D01*
X55187204Y-27444611D01*
X55184834Y-27461095D01*
X55191753Y-27476247D01*
X55196447Y-27492231D01*
X55200759Y-27495967D01*
X55203130Y-27501159D01*
X55217146Y-27510166D01*
X55229733Y-27521073D01*
X55235379Y-27521884D01*
X55240182Y-27524971D01*
X55256844Y-27524971D01*
X55273328Y-27527341D01*
X55278518Y-27524971D01*
X55733402Y-27524971D01*
X55749886Y-27527341D01*
X55755076Y-27524971D01*
X56257616Y-27524971D01*
X56274100Y-27527341D01*
X56289252Y-27520421D01*
X56305236Y-27515728D01*
X56308972Y-27511415D01*
X56314164Y-27509045D01*
X56323171Y-27495028D01*
X56334078Y-27482442D01*
X56334889Y-27476795D01*
X56337976Y-27471993D01*
X56337976Y-27455331D01*
X56340346Y-27438847D01*
X56337976Y-27433657D01*
X56337976Y-27072766D01*
X56339907Y-27054882D01*
X56333050Y-27041168D01*
X56328733Y-27026465D01*
X56323379Y-27021826D01*
X56286607Y-26948279D01*
X56283925Y-26935951D01*
X56269310Y-26921336D01*
X56255237Y-26906207D01*
X56253817Y-26905844D01*
X56227346Y-26879373D01*
X56220903Y-26868524D01*
X56202404Y-26859274D01*
X56184279Y-26849378D01*
X56182819Y-26849482D01*
X56109504Y-26812825D01*
X56094375Y-26803102D01*
X56079045Y-26803102D01*
X56063962Y-26800388D01*
X56057418Y-26803102D01*
X55933426Y-26803102D01*
X55915542Y-26801171D01*
X55901828Y-26808027D01*
X55887126Y-26812345D01*
X55882487Y-26817698D01*
X55808942Y-26854471D01*
X55796614Y-26857153D01*
X55781999Y-26871766D01*
X55766868Y-26885842D01*
X55766505Y-26887260D01*
X55736236Y-26917528D01*
X55722231Y-26928804D01*
X55717900Y-26941796D01*
X55703134Y-26927030D01*
X55696689Y-26916179D01*
X55678191Y-26906930D01*
X55660066Y-26897033D01*
X55658605Y-26897137D01*
X55585289Y-26860480D01*
X55570161Y-26850758D01*
X55554830Y-26850758D01*
X55539747Y-26848044D01*
X55533204Y-26850758D01*
X55456869Y-26850758D01*
X55438985Y-26848827D01*
X55425271Y-26855683D01*
X55410568Y-26860001D01*
X55405929Y-26865354D01*
X55332384Y-26902125D01*
X55320055Y-26904808D01*
X55305436Y-26919426D01*
X55290310Y-26933497D01*
X55289947Y-26934915D01*
X55263475Y-26961387D01*
X55252626Y-26967831D01*
X55243375Y-26986331D01*
X55233480Y-27004454D01*
X55233584Y-27005914D01*
X55196927Y-27079229D01*
X55187204Y-27094359D01*
X55187204Y-27109689D01*
X55184490Y-27124772D01*
X54744147Y-27124772D01*
X54744147Y-26076344D01*
X55184490Y-26076344D01*
X55187204Y-26082888D01*
X55187204Y-26254536D01*
X55185273Y-26272420D01*
X55192129Y-26286133D01*
X55196447Y-26300836D01*
X55201800Y-26305474D01*
X55238572Y-26379018D01*
X55241255Y-26391349D01*
X55255872Y-26405966D01*
X55269944Y-26421094D01*
X55271363Y-26421456D01*
X55351319Y-26501412D01*
X55365617Y-26516619D01*
X55377664Y-26519630D01*
X55388558Y-26525579D01*
X55398586Y-26524861D01*
X55565631Y-26566622D01*
X55573773Y-26571855D01*
X55586561Y-26571855D01*
X55588065Y-26572231D01*
X55597311Y-26571855D01*
X55917043Y-26571855D01*
X55926212Y-26574957D01*
X55938620Y-26571855D01*
X55940168Y-26571855D01*
X55949037Y-26569250D01*
X56137098Y-26522235D01*
X56157470Y-26517804D01*
X56166248Y-26509025D01*
X56176956Y-26502743D01*
X56181501Y-26493772D01*
X56261704Y-26413570D01*
X56272555Y-26407126D01*
X56281802Y-26388630D01*
X56291701Y-26370503D01*
X56291596Y-26369041D01*
X56328251Y-26295729D01*
X56337976Y-26280598D01*
X56337976Y-26265267D01*
X56340690Y-26250184D01*
X56337976Y-26243641D01*
X56337976Y-26071994D01*
X56339907Y-26054110D01*
X56333050Y-26040396D01*
X56328733Y-26025693D01*
X56323379Y-26021054D01*
X56286608Y-25947509D01*
X56283926Y-25935180D01*
X56269309Y-25920563D01*
X56255237Y-25905435D01*
X56253817Y-25905072D01*
X56173853Y-25825108D01*
X56159564Y-25809911D01*
X56147519Y-25806899D01*
X56136623Y-25800950D01*
X56126591Y-25801667D01*
X55959550Y-25759906D01*
X55951408Y-25754674D01*
X55938620Y-25754674D01*
X55937116Y-25754298D01*
X55927870Y-25754674D01*
X55608138Y-25754674D01*
X55598969Y-25751572D01*
X55586561Y-25754674D01*
X55585013Y-25754674D01*
X55576143Y-25757278D01*
X55388090Y-25804291D01*
X55367711Y-25808725D01*
X55358931Y-25817504D01*
X55348225Y-25823786D01*
X55343679Y-25832755D01*
X55263476Y-25912958D01*
X55252626Y-25919403D01*
X55243371Y-25937911D01*
X55233481Y-25956026D01*
X55233585Y-25957484D01*
X55196927Y-26030801D01*
X55187204Y-26045931D01*
X55187204Y-26061261D01*
X55184490Y-26076344D01*
X54744147Y-26076344D01*
X54744147Y-25027916D01*
X55184490Y-25027916D01*
X55187204Y-25034460D01*
X55187204Y-25206108D01*
X55185273Y-25223992D01*
X55192129Y-25237705D01*
X55196447Y-25252408D01*
X55201800Y-25257046D01*
X55238572Y-25330590D01*
X55241255Y-25342921D01*
X55255872Y-25357538D01*
X55269944Y-25372666D01*
X55271363Y-25373028D01*
X55351319Y-25452984D01*
X55365617Y-25468191D01*
X55377664Y-25471202D01*
X55388558Y-25477151D01*
X55398586Y-25476433D01*
X55565631Y-25518194D01*
X55573773Y-25523427D01*
X55586561Y-25523427D01*
X55588065Y-25523803D01*
X55597311Y-25523427D01*
X55917043Y-25523427D01*
X55926212Y-25526529D01*
X55938620Y-25523427D01*
X55940168Y-25523427D01*
X55949037Y-25520822D01*
X56137098Y-25473807D01*
X56157470Y-25469376D01*
X56166248Y-25460597D01*
X56176956Y-25454315D01*
X56181501Y-25445344D01*
X56261704Y-25365142D01*
X56272555Y-25358698D01*
X56281802Y-25340202D01*
X56291701Y-25322075D01*
X56291596Y-25320613D01*
X56328251Y-25247301D01*
X56337976Y-25232170D01*
X56337976Y-25216839D01*
X56340690Y-25201756D01*
X56337976Y-25195213D01*
X56337976Y-25023566D01*
X56339907Y-25005682D01*
X56333050Y-24991968D01*
X56328733Y-24977265D01*
X56323379Y-24972626D01*
X56286608Y-24899081D01*
X56283926Y-24886752D01*
X56269309Y-24872135D01*
X56255237Y-24857007D01*
X56253817Y-24856644D01*
X56173853Y-24776680D01*
X56159564Y-24761483D01*
X56147519Y-24758471D01*
X56136623Y-24752522D01*
X56126591Y-24753239D01*
X55959550Y-24711478D01*
X55951408Y-24706246D01*
X55938620Y-24706246D01*
X55937116Y-24705870D01*
X55927870Y-24706246D01*
X55608138Y-24706246D01*
X55598969Y-24703144D01*
X55586561Y-24706246D01*
X55585013Y-24706246D01*
X55576143Y-24708850D01*
X55388090Y-24755863D01*
X55367711Y-24760297D01*
X55358931Y-24769076D01*
X55348225Y-24775358D01*
X55343679Y-24784327D01*
X55263476Y-24864530D01*
X55252626Y-24870975D01*
X55243371Y-24889483D01*
X55233481Y-24907598D01*
X55233585Y-24909056D01*
X55196927Y-24982373D01*
X55187204Y-24997503D01*
X55187204Y-25012833D01*
X55184490Y-25027916D01*
X54744147Y-25027916D01*
X54744147Y-24220500D01*
X55184834Y-24220500D01*
X55187204Y-24225690D01*
X55187204Y-24506093D01*
X55196447Y-24537571D01*
X55229733Y-24566413D01*
X55273328Y-24572681D01*
X55313392Y-24554385D01*
X55337204Y-24517333D01*
X55337204Y-24284376D01*
X56273758Y-24284376D01*
X56305236Y-24275133D01*
X56334078Y-24241847D01*
X56340346Y-24198252D01*
X56322050Y-24158188D01*
X56284998Y-24134376D01*
X55337204Y-24134376D01*
X55337204Y-23912659D01*
X55327961Y-23881181D01*
X55294675Y-23852339D01*
X55251080Y-23846071D01*
X55211016Y-23864367D01*
X55187204Y-23901419D01*
X55187204Y-24204016D01*
X55184834Y-24220500D01*
X54744147Y-24220500D01*
X54744147Y-23838912D01*
X56283288Y-23838912D01*
X56292531Y-23870390D01*
X56325817Y-23899232D01*
X56369412Y-23905500D01*
X56409476Y-23887204D01*
X56433288Y-23850152D01*
X56433288Y-23054855D01*
X56424045Y-23023377D01*
X56390759Y-22994535D01*
X56347164Y-22988267D01*
X56307100Y-23006563D01*
X56283288Y-23043615D01*
X56283288Y-23838912D01*
X54744147Y-23838912D01*
X54744147Y-22698234D01*
X55185273Y-22698234D01*
X55192129Y-22711947D01*
X55196447Y-22726650D01*
X55201800Y-22731288D01*
X55238572Y-22804831D01*
X55241255Y-22817164D01*
X55255879Y-22831787D01*
X55269944Y-22846908D01*
X55271363Y-22847270D01*
X55297833Y-22873740D01*
X55304278Y-22884591D01*
X55322790Y-22893846D01*
X55340902Y-22903737D01*
X55342361Y-22903632D01*
X55415676Y-22940289D01*
X55430806Y-22950013D01*
X55446136Y-22950013D01*
X55461219Y-22952727D01*
X55467763Y-22950013D01*
X55544099Y-22950013D01*
X55561983Y-22951944D01*
X55575696Y-22945087D01*
X55590399Y-22940770D01*
X55595037Y-22935416D01*
X55668582Y-22898643D01*
X55680911Y-22895962D01*
X55695525Y-22881348D01*
X55710657Y-22867273D01*
X55711019Y-22865854D01*
X55737491Y-22839383D01*
X55748341Y-22832940D01*
X55757586Y-22814448D01*
X55767486Y-22796318D01*
X55767381Y-22794857D01*
X55799869Y-22729880D01*
X55806182Y-22723945D01*
X55809527Y-22710563D01*
X55810666Y-22708286D01*
X55812128Y-22700160D01*
X55857182Y-22519944D01*
X55895713Y-22442881D01*
X55926156Y-22412439D01*
X55994746Y-22378144D01*
X56054648Y-22378144D01*
X56123237Y-22412437D01*
X56153681Y-22442881D01*
X56187976Y-22511472D01*
X56187976Y-22719875D01*
X56140760Y-22861525D01*
X56139575Y-22894310D01*
X56162032Y-22932198D01*
X56201408Y-22951930D01*
X56245202Y-22947242D01*
X56279508Y-22919622D01*
X56331153Y-22764683D01*
X56337976Y-22754068D01*
X56337976Y-22733388D01*
X56338722Y-22712749D01*
X56337976Y-22711490D01*
X56337976Y-22497808D01*
X56339907Y-22479924D01*
X56333050Y-22466210D01*
X56328733Y-22451507D01*
X56323379Y-22446868D01*
X56286608Y-22373323D01*
X56283926Y-22360994D01*
X56269307Y-22346375D01*
X56255237Y-22331249D01*
X56253818Y-22330886D01*
X56227348Y-22304416D01*
X56220903Y-22293565D01*
X56202405Y-22284316D01*
X56184280Y-22274419D01*
X56182819Y-22274523D01*
X56109503Y-22237866D01*
X56094375Y-22228144D01*
X56079044Y-22228144D01*
X56063961Y-22225430D01*
X56057418Y-22228144D01*
X55981082Y-22228144D01*
X55963198Y-22226213D01*
X55949485Y-22233069D01*
X55934781Y-22237387D01*
X55930141Y-22242741D01*
X55856601Y-22279511D01*
X55844269Y-22282194D01*
X55829641Y-22296821D01*
X55814524Y-22310883D01*
X55814161Y-22312301D01*
X55787689Y-22338773D01*
X55776840Y-22345217D01*
X55767589Y-22363717D01*
X55757694Y-22381840D01*
X55757798Y-22383300D01*
X55725309Y-22448278D01*
X55718999Y-22454212D01*
X55715654Y-22467588D01*
X55714514Y-22469870D01*
X55713048Y-22478011D01*
X55667997Y-22658212D01*
X55629467Y-22735275D01*
X55599024Y-22765717D01*
X55530434Y-22800013D01*
X55470534Y-22800013D01*
X55401942Y-22765717D01*
X55371499Y-22735275D01*
X55337204Y-22666685D01*
X55337204Y-22458281D01*
X55384421Y-22316632D01*
X55385607Y-22283847D01*
X55363149Y-22245959D01*
X55323774Y-22226226D01*
X55279980Y-22230914D01*
X55245673Y-22258534D01*
X55194025Y-22413474D01*
X55187204Y-22424089D01*
X55187204Y-22444768D01*
X55186458Y-22465408D01*
X55187204Y-22466667D01*
X55187204Y-22680350D01*
X55185273Y-22698234D01*
X54744147Y-22698234D01*
X54744147Y-21885365D01*
X55184834Y-21885365D01*
X55191753Y-21900517D01*
X55196447Y-21916501D01*
X55200759Y-21920237D01*
X55203130Y-21925429D01*
X55217146Y-21934436D01*
X55229733Y-21945343D01*
X55235379Y-21946154D01*
X55240182Y-21949241D01*
X55256844Y-21949241D01*
X55273328Y-21951611D01*
X55278518Y-21949241D01*
X56257616Y-21949241D01*
X56274100Y-21951611D01*
X56289252Y-21944691D01*
X56305236Y-21939998D01*
X56308972Y-21935685D01*
X56314164Y-21933315D01*
X56323171Y-21919298D01*
X56334078Y-21906712D01*
X56334889Y-21901065D01*
X56337976Y-21896263D01*
X56337976Y-21879601D01*
X56340346Y-21863117D01*
X56337976Y-21857927D01*
X56337976Y-21645365D01*
X56341091Y-21633137D01*
X56334552Y-21613522D01*
X56328733Y-21593702D01*
X56327626Y-21592743D01*
X56287748Y-21473104D01*
X56283926Y-21455534D01*
X56273086Y-21444694D01*
X56264340Y-21432110D01*
X56257794Y-21429402D01*
X56179692Y-21351300D01*
X56173247Y-21340449D01*
X56154749Y-21331200D01*
X56136624Y-21321303D01*
X56135163Y-21321407D01*
X56070185Y-21288919D01*
X56064252Y-21282609D01*
X56050875Y-21279264D01*
X56048594Y-21278124D01*
X56040452Y-21276659D01*
X55864238Y-21232604D01*
X55856096Y-21227372D01*
X55843308Y-21227372D01*
X55841804Y-21226996D01*
X55832558Y-21227372D01*
X55703451Y-21227372D01*
X55694282Y-21224270D01*
X55681874Y-21227372D01*
X55680325Y-21227372D01*
X55671450Y-21229977D01*
X55495253Y-21274026D01*
X55486640Y-21273097D01*
X55474306Y-21279263D01*
X55471833Y-21279882D01*
X55464699Y-21284067D01*
X55380043Y-21326395D01*
X55367711Y-21329078D01*
X55353083Y-21343705D01*
X55337966Y-21357767D01*
X55337603Y-21359185D01*
X55259684Y-21437104D01*
X55245673Y-21448385D01*
X55240824Y-21462928D01*
X55233480Y-21476380D01*
X55233985Y-21483446D01*
X55194025Y-21603325D01*
X55187204Y-21613940D01*
X55187204Y-21634619D01*
X55186458Y-21655259D01*
X55187204Y-21656518D01*
X55187204Y-21868881D01*
X55184834Y-21885365D01*
X54744147Y-21885365D01*
X54744147Y-20656359D01*
X56855853Y-20656359D01*
X56855853Y-28143641D01*
G37*
%TO.C,U2*%
X80138095Y-100785119D02*
X80138095Y-101594642D01*
X80138095Y-101594642D02*
X80185714Y-101689880D01*
X80185714Y-101689880D02*
X80233333Y-101737500D01*
X80233333Y-101737500D02*
X80328571Y-101785119D01*
X80328571Y-101785119D02*
X80519047Y-101785119D01*
X80519047Y-101785119D02*
X80614285Y-101737500D01*
X80614285Y-101737500D02*
X80661904Y-101689880D01*
X80661904Y-101689880D02*
X80709523Y-101594642D01*
X80709523Y-101594642D02*
X80709523Y-100785119D01*
X81138095Y-100880357D02*
X81185714Y-100832738D01*
X81185714Y-100832738D02*
X81280952Y-100785119D01*
X81280952Y-100785119D02*
X81519047Y-100785119D01*
X81519047Y-100785119D02*
X81614285Y-100832738D01*
X81614285Y-100832738D02*
X81661904Y-100880357D01*
X81661904Y-100880357D02*
X81709523Y-100975595D01*
X81709523Y-100975595D02*
X81709523Y-101070833D01*
X81709523Y-101070833D02*
X81661904Y-101213690D01*
X81661904Y-101213690D02*
X81090476Y-101785119D01*
X81090476Y-101785119D02*
X81709523Y-101785119D01*
X78280952Y-112061309D02*
X77947619Y-112061309D01*
X77947619Y-112585119D02*
X77947619Y-111585119D01*
X77947619Y-111585119D02*
X78423809Y-111585119D01*
X78661905Y-111585119D02*
X79233333Y-111585119D01*
X78947619Y-112585119D02*
X78947619Y-111585119D01*
X79519048Y-111680357D02*
X79566667Y-111632738D01*
X79566667Y-111632738D02*
X79661905Y-111585119D01*
X79661905Y-111585119D02*
X79900000Y-111585119D01*
X79900000Y-111585119D02*
X79995238Y-111632738D01*
X79995238Y-111632738D02*
X80042857Y-111680357D01*
X80042857Y-111680357D02*
X80090476Y-111775595D01*
X80090476Y-111775595D02*
X80090476Y-111870833D01*
X80090476Y-111870833D02*
X80042857Y-112013690D01*
X80042857Y-112013690D02*
X79471429Y-112585119D01*
X79471429Y-112585119D02*
X80090476Y-112585119D01*
X80423810Y-111585119D02*
X81042857Y-111585119D01*
X81042857Y-111585119D02*
X80709524Y-111966071D01*
X80709524Y-111966071D02*
X80852381Y-111966071D01*
X80852381Y-111966071D02*
X80947619Y-112013690D01*
X80947619Y-112013690D02*
X80995238Y-112061309D01*
X80995238Y-112061309D02*
X81042857Y-112156547D01*
X81042857Y-112156547D02*
X81042857Y-112394642D01*
X81042857Y-112394642D02*
X80995238Y-112489880D01*
X80995238Y-112489880D02*
X80947619Y-112537500D01*
X80947619Y-112537500D02*
X80852381Y-112585119D01*
X80852381Y-112585119D02*
X80566667Y-112585119D01*
X80566667Y-112585119D02*
X80471429Y-112537500D01*
X80471429Y-112537500D02*
X80423810Y-112489880D01*
X81995238Y-112585119D02*
X81423810Y-112585119D01*
X81709524Y-112585119D02*
X81709524Y-111585119D01*
X81709524Y-111585119D02*
X81614286Y-111727976D01*
X81614286Y-111727976D02*
X81519048Y-111823214D01*
X81519048Y-111823214D02*
X81423810Y-111870833D01*
X82328572Y-111585119D02*
X82995238Y-112585119D01*
X82995238Y-111585119D02*
X82328572Y-112585119D01*
X83328572Y-112537500D02*
X83471429Y-112585119D01*
X83471429Y-112585119D02*
X83709524Y-112585119D01*
X83709524Y-112585119D02*
X83804762Y-112537500D01*
X83804762Y-112537500D02*
X83852381Y-112489880D01*
X83852381Y-112489880D02*
X83900000Y-112394642D01*
X83900000Y-112394642D02*
X83900000Y-112299404D01*
X83900000Y-112299404D02*
X83852381Y-112204166D01*
X83852381Y-112204166D02*
X83804762Y-112156547D01*
X83804762Y-112156547D02*
X83709524Y-112108928D01*
X83709524Y-112108928D02*
X83519048Y-112061309D01*
X83519048Y-112061309D02*
X83423810Y-112013690D01*
X83423810Y-112013690D02*
X83376191Y-111966071D01*
X83376191Y-111966071D02*
X83328572Y-111870833D01*
X83328572Y-111870833D02*
X83328572Y-111775595D01*
X83328572Y-111775595D02*
X83376191Y-111680357D01*
X83376191Y-111680357D02*
X83423810Y-111632738D01*
X83423810Y-111632738D02*
X83519048Y-111585119D01*
X83519048Y-111585119D02*
X83757143Y-111585119D01*
X83757143Y-111585119D02*
X83900000Y-111632738D01*
%TO.C,TP7*%
X77138095Y-119110619D02*
X77709523Y-119110619D01*
X77423809Y-120110619D02*
X77423809Y-119110619D01*
X78042857Y-120110619D02*
X78042857Y-119110619D01*
X78042857Y-119110619D02*
X78423809Y-119110619D01*
X78423809Y-119110619D02*
X78519047Y-119158238D01*
X78519047Y-119158238D02*
X78566666Y-119205857D01*
X78566666Y-119205857D02*
X78614285Y-119301095D01*
X78614285Y-119301095D02*
X78614285Y-119443952D01*
X78614285Y-119443952D02*
X78566666Y-119539190D01*
X78566666Y-119539190D02*
X78519047Y-119586809D01*
X78519047Y-119586809D02*
X78423809Y-119634428D01*
X78423809Y-119634428D02*
X78042857Y-119634428D01*
X78947619Y-119110619D02*
X79614285Y-119110619D01*
X79614285Y-119110619D02*
X79185714Y-120110619D01*
X77638095Y-116160238D02*
X77542857Y-116112619D01*
X77542857Y-116112619D02*
X77400000Y-116112619D01*
X77400000Y-116112619D02*
X77257143Y-116160238D01*
X77257143Y-116160238D02*
X77161905Y-116255476D01*
X77161905Y-116255476D02*
X77114286Y-116350714D01*
X77114286Y-116350714D02*
X77066667Y-116541190D01*
X77066667Y-116541190D02*
X77066667Y-116684047D01*
X77066667Y-116684047D02*
X77114286Y-116874523D01*
X77114286Y-116874523D02*
X77161905Y-116969761D01*
X77161905Y-116969761D02*
X77257143Y-117065000D01*
X77257143Y-117065000D02*
X77400000Y-117112619D01*
X77400000Y-117112619D02*
X77495238Y-117112619D01*
X77495238Y-117112619D02*
X77638095Y-117065000D01*
X77638095Y-117065000D02*
X77685714Y-117017380D01*
X77685714Y-117017380D02*
X77685714Y-116684047D01*
X77685714Y-116684047D02*
X77495238Y-116684047D01*
X78114286Y-117112619D02*
X78114286Y-116112619D01*
X78114286Y-116112619D02*
X78685714Y-117112619D01*
X78685714Y-117112619D02*
X78685714Y-116112619D01*
X79161905Y-117112619D02*
X79161905Y-116112619D01*
X79161905Y-116112619D02*
X79400000Y-116112619D01*
X79400000Y-116112619D02*
X79542857Y-116160238D01*
X79542857Y-116160238D02*
X79638095Y-116255476D01*
X79638095Y-116255476D02*
X79685714Y-116350714D01*
X79685714Y-116350714D02*
X79733333Y-116541190D01*
X79733333Y-116541190D02*
X79733333Y-116684047D01*
X79733333Y-116684047D02*
X79685714Y-116874523D01*
X79685714Y-116874523D02*
X79638095Y-116969761D01*
X79638095Y-116969761D02*
X79542857Y-117065000D01*
X79542857Y-117065000D02*
X79400000Y-117112619D01*
X79400000Y-117112619D02*
X79161905Y-117112619D01*
%TO.C,C15*%
X52367380Y-33042857D02*
X52415000Y-33090476D01*
X52415000Y-33090476D02*
X52462619Y-33233333D01*
X52462619Y-33233333D02*
X52462619Y-33328571D01*
X52462619Y-33328571D02*
X52415000Y-33471428D01*
X52415000Y-33471428D02*
X52319761Y-33566666D01*
X52319761Y-33566666D02*
X52224523Y-33614285D01*
X52224523Y-33614285D02*
X52034047Y-33661904D01*
X52034047Y-33661904D02*
X51891190Y-33661904D01*
X51891190Y-33661904D02*
X51700714Y-33614285D01*
X51700714Y-33614285D02*
X51605476Y-33566666D01*
X51605476Y-33566666D02*
X51510238Y-33471428D01*
X51510238Y-33471428D02*
X51462619Y-33328571D01*
X51462619Y-33328571D02*
X51462619Y-33233333D01*
X51462619Y-33233333D02*
X51510238Y-33090476D01*
X51510238Y-33090476D02*
X51557857Y-33042857D01*
X52462619Y-32090476D02*
X52462619Y-32661904D01*
X52462619Y-32376190D02*
X51462619Y-32376190D01*
X51462619Y-32376190D02*
X51605476Y-32471428D01*
X51605476Y-32471428D02*
X51700714Y-32566666D01*
X51700714Y-32566666D02*
X51748333Y-32661904D01*
X51462619Y-31185714D02*
X51462619Y-31661904D01*
X51462619Y-31661904D02*
X51938809Y-31709523D01*
X51938809Y-31709523D02*
X51891190Y-31661904D01*
X51891190Y-31661904D02*
X51843571Y-31566666D01*
X51843571Y-31566666D02*
X51843571Y-31328571D01*
X51843571Y-31328571D02*
X51891190Y-31233333D01*
X51891190Y-31233333D02*
X51938809Y-31185714D01*
X51938809Y-31185714D02*
X52034047Y-31138095D01*
X52034047Y-31138095D02*
X52272142Y-31138095D01*
X52272142Y-31138095D02*
X52367380Y-31185714D01*
X52367380Y-31185714D02*
X52415000Y-31233333D01*
X52415000Y-31233333D02*
X52462619Y-31328571D01*
X52462619Y-31328571D02*
X52462619Y-31566666D01*
X52462619Y-31566666D02*
X52415000Y-31661904D01*
X52415000Y-31661904D02*
X52367380Y-31709523D01*
X52862619Y-34042856D02*
X52862619Y-33947618D01*
X52862619Y-33947618D02*
X52910238Y-33852380D01*
X52910238Y-33852380D02*
X52957857Y-33804761D01*
X52957857Y-33804761D02*
X53053095Y-33757142D01*
X53053095Y-33757142D02*
X53243571Y-33709523D01*
X53243571Y-33709523D02*
X53481666Y-33709523D01*
X53481666Y-33709523D02*
X53672142Y-33757142D01*
X53672142Y-33757142D02*
X53767380Y-33804761D01*
X53767380Y-33804761D02*
X53815000Y-33852380D01*
X53815000Y-33852380D02*
X53862619Y-33947618D01*
X53862619Y-33947618D02*
X53862619Y-34042856D01*
X53862619Y-34042856D02*
X53815000Y-34138094D01*
X53815000Y-34138094D02*
X53767380Y-34185713D01*
X53767380Y-34185713D02*
X53672142Y-34233332D01*
X53672142Y-34233332D02*
X53481666Y-34280951D01*
X53481666Y-34280951D02*
X53243571Y-34280951D01*
X53243571Y-34280951D02*
X53053095Y-34233332D01*
X53053095Y-34233332D02*
X52957857Y-34185713D01*
X52957857Y-34185713D02*
X52910238Y-34138094D01*
X52910238Y-34138094D02*
X52862619Y-34042856D01*
X53767380Y-33280951D02*
X53815000Y-33233332D01*
X53815000Y-33233332D02*
X53862619Y-33280951D01*
X53862619Y-33280951D02*
X53815000Y-33328570D01*
X53815000Y-33328570D02*
X53767380Y-33280951D01*
X53767380Y-33280951D02*
X53862619Y-33280951D01*
X53862619Y-32280952D02*
X53862619Y-32852380D01*
X53862619Y-32566666D02*
X52862619Y-32566666D01*
X52862619Y-32566666D02*
X53005476Y-32661904D01*
X53005476Y-32661904D02*
X53100714Y-32757142D01*
X53100714Y-32757142D02*
X53148333Y-32852380D01*
X53195952Y-31423809D02*
X53862619Y-31423809D01*
X53195952Y-31852380D02*
X53719761Y-31852380D01*
X53719761Y-31852380D02*
X53815000Y-31804761D01*
X53815000Y-31804761D02*
X53862619Y-31709523D01*
X53862619Y-31709523D02*
X53862619Y-31566666D01*
X53862619Y-31566666D02*
X53815000Y-31471428D01*
X53815000Y-31471428D02*
X53767380Y-31423809D01*
X53338809Y-30614285D02*
X53338809Y-30947618D01*
X53862619Y-30947618D02*
X52862619Y-30947618D01*
X52862619Y-30947618D02*
X52862619Y-30471428D01*
%TO.C,C13*%
X76167380Y-100042857D02*
X76215000Y-100090476D01*
X76215000Y-100090476D02*
X76262619Y-100233333D01*
X76262619Y-100233333D02*
X76262619Y-100328571D01*
X76262619Y-100328571D02*
X76215000Y-100471428D01*
X76215000Y-100471428D02*
X76119761Y-100566666D01*
X76119761Y-100566666D02*
X76024523Y-100614285D01*
X76024523Y-100614285D02*
X75834047Y-100661904D01*
X75834047Y-100661904D02*
X75691190Y-100661904D01*
X75691190Y-100661904D02*
X75500714Y-100614285D01*
X75500714Y-100614285D02*
X75405476Y-100566666D01*
X75405476Y-100566666D02*
X75310238Y-100471428D01*
X75310238Y-100471428D02*
X75262619Y-100328571D01*
X75262619Y-100328571D02*
X75262619Y-100233333D01*
X75262619Y-100233333D02*
X75310238Y-100090476D01*
X75310238Y-100090476D02*
X75357857Y-100042857D01*
X76262619Y-99090476D02*
X76262619Y-99661904D01*
X76262619Y-99376190D02*
X75262619Y-99376190D01*
X75262619Y-99376190D02*
X75405476Y-99471428D01*
X75405476Y-99471428D02*
X75500714Y-99566666D01*
X75500714Y-99566666D02*
X75548333Y-99661904D01*
X75262619Y-98757142D02*
X75262619Y-98138095D01*
X75262619Y-98138095D02*
X75643571Y-98471428D01*
X75643571Y-98471428D02*
X75643571Y-98328571D01*
X75643571Y-98328571D02*
X75691190Y-98233333D01*
X75691190Y-98233333D02*
X75738809Y-98185714D01*
X75738809Y-98185714D02*
X75834047Y-98138095D01*
X75834047Y-98138095D02*
X76072142Y-98138095D01*
X76072142Y-98138095D02*
X76167380Y-98185714D01*
X76167380Y-98185714D02*
X76215000Y-98233333D01*
X76215000Y-98233333D02*
X76262619Y-98328571D01*
X76262619Y-98328571D02*
X76262619Y-98614285D01*
X76262619Y-98614285D02*
X76215000Y-98709523D01*
X76215000Y-98709523D02*
X76167380Y-98757142D01*
X69452380Y-96162619D02*
X68880952Y-96162619D01*
X69166666Y-96162619D02*
X69166666Y-95162619D01*
X69166666Y-95162619D02*
X69071428Y-95305476D01*
X69071428Y-95305476D02*
X68976190Y-95400714D01*
X68976190Y-95400714D02*
X68880952Y-95448333D01*
X70071428Y-95162619D02*
X70166666Y-95162619D01*
X70166666Y-95162619D02*
X70261904Y-95210238D01*
X70261904Y-95210238D02*
X70309523Y-95257857D01*
X70309523Y-95257857D02*
X70357142Y-95353095D01*
X70357142Y-95353095D02*
X70404761Y-95543571D01*
X70404761Y-95543571D02*
X70404761Y-95781666D01*
X70404761Y-95781666D02*
X70357142Y-95972142D01*
X70357142Y-95972142D02*
X70309523Y-96067380D01*
X70309523Y-96067380D02*
X70261904Y-96115000D01*
X70261904Y-96115000D02*
X70166666Y-96162619D01*
X70166666Y-96162619D02*
X70071428Y-96162619D01*
X70071428Y-96162619D02*
X69976190Y-96115000D01*
X69976190Y-96115000D02*
X69928571Y-96067380D01*
X69928571Y-96067380D02*
X69880952Y-95972142D01*
X69880952Y-95972142D02*
X69833333Y-95781666D01*
X69833333Y-95781666D02*
X69833333Y-95543571D01*
X69833333Y-95543571D02*
X69880952Y-95353095D01*
X69880952Y-95353095D02*
X69928571Y-95257857D01*
X69928571Y-95257857D02*
X69976190Y-95210238D01*
X69976190Y-95210238D02*
X70071428Y-95162619D01*
X71023809Y-95162619D02*
X71119047Y-95162619D01*
X71119047Y-95162619D02*
X71214285Y-95210238D01*
X71214285Y-95210238D02*
X71261904Y-95257857D01*
X71261904Y-95257857D02*
X71309523Y-95353095D01*
X71309523Y-95353095D02*
X71357142Y-95543571D01*
X71357142Y-95543571D02*
X71357142Y-95781666D01*
X71357142Y-95781666D02*
X71309523Y-95972142D01*
X71309523Y-95972142D02*
X71261904Y-96067380D01*
X71261904Y-96067380D02*
X71214285Y-96115000D01*
X71214285Y-96115000D02*
X71119047Y-96162619D01*
X71119047Y-96162619D02*
X71023809Y-96162619D01*
X71023809Y-96162619D02*
X70928571Y-96115000D01*
X70928571Y-96115000D02*
X70880952Y-96067380D01*
X70880952Y-96067380D02*
X70833333Y-95972142D01*
X70833333Y-95972142D02*
X70785714Y-95781666D01*
X70785714Y-95781666D02*
X70785714Y-95543571D01*
X70785714Y-95543571D02*
X70833333Y-95353095D01*
X70833333Y-95353095D02*
X70880952Y-95257857D01*
X70880952Y-95257857D02*
X70928571Y-95210238D01*
X70928571Y-95210238D02*
X71023809Y-95162619D01*
X72214285Y-95495952D02*
X72214285Y-96162619D01*
X71785714Y-95495952D02*
X71785714Y-96019761D01*
X71785714Y-96019761D02*
X71833333Y-96115000D01*
X71833333Y-96115000D02*
X71928571Y-96162619D01*
X71928571Y-96162619D02*
X72071428Y-96162619D01*
X72071428Y-96162619D02*
X72166666Y-96115000D01*
X72166666Y-96115000D02*
X72214285Y-96067380D01*
X73023809Y-95638809D02*
X72690476Y-95638809D01*
X72690476Y-96162619D02*
X72690476Y-95162619D01*
X72690476Y-95162619D02*
X73166666Y-95162619D01*
%TO.C,R8*%
X73862619Y-35366666D02*
X73386428Y-35699999D01*
X73862619Y-35938094D02*
X72862619Y-35938094D01*
X72862619Y-35938094D02*
X72862619Y-35557142D01*
X72862619Y-35557142D02*
X72910238Y-35461904D01*
X72910238Y-35461904D02*
X72957857Y-35414285D01*
X72957857Y-35414285D02*
X73053095Y-35366666D01*
X73053095Y-35366666D02*
X73195952Y-35366666D01*
X73195952Y-35366666D02*
X73291190Y-35414285D01*
X73291190Y-35414285D02*
X73338809Y-35461904D01*
X73338809Y-35461904D02*
X73386428Y-35557142D01*
X73386428Y-35557142D02*
X73386428Y-35938094D01*
X73291190Y-34795237D02*
X73243571Y-34890475D01*
X73243571Y-34890475D02*
X73195952Y-34938094D01*
X73195952Y-34938094D02*
X73100714Y-34985713D01*
X73100714Y-34985713D02*
X73053095Y-34985713D01*
X73053095Y-34985713D02*
X72957857Y-34938094D01*
X72957857Y-34938094D02*
X72910238Y-34890475D01*
X72910238Y-34890475D02*
X72862619Y-34795237D01*
X72862619Y-34795237D02*
X72862619Y-34604761D01*
X72862619Y-34604761D02*
X72910238Y-34509523D01*
X72910238Y-34509523D02*
X72957857Y-34461904D01*
X72957857Y-34461904D02*
X73053095Y-34414285D01*
X73053095Y-34414285D02*
X73100714Y-34414285D01*
X73100714Y-34414285D02*
X73195952Y-34461904D01*
X73195952Y-34461904D02*
X73243571Y-34509523D01*
X73243571Y-34509523D02*
X73291190Y-34604761D01*
X73291190Y-34604761D02*
X73291190Y-34795237D01*
X73291190Y-34795237D02*
X73338809Y-34890475D01*
X73338809Y-34890475D02*
X73386428Y-34938094D01*
X73386428Y-34938094D02*
X73481666Y-34985713D01*
X73481666Y-34985713D02*
X73672142Y-34985713D01*
X73672142Y-34985713D02*
X73767380Y-34938094D01*
X73767380Y-34938094D02*
X73815000Y-34890475D01*
X73815000Y-34890475D02*
X73862619Y-34795237D01*
X73862619Y-34795237D02*
X73862619Y-34604761D01*
X73862619Y-34604761D02*
X73815000Y-34509523D01*
X73815000Y-34509523D02*
X73767380Y-34461904D01*
X73767380Y-34461904D02*
X73672142Y-34414285D01*
X73672142Y-34414285D02*
X73481666Y-34414285D01*
X73481666Y-34414285D02*
X73386428Y-34461904D01*
X73386428Y-34461904D02*
X73338809Y-34509523D01*
X73338809Y-34509523D02*
X73291190Y-34604761D01*
X69414285Y-41795952D02*
X69414285Y-42462619D01*
X69176190Y-41415000D02*
X68938095Y-42129285D01*
X68938095Y-42129285D02*
X69557142Y-42129285D01*
X69842857Y-41462619D02*
X70509523Y-41462619D01*
X70509523Y-41462619D02*
X70080952Y-42462619D01*
X70890476Y-42462619D02*
X70890476Y-41462619D01*
X71461904Y-42462619D02*
X71033333Y-41891190D01*
X71461904Y-41462619D02*
X70890476Y-42034047D01*
%TO.C,TP2*%
X45538095Y-84262619D02*
X46109523Y-84262619D01*
X45823809Y-85262619D02*
X45823809Y-84262619D01*
X46442857Y-85262619D02*
X46442857Y-84262619D01*
X46442857Y-84262619D02*
X46823809Y-84262619D01*
X46823809Y-84262619D02*
X46919047Y-84310238D01*
X46919047Y-84310238D02*
X46966666Y-84357857D01*
X46966666Y-84357857D02*
X47014285Y-84453095D01*
X47014285Y-84453095D02*
X47014285Y-84595952D01*
X47014285Y-84595952D02*
X46966666Y-84691190D01*
X46966666Y-84691190D02*
X46919047Y-84738809D01*
X46919047Y-84738809D02*
X46823809Y-84786428D01*
X46823809Y-84786428D02*
X46442857Y-84786428D01*
X47395238Y-84357857D02*
X47442857Y-84310238D01*
X47442857Y-84310238D02*
X47538095Y-84262619D01*
X47538095Y-84262619D02*
X47776190Y-84262619D01*
X47776190Y-84262619D02*
X47871428Y-84310238D01*
X47871428Y-84310238D02*
X47919047Y-84357857D01*
X47919047Y-84357857D02*
X47966666Y-84453095D01*
X47966666Y-84453095D02*
X47966666Y-84548333D01*
X47966666Y-84548333D02*
X47919047Y-84691190D01*
X47919047Y-84691190D02*
X47347619Y-85262619D01*
X47347619Y-85262619D02*
X47966666Y-85262619D01*
X46138095Y-88662619D02*
X45661905Y-88662619D01*
X45661905Y-88662619D02*
X45661905Y-87662619D01*
X46471429Y-88138809D02*
X46804762Y-88138809D01*
X46947619Y-88662619D02*
X46471429Y-88662619D01*
X46471429Y-88662619D02*
X46471429Y-87662619D01*
X46471429Y-87662619D02*
X46947619Y-87662619D01*
X47376191Y-88662619D02*
X47376191Y-87662619D01*
X47376191Y-87662619D02*
X47614286Y-87662619D01*
X47614286Y-87662619D02*
X47757143Y-87710238D01*
X47757143Y-87710238D02*
X47852381Y-87805476D01*
X47852381Y-87805476D02*
X47900000Y-87900714D01*
X47900000Y-87900714D02*
X47947619Y-88091190D01*
X47947619Y-88091190D02*
X47947619Y-88234047D01*
X47947619Y-88234047D02*
X47900000Y-88424523D01*
X47900000Y-88424523D02*
X47852381Y-88519761D01*
X47852381Y-88519761D02*
X47757143Y-88615000D01*
X47757143Y-88615000D02*
X47614286Y-88662619D01*
X47614286Y-88662619D02*
X47376191Y-88662619D01*
X48376191Y-88281666D02*
X49138096Y-88281666D01*
%TO.C,R15*%
X42357142Y-85462619D02*
X42023809Y-84986428D01*
X41785714Y-85462619D02*
X41785714Y-84462619D01*
X41785714Y-84462619D02*
X42166666Y-84462619D01*
X42166666Y-84462619D02*
X42261904Y-84510238D01*
X42261904Y-84510238D02*
X42309523Y-84557857D01*
X42309523Y-84557857D02*
X42357142Y-84653095D01*
X42357142Y-84653095D02*
X42357142Y-84795952D01*
X42357142Y-84795952D02*
X42309523Y-84891190D01*
X42309523Y-84891190D02*
X42261904Y-84938809D01*
X42261904Y-84938809D02*
X42166666Y-84986428D01*
X42166666Y-84986428D02*
X41785714Y-84986428D01*
X43309523Y-85462619D02*
X42738095Y-85462619D01*
X43023809Y-85462619D02*
X43023809Y-84462619D01*
X43023809Y-84462619D02*
X42928571Y-84605476D01*
X42928571Y-84605476D02*
X42833333Y-84700714D01*
X42833333Y-84700714D02*
X42738095Y-84748333D01*
X44214285Y-84462619D02*
X43738095Y-84462619D01*
X43738095Y-84462619D02*
X43690476Y-84938809D01*
X43690476Y-84938809D02*
X43738095Y-84891190D01*
X43738095Y-84891190D02*
X43833333Y-84843571D01*
X43833333Y-84843571D02*
X44071428Y-84843571D01*
X44071428Y-84843571D02*
X44166666Y-84891190D01*
X44166666Y-84891190D02*
X44214285Y-84938809D01*
X44214285Y-84938809D02*
X44261904Y-85034047D01*
X44261904Y-85034047D02*
X44261904Y-85272142D01*
X44261904Y-85272142D02*
X44214285Y-85367380D01*
X44214285Y-85367380D02*
X44166666Y-85415000D01*
X44166666Y-85415000D02*
X44071428Y-85462619D01*
X44071428Y-85462619D02*
X43833333Y-85462619D01*
X43833333Y-85462619D02*
X43738095Y-85415000D01*
X43738095Y-85415000D02*
X43690476Y-85367380D01*
X42309523Y-86862619D02*
X41738095Y-86862619D01*
X42023809Y-86862619D02*
X42023809Y-85862619D01*
X42023809Y-85862619D02*
X41928571Y-86005476D01*
X41928571Y-86005476D02*
X41833333Y-86100714D01*
X41833333Y-86100714D02*
X41738095Y-86148333D01*
X42928571Y-85862619D02*
X43023809Y-85862619D01*
X43023809Y-85862619D02*
X43119047Y-85910238D01*
X43119047Y-85910238D02*
X43166666Y-85957857D01*
X43166666Y-85957857D02*
X43214285Y-86053095D01*
X43214285Y-86053095D02*
X43261904Y-86243571D01*
X43261904Y-86243571D02*
X43261904Y-86481666D01*
X43261904Y-86481666D02*
X43214285Y-86672142D01*
X43214285Y-86672142D02*
X43166666Y-86767380D01*
X43166666Y-86767380D02*
X43119047Y-86815000D01*
X43119047Y-86815000D02*
X43023809Y-86862619D01*
X43023809Y-86862619D02*
X42928571Y-86862619D01*
X42928571Y-86862619D02*
X42833333Y-86815000D01*
X42833333Y-86815000D02*
X42785714Y-86767380D01*
X42785714Y-86767380D02*
X42738095Y-86672142D01*
X42738095Y-86672142D02*
X42690476Y-86481666D01*
X42690476Y-86481666D02*
X42690476Y-86243571D01*
X42690476Y-86243571D02*
X42738095Y-86053095D01*
X42738095Y-86053095D02*
X42785714Y-85957857D01*
X42785714Y-85957857D02*
X42833333Y-85910238D01*
X42833333Y-85910238D02*
X42928571Y-85862619D01*
X44261904Y-86862619D02*
X43928571Y-86386428D01*
X43690476Y-86862619D02*
X43690476Y-85862619D01*
X43690476Y-85862619D02*
X44071428Y-85862619D01*
X44071428Y-85862619D02*
X44166666Y-85910238D01*
X44166666Y-85910238D02*
X44214285Y-85957857D01*
X44214285Y-85957857D02*
X44261904Y-86053095D01*
X44261904Y-86053095D02*
X44261904Y-86195952D01*
X44261904Y-86195952D02*
X44214285Y-86291190D01*
X44214285Y-86291190D02*
X44166666Y-86338809D01*
X44166666Y-86338809D02*
X44071428Y-86386428D01*
X44071428Y-86386428D02*
X43690476Y-86386428D01*
%TO.C,D3*%
X72861905Y-114862619D02*
X72861905Y-113862619D01*
X72861905Y-113862619D02*
X73100000Y-113862619D01*
X73100000Y-113862619D02*
X73242857Y-113910238D01*
X73242857Y-113910238D02*
X73338095Y-114005476D01*
X73338095Y-114005476D02*
X73385714Y-114100714D01*
X73385714Y-114100714D02*
X73433333Y-114291190D01*
X73433333Y-114291190D02*
X73433333Y-114434047D01*
X73433333Y-114434047D02*
X73385714Y-114624523D01*
X73385714Y-114624523D02*
X73338095Y-114719761D01*
X73338095Y-114719761D02*
X73242857Y-114815000D01*
X73242857Y-114815000D02*
X73100000Y-114862619D01*
X73100000Y-114862619D02*
X72861905Y-114862619D01*
X73766667Y-113862619D02*
X74385714Y-113862619D01*
X74385714Y-113862619D02*
X74052381Y-114243571D01*
X74052381Y-114243571D02*
X74195238Y-114243571D01*
X74195238Y-114243571D02*
X74290476Y-114291190D01*
X74290476Y-114291190D02*
X74338095Y-114338809D01*
X74338095Y-114338809D02*
X74385714Y-114434047D01*
X74385714Y-114434047D02*
X74385714Y-114672142D01*
X74385714Y-114672142D02*
X74338095Y-114767380D01*
X74338095Y-114767380D02*
X74290476Y-114815000D01*
X74290476Y-114815000D02*
X74195238Y-114862619D01*
X74195238Y-114862619D02*
X73909524Y-114862619D01*
X73909524Y-114862619D02*
X73814286Y-114815000D01*
X73814286Y-114815000D02*
X73766667Y-114767380D01*
%TO.C,F1*%
X66066666Y-102938809D02*
X65733333Y-102938809D01*
X65733333Y-103462619D02*
X65733333Y-102462619D01*
X65733333Y-102462619D02*
X66209523Y-102462619D01*
X67114285Y-103462619D02*
X66542857Y-103462619D01*
X66828571Y-103462619D02*
X66828571Y-102462619D01*
X66828571Y-102462619D02*
X66733333Y-102605476D01*
X66733333Y-102605476D02*
X66638095Y-102700714D01*
X66638095Y-102700714D02*
X66542857Y-102748333D01*
X63757857Y-106714285D02*
X63710238Y-106666666D01*
X63710238Y-106666666D02*
X63662619Y-106571428D01*
X63662619Y-106571428D02*
X63662619Y-106333333D01*
X63662619Y-106333333D02*
X63710238Y-106238095D01*
X63710238Y-106238095D02*
X63757857Y-106190476D01*
X63757857Y-106190476D02*
X63853095Y-106142857D01*
X63853095Y-106142857D02*
X63948333Y-106142857D01*
X63948333Y-106142857D02*
X64091190Y-106190476D01*
X64091190Y-106190476D02*
X64662619Y-106761904D01*
X64662619Y-106761904D02*
X64662619Y-106142857D01*
X64376904Y-105761904D02*
X64376904Y-105285714D01*
X64662619Y-105857142D02*
X63662619Y-105523809D01*
X63662619Y-105523809D02*
X64662619Y-105190476D01*
%TO.C,R9*%
X53262619Y-102966666D02*
X52786428Y-103299999D01*
X53262619Y-103538094D02*
X52262619Y-103538094D01*
X52262619Y-103538094D02*
X52262619Y-103157142D01*
X52262619Y-103157142D02*
X52310238Y-103061904D01*
X52310238Y-103061904D02*
X52357857Y-103014285D01*
X52357857Y-103014285D02*
X52453095Y-102966666D01*
X52453095Y-102966666D02*
X52595952Y-102966666D01*
X52595952Y-102966666D02*
X52691190Y-103014285D01*
X52691190Y-103014285D02*
X52738809Y-103061904D01*
X52738809Y-103061904D02*
X52786428Y-103157142D01*
X52786428Y-103157142D02*
X52786428Y-103538094D01*
X53262619Y-102490475D02*
X53262619Y-102299999D01*
X53262619Y-102299999D02*
X53215000Y-102204761D01*
X53215000Y-102204761D02*
X53167380Y-102157142D01*
X53167380Y-102157142D02*
X53024523Y-102061904D01*
X53024523Y-102061904D02*
X52834047Y-102014285D01*
X52834047Y-102014285D02*
X52453095Y-102014285D01*
X52453095Y-102014285D02*
X52357857Y-102061904D01*
X52357857Y-102061904D02*
X52310238Y-102109523D01*
X52310238Y-102109523D02*
X52262619Y-102204761D01*
X52262619Y-102204761D02*
X52262619Y-102395237D01*
X52262619Y-102395237D02*
X52310238Y-102490475D01*
X52310238Y-102490475D02*
X52357857Y-102538094D01*
X52357857Y-102538094D02*
X52453095Y-102585713D01*
X52453095Y-102585713D02*
X52691190Y-102585713D01*
X52691190Y-102585713D02*
X52786428Y-102538094D01*
X52786428Y-102538094D02*
X52834047Y-102490475D01*
X52834047Y-102490475D02*
X52881666Y-102395237D01*
X52881666Y-102395237D02*
X52881666Y-102204761D01*
X52881666Y-102204761D02*
X52834047Y-102109523D01*
X52834047Y-102109523D02*
X52786428Y-102061904D01*
X52786428Y-102061904D02*
X52691190Y-102014285D01*
X59262619Y-103490476D02*
X59262619Y-104061904D01*
X59262619Y-103776190D02*
X58262619Y-103776190D01*
X58262619Y-103776190D02*
X58405476Y-103871428D01*
X58405476Y-103871428D02*
X58500714Y-103966666D01*
X58500714Y-103966666D02*
X58548333Y-104061904D01*
X58262619Y-102871428D02*
X58262619Y-102776190D01*
X58262619Y-102776190D02*
X58310238Y-102680952D01*
X58310238Y-102680952D02*
X58357857Y-102633333D01*
X58357857Y-102633333D02*
X58453095Y-102585714D01*
X58453095Y-102585714D02*
X58643571Y-102538095D01*
X58643571Y-102538095D02*
X58881666Y-102538095D01*
X58881666Y-102538095D02*
X59072142Y-102585714D01*
X59072142Y-102585714D02*
X59167380Y-102633333D01*
X59167380Y-102633333D02*
X59215000Y-102680952D01*
X59215000Y-102680952D02*
X59262619Y-102776190D01*
X59262619Y-102776190D02*
X59262619Y-102871428D01*
X59262619Y-102871428D02*
X59215000Y-102966666D01*
X59215000Y-102966666D02*
X59167380Y-103014285D01*
X59167380Y-103014285D02*
X59072142Y-103061904D01*
X59072142Y-103061904D02*
X58881666Y-103109523D01*
X58881666Y-103109523D02*
X58643571Y-103109523D01*
X58643571Y-103109523D02*
X58453095Y-103061904D01*
X58453095Y-103061904D02*
X58357857Y-103014285D01*
X58357857Y-103014285D02*
X58310238Y-102966666D01*
X58310238Y-102966666D02*
X58262619Y-102871428D01*
X59262619Y-102109523D02*
X58262619Y-102109523D01*
X59262619Y-101538095D02*
X58691190Y-101966666D01*
X58262619Y-101538095D02*
X58834047Y-102109523D01*
%TO.C,TP5*%
X83338095Y-119110619D02*
X83909523Y-119110619D01*
X83623809Y-120110619D02*
X83623809Y-119110619D01*
X84242857Y-120110619D02*
X84242857Y-119110619D01*
X84242857Y-119110619D02*
X84623809Y-119110619D01*
X84623809Y-119110619D02*
X84719047Y-119158238D01*
X84719047Y-119158238D02*
X84766666Y-119205857D01*
X84766666Y-119205857D02*
X84814285Y-119301095D01*
X84814285Y-119301095D02*
X84814285Y-119443952D01*
X84814285Y-119443952D02*
X84766666Y-119539190D01*
X84766666Y-119539190D02*
X84719047Y-119586809D01*
X84719047Y-119586809D02*
X84623809Y-119634428D01*
X84623809Y-119634428D02*
X84242857Y-119634428D01*
X85719047Y-119110619D02*
X85242857Y-119110619D01*
X85242857Y-119110619D02*
X85195238Y-119586809D01*
X85195238Y-119586809D02*
X85242857Y-119539190D01*
X85242857Y-119539190D02*
X85338095Y-119491571D01*
X85338095Y-119491571D02*
X85576190Y-119491571D01*
X85576190Y-119491571D02*
X85671428Y-119539190D01*
X85671428Y-119539190D02*
X85719047Y-119586809D01*
X85719047Y-119586809D02*
X85766666Y-119682047D01*
X85766666Y-119682047D02*
X85766666Y-119920142D01*
X85766666Y-119920142D02*
X85719047Y-120015380D01*
X85719047Y-120015380D02*
X85671428Y-120063000D01*
X85671428Y-120063000D02*
X85576190Y-120110619D01*
X85576190Y-120110619D02*
X85338095Y-120110619D01*
X85338095Y-120110619D02*
X85242857Y-120063000D01*
X85242857Y-120063000D02*
X85195238Y-120015380D01*
X84409523Y-116112619D02*
X83933333Y-116112619D01*
X83933333Y-116112619D02*
X83885714Y-116588809D01*
X83885714Y-116588809D02*
X83933333Y-116541190D01*
X83933333Y-116541190D02*
X84028571Y-116493571D01*
X84028571Y-116493571D02*
X84266666Y-116493571D01*
X84266666Y-116493571D02*
X84361904Y-116541190D01*
X84361904Y-116541190D02*
X84409523Y-116588809D01*
X84409523Y-116588809D02*
X84457142Y-116684047D01*
X84457142Y-116684047D02*
X84457142Y-116922142D01*
X84457142Y-116922142D02*
X84409523Y-117017380D01*
X84409523Y-117017380D02*
X84361904Y-117065000D01*
X84361904Y-117065000D02*
X84266666Y-117112619D01*
X84266666Y-117112619D02*
X84028571Y-117112619D01*
X84028571Y-117112619D02*
X83933333Y-117065000D01*
X83933333Y-117065000D02*
X83885714Y-117017380D01*
X84742857Y-116112619D02*
X85076190Y-117112619D01*
X85076190Y-117112619D02*
X85409523Y-116112619D01*
%TO.C,R5*%
X72862619Y-37566666D02*
X72386428Y-37899999D01*
X72862619Y-38138094D02*
X71862619Y-38138094D01*
X71862619Y-38138094D02*
X71862619Y-37757142D01*
X71862619Y-37757142D02*
X71910238Y-37661904D01*
X71910238Y-37661904D02*
X71957857Y-37614285D01*
X71957857Y-37614285D02*
X72053095Y-37566666D01*
X72053095Y-37566666D02*
X72195952Y-37566666D01*
X72195952Y-37566666D02*
X72291190Y-37614285D01*
X72291190Y-37614285D02*
X72338809Y-37661904D01*
X72338809Y-37661904D02*
X72386428Y-37757142D01*
X72386428Y-37757142D02*
X72386428Y-38138094D01*
X71862619Y-36661904D02*
X71862619Y-37138094D01*
X71862619Y-37138094D02*
X72338809Y-37185713D01*
X72338809Y-37185713D02*
X72291190Y-37138094D01*
X72291190Y-37138094D02*
X72243571Y-37042856D01*
X72243571Y-37042856D02*
X72243571Y-36804761D01*
X72243571Y-36804761D02*
X72291190Y-36709523D01*
X72291190Y-36709523D02*
X72338809Y-36661904D01*
X72338809Y-36661904D02*
X72434047Y-36614285D01*
X72434047Y-36614285D02*
X72672142Y-36614285D01*
X72672142Y-36614285D02*
X72767380Y-36661904D01*
X72767380Y-36661904D02*
X72815000Y-36709523D01*
X72815000Y-36709523D02*
X72862619Y-36804761D01*
X72862619Y-36804761D02*
X72862619Y-37042856D01*
X72862619Y-37042856D02*
X72815000Y-37138094D01*
X72815000Y-37138094D02*
X72767380Y-37185713D01*
X68614285Y-43195952D02*
X68614285Y-43862619D01*
X68376190Y-42815000D02*
X68138095Y-43529285D01*
X68138095Y-43529285D02*
X68757142Y-43529285D01*
X69042857Y-42862619D02*
X69709523Y-42862619D01*
X69709523Y-42862619D02*
X69280952Y-43862619D01*
X70090476Y-43862619D02*
X70090476Y-42862619D01*
X70661904Y-43862619D02*
X70233333Y-43291190D01*
X70661904Y-42862619D02*
X70090476Y-43434047D01*
%TO.C,J1*%
X25262619Y-106804761D02*
X24262619Y-106804761D01*
X24262619Y-106804761D02*
X24976904Y-106471428D01*
X24976904Y-106471428D02*
X24262619Y-106138095D01*
X24262619Y-106138095D02*
X25262619Y-106138095D01*
X24786428Y-105471428D02*
X25262619Y-105471428D01*
X24262619Y-105804761D02*
X24786428Y-105471428D01*
X24786428Y-105471428D02*
X24262619Y-105138095D01*
X24881666Y-104804761D02*
X24881666Y-104042857D01*
X24262619Y-103709523D02*
X24262619Y-103138095D01*
X25262619Y-103423809D02*
X24262619Y-103423809D01*
X24738809Y-102471428D02*
X24738809Y-102804761D01*
X25262619Y-102804761D02*
X24262619Y-102804761D01*
X24262619Y-102804761D02*
X24262619Y-102328571D01*
X24262619Y-102090475D02*
X24262619Y-101519047D01*
X25262619Y-101804761D02*
X24262619Y-101804761D01*
X24262619Y-100995237D02*
X24262619Y-100899999D01*
X24262619Y-100899999D02*
X24310238Y-100804761D01*
X24310238Y-100804761D02*
X24357857Y-100757142D01*
X24357857Y-100757142D02*
X24453095Y-100709523D01*
X24453095Y-100709523D02*
X24643571Y-100661904D01*
X24643571Y-100661904D02*
X24881666Y-100661904D01*
X24881666Y-100661904D02*
X25072142Y-100709523D01*
X25072142Y-100709523D02*
X25167380Y-100757142D01*
X25167380Y-100757142D02*
X25215000Y-100804761D01*
X25215000Y-100804761D02*
X25262619Y-100899999D01*
X25262619Y-100899999D02*
X25262619Y-100995237D01*
X25262619Y-100995237D02*
X25215000Y-101090475D01*
X25215000Y-101090475D02*
X25167380Y-101138094D01*
X25167380Y-101138094D02*
X25072142Y-101185713D01*
X25072142Y-101185713D02*
X24881666Y-101233332D01*
X24881666Y-101233332D02*
X24643571Y-101233332D01*
X24643571Y-101233332D02*
X24453095Y-101185713D01*
X24453095Y-101185713D02*
X24357857Y-101138094D01*
X24357857Y-101138094D02*
X24310238Y-101090475D01*
X24310238Y-101090475D02*
X24262619Y-100995237D01*
X24262619Y-100328570D02*
X24262619Y-99661904D01*
X24262619Y-99661904D02*
X25262619Y-100090475D01*
X24262619Y-99090475D02*
X24262619Y-98995237D01*
X24262619Y-98995237D02*
X24310238Y-98899999D01*
X24310238Y-98899999D02*
X24357857Y-98852380D01*
X24357857Y-98852380D02*
X24453095Y-98804761D01*
X24453095Y-98804761D02*
X24643571Y-98757142D01*
X24643571Y-98757142D02*
X24881666Y-98757142D01*
X24881666Y-98757142D02*
X25072142Y-98804761D01*
X25072142Y-98804761D02*
X25167380Y-98852380D01*
X25167380Y-98852380D02*
X25215000Y-98899999D01*
X25215000Y-98899999D02*
X25262619Y-98995237D01*
X25262619Y-98995237D02*
X25262619Y-99090475D01*
X25262619Y-99090475D02*
X25215000Y-99185713D01*
X25215000Y-99185713D02*
X25167380Y-99233332D01*
X25167380Y-99233332D02*
X25072142Y-99280951D01*
X25072142Y-99280951D02*
X24881666Y-99328570D01*
X24881666Y-99328570D02*
X24643571Y-99328570D01*
X24643571Y-99328570D02*
X24453095Y-99280951D01*
X24453095Y-99280951D02*
X24357857Y-99233332D01*
X24357857Y-99233332D02*
X24310238Y-99185713D01*
X24310238Y-99185713D02*
X24262619Y-99090475D01*
X25167380Y-97757142D02*
X25215000Y-97804761D01*
X25215000Y-97804761D02*
X25262619Y-97947618D01*
X25262619Y-97947618D02*
X25262619Y-98042856D01*
X25262619Y-98042856D02*
X25215000Y-98185713D01*
X25215000Y-98185713D02*
X25119761Y-98280951D01*
X25119761Y-98280951D02*
X25024523Y-98328570D01*
X25024523Y-98328570D02*
X24834047Y-98376189D01*
X24834047Y-98376189D02*
X24691190Y-98376189D01*
X24691190Y-98376189D02*
X24500714Y-98328570D01*
X24500714Y-98328570D02*
X24405476Y-98280951D01*
X24405476Y-98280951D02*
X24310238Y-98185713D01*
X24310238Y-98185713D02*
X24262619Y-98042856D01*
X24262619Y-98042856D02*
X24262619Y-97947618D01*
X24262619Y-97947618D02*
X24310238Y-97804761D01*
X24310238Y-97804761D02*
X24357857Y-97757142D01*
X24262619Y-97471427D02*
X25262619Y-97138094D01*
X25262619Y-97138094D02*
X24262619Y-96804761D01*
X24357857Y-96519046D02*
X24310238Y-96471427D01*
X24310238Y-96471427D02*
X24262619Y-96376189D01*
X24262619Y-96376189D02*
X24262619Y-96138094D01*
X24262619Y-96138094D02*
X24310238Y-96042856D01*
X24310238Y-96042856D02*
X24357857Y-95995237D01*
X24357857Y-95995237D02*
X24453095Y-95947618D01*
X24453095Y-95947618D02*
X24548333Y-95947618D01*
X24548333Y-95947618D02*
X24691190Y-95995237D01*
X24691190Y-95995237D02*
X25262619Y-96566665D01*
X25262619Y-96566665D02*
X25262619Y-95947618D01*
%TO.C,C21*%
X78567380Y-100642857D02*
X78615000Y-100690476D01*
X78615000Y-100690476D02*
X78662619Y-100833333D01*
X78662619Y-100833333D02*
X78662619Y-100928571D01*
X78662619Y-100928571D02*
X78615000Y-101071428D01*
X78615000Y-101071428D02*
X78519761Y-101166666D01*
X78519761Y-101166666D02*
X78424523Y-101214285D01*
X78424523Y-101214285D02*
X78234047Y-101261904D01*
X78234047Y-101261904D02*
X78091190Y-101261904D01*
X78091190Y-101261904D02*
X77900714Y-101214285D01*
X77900714Y-101214285D02*
X77805476Y-101166666D01*
X77805476Y-101166666D02*
X77710238Y-101071428D01*
X77710238Y-101071428D02*
X77662619Y-100928571D01*
X77662619Y-100928571D02*
X77662619Y-100833333D01*
X77662619Y-100833333D02*
X77710238Y-100690476D01*
X77710238Y-100690476D02*
X77757857Y-100642857D01*
X77757857Y-100261904D02*
X77710238Y-100214285D01*
X77710238Y-100214285D02*
X77662619Y-100119047D01*
X77662619Y-100119047D02*
X77662619Y-99880952D01*
X77662619Y-99880952D02*
X77710238Y-99785714D01*
X77710238Y-99785714D02*
X77757857Y-99738095D01*
X77757857Y-99738095D02*
X77853095Y-99690476D01*
X77853095Y-99690476D02*
X77948333Y-99690476D01*
X77948333Y-99690476D02*
X78091190Y-99738095D01*
X78091190Y-99738095D02*
X78662619Y-100309523D01*
X78662619Y-100309523D02*
X78662619Y-99690476D01*
X78662619Y-98738095D02*
X78662619Y-99309523D01*
X78662619Y-99023809D02*
X77662619Y-99023809D01*
X77662619Y-99023809D02*
X77805476Y-99119047D01*
X77805476Y-99119047D02*
X77900714Y-99214285D01*
X77900714Y-99214285D02*
X77948333Y-99309523D01*
X78957143Y-97262619D02*
X79052381Y-97262619D01*
X79052381Y-97262619D02*
X79147619Y-97310238D01*
X79147619Y-97310238D02*
X79195238Y-97357857D01*
X79195238Y-97357857D02*
X79242857Y-97453095D01*
X79242857Y-97453095D02*
X79290476Y-97643571D01*
X79290476Y-97643571D02*
X79290476Y-97881666D01*
X79290476Y-97881666D02*
X79242857Y-98072142D01*
X79242857Y-98072142D02*
X79195238Y-98167380D01*
X79195238Y-98167380D02*
X79147619Y-98215000D01*
X79147619Y-98215000D02*
X79052381Y-98262619D01*
X79052381Y-98262619D02*
X78957143Y-98262619D01*
X78957143Y-98262619D02*
X78861905Y-98215000D01*
X78861905Y-98215000D02*
X78814286Y-98167380D01*
X78814286Y-98167380D02*
X78766667Y-98072142D01*
X78766667Y-98072142D02*
X78719048Y-97881666D01*
X78719048Y-97881666D02*
X78719048Y-97643571D01*
X78719048Y-97643571D02*
X78766667Y-97453095D01*
X78766667Y-97453095D02*
X78814286Y-97357857D01*
X78814286Y-97357857D02*
X78861905Y-97310238D01*
X78861905Y-97310238D02*
X78957143Y-97262619D01*
X79719048Y-98167380D02*
X79766667Y-98215000D01*
X79766667Y-98215000D02*
X79719048Y-98262619D01*
X79719048Y-98262619D02*
X79671429Y-98215000D01*
X79671429Y-98215000D02*
X79719048Y-98167380D01*
X79719048Y-98167380D02*
X79719048Y-98262619D01*
X80719047Y-98262619D02*
X80147619Y-98262619D01*
X80433333Y-98262619D02*
X80433333Y-97262619D01*
X80433333Y-97262619D02*
X80338095Y-97405476D01*
X80338095Y-97405476D02*
X80242857Y-97500714D01*
X80242857Y-97500714D02*
X80147619Y-97548333D01*
X81576190Y-97595952D02*
X81576190Y-98262619D01*
X81147619Y-97595952D02*
X81147619Y-98119761D01*
X81147619Y-98119761D02*
X81195238Y-98215000D01*
X81195238Y-98215000D02*
X81290476Y-98262619D01*
X81290476Y-98262619D02*
X81433333Y-98262619D01*
X81433333Y-98262619D02*
X81528571Y-98215000D01*
X81528571Y-98215000D02*
X81576190Y-98167380D01*
X82385714Y-97738809D02*
X82052381Y-97738809D01*
X82052381Y-98262619D02*
X82052381Y-97262619D01*
X82052381Y-97262619D02*
X82528571Y-97262619D01*
%TO.C,TP1*%
X29338095Y-88862619D02*
X29909523Y-88862619D01*
X29623809Y-89862619D02*
X29623809Y-88862619D01*
X30242857Y-89862619D02*
X30242857Y-88862619D01*
X30242857Y-88862619D02*
X30623809Y-88862619D01*
X30623809Y-88862619D02*
X30719047Y-88910238D01*
X30719047Y-88910238D02*
X30766666Y-88957857D01*
X30766666Y-88957857D02*
X30814285Y-89053095D01*
X30814285Y-89053095D02*
X30814285Y-89195952D01*
X30814285Y-89195952D02*
X30766666Y-89291190D01*
X30766666Y-89291190D02*
X30719047Y-89338809D01*
X30719047Y-89338809D02*
X30623809Y-89386428D01*
X30623809Y-89386428D02*
X30242857Y-89386428D01*
X31766666Y-89862619D02*
X31195238Y-89862619D01*
X31480952Y-89862619D02*
X31480952Y-88862619D01*
X31480952Y-88862619D02*
X31385714Y-89005476D01*
X31385714Y-89005476D02*
X31290476Y-89100714D01*
X31290476Y-89100714D02*
X31195238Y-89148333D01*
X29938095Y-88262619D02*
X29461905Y-88262619D01*
X29461905Y-88262619D02*
X29461905Y-87262619D01*
X30271429Y-87738809D02*
X30604762Y-87738809D01*
X30747619Y-88262619D02*
X30271429Y-88262619D01*
X30271429Y-88262619D02*
X30271429Y-87262619D01*
X30271429Y-87262619D02*
X30747619Y-87262619D01*
X31176191Y-88262619D02*
X31176191Y-87262619D01*
X31176191Y-87262619D02*
X31414286Y-87262619D01*
X31414286Y-87262619D02*
X31557143Y-87310238D01*
X31557143Y-87310238D02*
X31652381Y-87405476D01*
X31652381Y-87405476D02*
X31700000Y-87500714D01*
X31700000Y-87500714D02*
X31747619Y-87691190D01*
X31747619Y-87691190D02*
X31747619Y-87834047D01*
X31747619Y-87834047D02*
X31700000Y-88024523D01*
X31700000Y-88024523D02*
X31652381Y-88119761D01*
X31652381Y-88119761D02*
X31557143Y-88215000D01*
X31557143Y-88215000D02*
X31414286Y-88262619D01*
X31414286Y-88262619D02*
X31176191Y-88262619D01*
X32176191Y-87881666D02*
X32938096Y-87881666D01*
X32557143Y-88262619D02*
X32557143Y-87500714D01*
%TO.C,R6*%
X55862619Y-35366666D02*
X55386428Y-35699999D01*
X55862619Y-35938094D02*
X54862619Y-35938094D01*
X54862619Y-35938094D02*
X54862619Y-35557142D01*
X54862619Y-35557142D02*
X54910238Y-35461904D01*
X54910238Y-35461904D02*
X54957857Y-35414285D01*
X54957857Y-35414285D02*
X55053095Y-35366666D01*
X55053095Y-35366666D02*
X55195952Y-35366666D01*
X55195952Y-35366666D02*
X55291190Y-35414285D01*
X55291190Y-35414285D02*
X55338809Y-35461904D01*
X55338809Y-35461904D02*
X55386428Y-35557142D01*
X55386428Y-35557142D02*
X55386428Y-35938094D01*
X54862619Y-34509523D02*
X54862619Y-34699999D01*
X54862619Y-34699999D02*
X54910238Y-34795237D01*
X54910238Y-34795237D02*
X54957857Y-34842856D01*
X54957857Y-34842856D02*
X55100714Y-34938094D01*
X55100714Y-34938094D02*
X55291190Y-34985713D01*
X55291190Y-34985713D02*
X55672142Y-34985713D01*
X55672142Y-34985713D02*
X55767380Y-34938094D01*
X55767380Y-34938094D02*
X55815000Y-34890475D01*
X55815000Y-34890475D02*
X55862619Y-34795237D01*
X55862619Y-34795237D02*
X55862619Y-34604761D01*
X55862619Y-34604761D02*
X55815000Y-34509523D01*
X55815000Y-34509523D02*
X55767380Y-34461904D01*
X55767380Y-34461904D02*
X55672142Y-34414285D01*
X55672142Y-34414285D02*
X55434047Y-34414285D01*
X55434047Y-34414285D02*
X55338809Y-34461904D01*
X55338809Y-34461904D02*
X55291190Y-34509523D01*
X55291190Y-34509523D02*
X55243571Y-34604761D01*
X55243571Y-34604761D02*
X55243571Y-34795237D01*
X55243571Y-34795237D02*
X55291190Y-34890475D01*
X55291190Y-34890475D02*
X55338809Y-34938094D01*
X55338809Y-34938094D02*
X55434047Y-34985713D01*
X57614285Y-41995952D02*
X57614285Y-42662619D01*
X57376190Y-41615000D02*
X57138095Y-42329285D01*
X57138095Y-42329285D02*
X57757142Y-42329285D01*
X58042857Y-41662619D02*
X58709523Y-41662619D01*
X58709523Y-41662619D02*
X58280952Y-42662619D01*
X59090476Y-42662619D02*
X59090476Y-41662619D01*
X59661904Y-42662619D02*
X59233333Y-42091190D01*
X59661904Y-41662619D02*
X59090476Y-42234047D01*
%TO.C,R16*%
X68357142Y-108062619D02*
X68023809Y-107586428D01*
X67785714Y-108062619D02*
X67785714Y-107062619D01*
X67785714Y-107062619D02*
X68166666Y-107062619D01*
X68166666Y-107062619D02*
X68261904Y-107110238D01*
X68261904Y-107110238D02*
X68309523Y-107157857D01*
X68309523Y-107157857D02*
X68357142Y-107253095D01*
X68357142Y-107253095D02*
X68357142Y-107395952D01*
X68357142Y-107395952D02*
X68309523Y-107491190D01*
X68309523Y-107491190D02*
X68261904Y-107538809D01*
X68261904Y-107538809D02*
X68166666Y-107586428D01*
X68166666Y-107586428D02*
X67785714Y-107586428D01*
X69309523Y-108062619D02*
X68738095Y-108062619D01*
X69023809Y-108062619D02*
X69023809Y-107062619D01*
X69023809Y-107062619D02*
X68928571Y-107205476D01*
X68928571Y-107205476D02*
X68833333Y-107300714D01*
X68833333Y-107300714D02*
X68738095Y-107348333D01*
X70166666Y-107062619D02*
X69976190Y-107062619D01*
X69976190Y-107062619D02*
X69880952Y-107110238D01*
X69880952Y-107110238D02*
X69833333Y-107157857D01*
X69833333Y-107157857D02*
X69738095Y-107300714D01*
X69738095Y-107300714D02*
X69690476Y-107491190D01*
X69690476Y-107491190D02*
X69690476Y-107872142D01*
X69690476Y-107872142D02*
X69738095Y-107967380D01*
X69738095Y-107967380D02*
X69785714Y-108015000D01*
X69785714Y-108015000D02*
X69880952Y-108062619D01*
X69880952Y-108062619D02*
X70071428Y-108062619D01*
X70071428Y-108062619D02*
X70166666Y-108015000D01*
X70166666Y-108015000D02*
X70214285Y-107967380D01*
X70214285Y-107967380D02*
X70261904Y-107872142D01*
X70261904Y-107872142D02*
X70261904Y-107634047D01*
X70261904Y-107634047D02*
X70214285Y-107538809D01*
X70214285Y-107538809D02*
X70166666Y-107491190D01*
X70166666Y-107491190D02*
X70071428Y-107443571D01*
X70071428Y-107443571D02*
X69880952Y-107443571D01*
X69880952Y-107443571D02*
X69785714Y-107491190D01*
X69785714Y-107491190D02*
X69738095Y-107538809D01*
X69738095Y-107538809D02*
X69690476Y-107634047D01*
X68261904Y-110707619D02*
X67785714Y-110707619D01*
X67785714Y-110707619D02*
X67738095Y-111183809D01*
X67738095Y-111183809D02*
X67785714Y-111136190D01*
X67785714Y-111136190D02*
X67880952Y-111088571D01*
X67880952Y-111088571D02*
X68119047Y-111088571D01*
X68119047Y-111088571D02*
X68214285Y-111136190D01*
X68214285Y-111136190D02*
X68261904Y-111183809D01*
X68261904Y-111183809D02*
X68309523Y-111279047D01*
X68309523Y-111279047D02*
X68309523Y-111517142D01*
X68309523Y-111517142D02*
X68261904Y-111612380D01*
X68261904Y-111612380D02*
X68214285Y-111660000D01*
X68214285Y-111660000D02*
X68119047Y-111707619D01*
X68119047Y-111707619D02*
X67880952Y-111707619D01*
X67880952Y-111707619D02*
X67785714Y-111660000D01*
X67785714Y-111660000D02*
X67738095Y-111612380D01*
X68738095Y-111707619D02*
X68738095Y-110707619D01*
X69309523Y-111707619D02*
X68880952Y-111136190D01*
X69309523Y-110707619D02*
X68738095Y-111279047D01*
X70261904Y-111707619D02*
X69690476Y-111707619D01*
X69976190Y-111707619D02*
X69976190Y-110707619D01*
X69976190Y-110707619D02*
X69880952Y-110850476D01*
X69880952Y-110850476D02*
X69785714Y-110945714D01*
X69785714Y-110945714D02*
X69690476Y-110993333D01*
%TO.C,TP6*%
X80338095Y-119110619D02*
X80909523Y-119110619D01*
X80623809Y-120110619D02*
X80623809Y-119110619D01*
X81242857Y-120110619D02*
X81242857Y-119110619D01*
X81242857Y-119110619D02*
X81623809Y-119110619D01*
X81623809Y-119110619D02*
X81719047Y-119158238D01*
X81719047Y-119158238D02*
X81766666Y-119205857D01*
X81766666Y-119205857D02*
X81814285Y-119301095D01*
X81814285Y-119301095D02*
X81814285Y-119443952D01*
X81814285Y-119443952D02*
X81766666Y-119539190D01*
X81766666Y-119539190D02*
X81719047Y-119586809D01*
X81719047Y-119586809D02*
X81623809Y-119634428D01*
X81623809Y-119634428D02*
X81242857Y-119634428D01*
X82671428Y-119110619D02*
X82480952Y-119110619D01*
X82480952Y-119110619D02*
X82385714Y-119158238D01*
X82385714Y-119158238D02*
X82338095Y-119205857D01*
X82338095Y-119205857D02*
X82242857Y-119348714D01*
X82242857Y-119348714D02*
X82195238Y-119539190D01*
X82195238Y-119539190D02*
X82195238Y-119920142D01*
X82195238Y-119920142D02*
X82242857Y-120015380D01*
X82242857Y-120015380D02*
X82290476Y-120063000D01*
X82290476Y-120063000D02*
X82385714Y-120110619D01*
X82385714Y-120110619D02*
X82576190Y-120110619D01*
X82576190Y-120110619D02*
X82671428Y-120063000D01*
X82671428Y-120063000D02*
X82719047Y-120015380D01*
X82719047Y-120015380D02*
X82766666Y-119920142D01*
X82766666Y-119920142D02*
X82766666Y-119682047D01*
X82766666Y-119682047D02*
X82719047Y-119586809D01*
X82719047Y-119586809D02*
X82671428Y-119539190D01*
X82671428Y-119539190D02*
X82576190Y-119491571D01*
X82576190Y-119491571D02*
X82385714Y-119491571D01*
X82385714Y-119491571D02*
X82290476Y-119539190D01*
X82290476Y-119539190D02*
X82242857Y-119586809D01*
X82242857Y-119586809D02*
X82195238Y-119682047D01*
X80361905Y-116112619D02*
X80980952Y-116112619D01*
X80980952Y-116112619D02*
X80647619Y-116493571D01*
X80647619Y-116493571D02*
X80790476Y-116493571D01*
X80790476Y-116493571D02*
X80885714Y-116541190D01*
X80885714Y-116541190D02*
X80933333Y-116588809D01*
X80933333Y-116588809D02*
X80980952Y-116684047D01*
X80980952Y-116684047D02*
X80980952Y-116922142D01*
X80980952Y-116922142D02*
X80933333Y-117017380D01*
X80933333Y-117017380D02*
X80885714Y-117065000D01*
X80885714Y-117065000D02*
X80790476Y-117112619D01*
X80790476Y-117112619D02*
X80504762Y-117112619D01*
X80504762Y-117112619D02*
X80409524Y-117065000D01*
X80409524Y-117065000D02*
X80361905Y-117017380D01*
X81266667Y-116112619D02*
X81600000Y-117112619D01*
X81600000Y-117112619D02*
X81933333Y-116112619D01*
X82171429Y-116112619D02*
X82790476Y-116112619D01*
X82790476Y-116112619D02*
X82457143Y-116493571D01*
X82457143Y-116493571D02*
X82600000Y-116493571D01*
X82600000Y-116493571D02*
X82695238Y-116541190D01*
X82695238Y-116541190D02*
X82742857Y-116588809D01*
X82742857Y-116588809D02*
X82790476Y-116684047D01*
X82790476Y-116684047D02*
X82790476Y-116922142D01*
X82790476Y-116922142D02*
X82742857Y-117017380D01*
X82742857Y-117017380D02*
X82695238Y-117065000D01*
X82695238Y-117065000D02*
X82600000Y-117112619D01*
X82600000Y-117112619D02*
X82314286Y-117112619D01*
X82314286Y-117112619D02*
X82219048Y-117065000D01*
X82219048Y-117065000D02*
X82171429Y-117017380D01*
%TO.C,C5*%
X37633333Y-85367380D02*
X37585714Y-85415000D01*
X37585714Y-85415000D02*
X37442857Y-85462619D01*
X37442857Y-85462619D02*
X37347619Y-85462619D01*
X37347619Y-85462619D02*
X37204762Y-85415000D01*
X37204762Y-85415000D02*
X37109524Y-85319761D01*
X37109524Y-85319761D02*
X37061905Y-85224523D01*
X37061905Y-85224523D02*
X37014286Y-85034047D01*
X37014286Y-85034047D02*
X37014286Y-84891190D01*
X37014286Y-84891190D02*
X37061905Y-84700714D01*
X37061905Y-84700714D02*
X37109524Y-84605476D01*
X37109524Y-84605476D02*
X37204762Y-84510238D01*
X37204762Y-84510238D02*
X37347619Y-84462619D01*
X37347619Y-84462619D02*
X37442857Y-84462619D01*
X37442857Y-84462619D02*
X37585714Y-84510238D01*
X37585714Y-84510238D02*
X37633333Y-84557857D01*
X38538095Y-84462619D02*
X38061905Y-84462619D01*
X38061905Y-84462619D02*
X38014286Y-84938809D01*
X38014286Y-84938809D02*
X38061905Y-84891190D01*
X38061905Y-84891190D02*
X38157143Y-84843571D01*
X38157143Y-84843571D02*
X38395238Y-84843571D01*
X38395238Y-84843571D02*
X38490476Y-84891190D01*
X38490476Y-84891190D02*
X38538095Y-84938809D01*
X38538095Y-84938809D02*
X38585714Y-85034047D01*
X38585714Y-85034047D02*
X38585714Y-85272142D01*
X38585714Y-85272142D02*
X38538095Y-85367380D01*
X38538095Y-85367380D02*
X38490476Y-85415000D01*
X38490476Y-85415000D02*
X38395238Y-85462619D01*
X38395238Y-85462619D02*
X38157143Y-85462619D01*
X38157143Y-85462619D02*
X38061905Y-85415000D01*
X38061905Y-85415000D02*
X38014286Y-85367380D01*
X35680952Y-86262619D02*
X35776190Y-86262619D01*
X35776190Y-86262619D02*
X35871428Y-86310238D01*
X35871428Y-86310238D02*
X35919047Y-86357857D01*
X35919047Y-86357857D02*
X35966666Y-86453095D01*
X35966666Y-86453095D02*
X36014285Y-86643571D01*
X36014285Y-86643571D02*
X36014285Y-86881666D01*
X36014285Y-86881666D02*
X35966666Y-87072142D01*
X35966666Y-87072142D02*
X35919047Y-87167380D01*
X35919047Y-87167380D02*
X35871428Y-87215000D01*
X35871428Y-87215000D02*
X35776190Y-87262619D01*
X35776190Y-87262619D02*
X35680952Y-87262619D01*
X35680952Y-87262619D02*
X35585714Y-87215000D01*
X35585714Y-87215000D02*
X35538095Y-87167380D01*
X35538095Y-87167380D02*
X35490476Y-87072142D01*
X35490476Y-87072142D02*
X35442857Y-86881666D01*
X35442857Y-86881666D02*
X35442857Y-86643571D01*
X35442857Y-86643571D02*
X35490476Y-86453095D01*
X35490476Y-86453095D02*
X35538095Y-86357857D01*
X35538095Y-86357857D02*
X35585714Y-86310238D01*
X35585714Y-86310238D02*
X35680952Y-86262619D01*
X36442857Y-87167380D02*
X36490476Y-87215000D01*
X36490476Y-87215000D02*
X36442857Y-87262619D01*
X36442857Y-87262619D02*
X36395238Y-87215000D01*
X36395238Y-87215000D02*
X36442857Y-87167380D01*
X36442857Y-87167380D02*
X36442857Y-87262619D01*
X36871428Y-86357857D02*
X36919047Y-86310238D01*
X36919047Y-86310238D02*
X37014285Y-86262619D01*
X37014285Y-86262619D02*
X37252380Y-86262619D01*
X37252380Y-86262619D02*
X37347618Y-86310238D01*
X37347618Y-86310238D02*
X37395237Y-86357857D01*
X37395237Y-86357857D02*
X37442856Y-86453095D01*
X37442856Y-86453095D02*
X37442856Y-86548333D01*
X37442856Y-86548333D02*
X37395237Y-86691190D01*
X37395237Y-86691190D02*
X36823809Y-87262619D01*
X36823809Y-87262619D02*
X37442856Y-87262619D01*
X37823809Y-86357857D02*
X37871428Y-86310238D01*
X37871428Y-86310238D02*
X37966666Y-86262619D01*
X37966666Y-86262619D02*
X38204761Y-86262619D01*
X38204761Y-86262619D02*
X38299999Y-86310238D01*
X38299999Y-86310238D02*
X38347618Y-86357857D01*
X38347618Y-86357857D02*
X38395237Y-86453095D01*
X38395237Y-86453095D02*
X38395237Y-86548333D01*
X38395237Y-86548333D02*
X38347618Y-86691190D01*
X38347618Y-86691190D02*
X37776190Y-87262619D01*
X37776190Y-87262619D02*
X38395237Y-87262619D01*
X39252380Y-86595952D02*
X39252380Y-87262619D01*
X38823809Y-86595952D02*
X38823809Y-87119761D01*
X38823809Y-87119761D02*
X38871428Y-87215000D01*
X38871428Y-87215000D02*
X38966666Y-87262619D01*
X38966666Y-87262619D02*
X39109523Y-87262619D01*
X39109523Y-87262619D02*
X39204761Y-87215000D01*
X39204761Y-87215000D02*
X39252380Y-87167380D01*
X40061904Y-86738809D02*
X39728571Y-86738809D01*
X39728571Y-87262619D02*
X39728571Y-86262619D01*
X39728571Y-86262619D02*
X40204761Y-86262619D01*
D12*
%TO.C,R3*%
X62472936Y-34290000D02*
X63927064Y-34290000D01*
X62472936Y-36110000D02*
X63927064Y-36110000D01*
%TO.C,R7*%
X59272936Y-39090000D02*
X60727064Y-39090000D01*
X59272936Y-40910000D02*
X60727064Y-40910000D01*
%TO.C,L1*%
X40400000Y-96450000D02*
X40400000Y-89850000D01*
X42100000Y-96450000D02*
X40400000Y-96450000D01*
X46800000Y-96450000D02*
X45100000Y-96450000D01*
X40400000Y-89850000D02*
X42100000Y-89850000D01*
X45100000Y-89850000D02*
X46800000Y-89850000D01*
X46800000Y-89850000D02*
X46800000Y-96450000D01*
%TO.C,C2*%
X26515000Y-42825000D02*
X26515000Y-42200000D01*
X26202500Y-42512500D02*
X26827500Y-42512500D01*
X26504437Y-41960000D02*
X27140000Y-41960000D01*
X26504437Y-41960000D02*
X25440000Y-40895563D01*
X29895563Y-41960000D02*
X29260000Y-41960000D01*
X29895563Y-41960000D02*
X30960000Y-40895563D01*
X25440000Y-40895563D02*
X25440000Y-36440000D01*
X30960000Y-40895563D02*
X30960000Y-36440000D01*
X25440000Y-36440000D02*
X27140000Y-36440000D01*
X30960000Y-36440000D02*
X29260000Y-36440000D01*
%TO.C,C1*%
X21538748Y-39665000D02*
X22061252Y-39665000D01*
X21538748Y-41135000D02*
X22061252Y-41135000D01*
%TO.C,C4*%
X37538748Y-93515000D02*
X38061252Y-93515000D01*
X37538748Y-94985000D02*
X38061252Y-94985000D01*
%TO.C,C9*%
X59175000Y-97715000D02*
X59800000Y-97715000D01*
X59487500Y-97402500D02*
X59487500Y-98027500D01*
X60040000Y-97704437D02*
X60040000Y-98340000D01*
X60040000Y-97704437D02*
X61104437Y-96640000D01*
X60040000Y-101095563D02*
X60040000Y-100460000D01*
X60040000Y-101095563D02*
X61104437Y-102160000D01*
X61104437Y-96640000D02*
X65560000Y-96640000D01*
X61104437Y-102160000D02*
X65560000Y-102160000D01*
X65560000Y-96640000D02*
X65560000Y-98340000D01*
X65560000Y-102160000D02*
X65560000Y-100460000D01*
%TO.C,D2*%
X77135000Y-106515000D02*
X74865000Y-106515000D01*
X74865000Y-106515000D02*
X74865000Y-110400000D01*
X77135000Y-110400000D02*
X77135000Y-106515000D01*
%TO.C,J11*%
X53300000Y-105850000D02*
X51960000Y-105850000D01*
X49240000Y-105850000D02*
X47500000Y-105850000D01*
X47500000Y-105850000D02*
X47500000Y-112150000D01*
X53300000Y-107340000D02*
X53300000Y-105850000D01*
X53300000Y-107340000D02*
X54500000Y-107340000D01*
X53300000Y-110660000D02*
X53300000Y-112150000D01*
X53300000Y-112150000D02*
X51960000Y-112150000D01*
X47500000Y-112150000D02*
X49240000Y-112150000D01*
%TO.C,J12*%
X61600000Y-115575000D02*
X61600000Y-117495000D01*
X61600000Y-121210000D02*
X61600000Y-119505000D01*
X70760000Y-117495000D02*
X70760000Y-115575000D01*
X70760000Y-119505000D02*
X70760000Y-121210000D01*
X70760000Y-121210000D02*
X61600000Y-121210000D01*
%TO.C,C10*%
X68938748Y-103865000D02*
X69461252Y-103865000D01*
X68938748Y-105335000D02*
X69461252Y-105335000D01*
%TO.C,R4*%
X62072936Y-36690000D02*
X63527064Y-36690000D01*
X62072936Y-38510000D02*
X63527064Y-38510000D01*
%TO.C,U3*%
X20200000Y-43240000D02*
X16750000Y-43240000D01*
X20200000Y-43240000D02*
X22150000Y-43240000D01*
X20200000Y-48360000D02*
X18250000Y-48360000D01*
X20200000Y-48360000D02*
X22150000Y-48360000D01*
%TO.C,C11*%
X83865000Y-100461252D02*
X83865000Y-99938748D01*
X85335000Y-100461252D02*
X85335000Y-99938748D01*
%TO.C,J9*%
X56950000Y-55600000D02*
X55610000Y-55600000D01*
X51150000Y-55600000D02*
X52890000Y-55600000D01*
X56950000Y-57090000D02*
X56950000Y-55600000D01*
X56950000Y-77410000D02*
X58150000Y-77410000D01*
X56950000Y-77410000D02*
X56950000Y-78900000D01*
X56950000Y-78900000D02*
X55610000Y-78900000D01*
X52890000Y-78900000D02*
X51150000Y-78900000D01*
X51150000Y-78900000D02*
X51150000Y-55600000D01*
%TO.C,U6*%
X37800000Y-89690000D02*
X36000000Y-89690000D01*
X37800000Y-89690000D02*
X38600000Y-89690000D01*
X37800000Y-92810000D02*
X37000000Y-92810000D01*
X37800000Y-92810000D02*
X38600000Y-92810000D01*
%TO.C,C3*%
X24775000Y-44715000D02*
X25400000Y-44715000D01*
X25087500Y-44402500D02*
X25087500Y-45027500D01*
X25640000Y-44704437D02*
X25640000Y-45340000D01*
X25640000Y-44704437D02*
X26704437Y-43640000D01*
X25640000Y-48095563D02*
X25640000Y-47460000D01*
X25640000Y-48095563D02*
X26704437Y-49160000D01*
X26704437Y-43640000D02*
X31160000Y-43640000D01*
X26704437Y-49160000D02*
X31160000Y-49160000D01*
X31160000Y-43640000D02*
X31160000Y-45340000D01*
X31160000Y-49160000D02*
X31160000Y-47460000D01*
%TO.C,R17*%
X64227064Y-110335000D02*
X62772936Y-110335000D01*
X64227064Y-108515000D02*
X62772936Y-108515000D01*
D13*
%TO.C,J5*%
X70737500Y-32087500D02*
X70737500Y-31537500D01*
X70737500Y-18937500D02*
X70737500Y-20537500D01*
X70287500Y-32087500D02*
X70737500Y-32087500D01*
X69737500Y-16137500D02*
X69737500Y-15837500D01*
X69737500Y-16137500D02*
X58737500Y-16137500D01*
X69737500Y-15337500D02*
X69737500Y-15837500D01*
X69737500Y-15337500D02*
X69737500Y-15037500D01*
X69737500Y-14537500D02*
X69737500Y-15037500D01*
X69737500Y-14537500D02*
X69737500Y-11037500D01*
X69237500Y-15337500D02*
X69737500Y-15337500D01*
X69237500Y-14537500D02*
X69737500Y-14537500D01*
X59237500Y-15337500D02*
X69237500Y-15337500D01*
X59237500Y-14537500D02*
X69237500Y-14537500D01*
X59237500Y-10537500D02*
X69237500Y-10537500D01*
X58737500Y-32087500D02*
X56887500Y-32087500D01*
X58737500Y-16137500D02*
X58737500Y-15837500D01*
X58737500Y-15837500D02*
X58737500Y-15337500D01*
X58737500Y-15337500D02*
X59237500Y-15337500D01*
X58737500Y-15337500D02*
X58737500Y-15037500D01*
X58737500Y-15037500D02*
X58737500Y-14537500D01*
X58737500Y-14537500D02*
X59237500Y-14537500D01*
X58737500Y-14537500D02*
X58737500Y-11037500D01*
X56887500Y-32087500D02*
X56887500Y-17937500D01*
X69737500Y-15837500D02*
G75*
G03*
X69237500Y-15337500I-500001J-1D01*
G01*
X69737500Y-15037500D02*
G75*
G03*
X69237500Y-14537500I-500001J-1D01*
G01*
X69737500Y-11037500D02*
G75*
G03*
X69237500Y-10537500I-500001J-1D01*
G01*
X59237500Y-15337500D02*
G75*
G03*
X58737500Y-15837500I0J-500000D01*
G01*
X59237500Y-14537500D02*
G75*
G03*
X58737500Y-15037500I0J-500000D01*
G01*
X59237500Y-10537500D02*
G75*
G03*
X58737500Y-11037500I0J-500000D01*
G01*
D11*
X61237500Y-33337500D02*
G75*
G03*
X61237500Y-33337500I-250000J0D01*
G01*
D10*
%TO.C,U2*%
X78825000Y-102247500D02*
X82975000Y-102247500D01*
X78825000Y-103357500D02*
X77700000Y-103357500D01*
X78825000Y-103357500D02*
X78825000Y-102247500D01*
X78825000Y-111197500D02*
X78825000Y-110087500D01*
X78825000Y-111197500D02*
X82975000Y-111197500D01*
X82975000Y-102247500D02*
X82975000Y-103357500D01*
X82975000Y-111197500D02*
X82975000Y-110087500D01*
D12*
%TO.C,TP7*%
X79100000Y-118200000D02*
G75*
G03*
X79100000Y-118200000I-700000J0D01*
G01*
%TO.C,C15*%
X54265000Y-32861252D02*
X54265000Y-32338748D01*
X55735000Y-32861252D02*
X55735000Y-32338748D01*
%TO.C,C13*%
X74625000Y-101085000D02*
X74000000Y-101085000D01*
X74312500Y-101397500D02*
X74312500Y-100772500D01*
X73760000Y-101095563D02*
X73760000Y-100460000D01*
X73760000Y-101095563D02*
X72695563Y-102160000D01*
X73760000Y-97704437D02*
X73760000Y-98340000D01*
X73760000Y-97704437D02*
X72695563Y-96640000D01*
X72695563Y-102160000D02*
X68240000Y-102160000D01*
X72695563Y-96640000D02*
X68240000Y-96640000D01*
X68240000Y-102160000D02*
X68240000Y-100460000D01*
X68240000Y-96640000D02*
X68240000Y-98340000D01*
%TO.C,R8*%
X70927064Y-35910000D02*
X69472936Y-35910000D01*
X70927064Y-34090000D02*
X69472936Y-34090000D01*
%TO.C,TP2*%
X47500000Y-86400000D02*
G75*
G03*
X47500000Y-86400000I-700000J0D01*
G01*
%TO.C,R15*%
X43327064Y-89110000D02*
X41872936Y-89110000D01*
X43327064Y-87290000D02*
X41872936Y-87290000D01*
%TO.C,D3*%
X74735000Y-109115000D02*
X72465000Y-109115000D01*
X72465000Y-109115000D02*
X72465000Y-113000000D01*
X74735000Y-113000000D02*
X74735000Y-109115000D01*
%TO.C,F1*%
X65290000Y-106602064D02*
X65290000Y-105397936D01*
X67110000Y-106602064D02*
X67110000Y-105397936D01*
%TO.C,R9*%
X56527064Y-103710000D02*
X55072936Y-103710000D01*
X56527064Y-101890000D02*
X55072936Y-101890000D01*
%TO.C,TP5*%
X85300000Y-118200000D02*
G75*
G03*
X85300000Y-118200000I-700000J0D01*
G01*
%TO.C,R5*%
X69927064Y-38510000D02*
X68472936Y-38510000D01*
X69927064Y-36690000D02*
X68472936Y-36690000D01*
%TO.C,J1*%
X21250000Y-87350000D02*
X19910000Y-87350000D01*
X15450000Y-87350000D02*
X17190000Y-87350000D01*
X21250000Y-88840000D02*
X21250000Y-87350000D01*
X21250000Y-114160000D02*
X22450000Y-114160000D01*
X21250000Y-114160000D02*
X21250000Y-115650000D01*
X21250000Y-115650000D02*
X19910000Y-115650000D01*
X17190000Y-115650000D02*
X15450000Y-115650000D01*
X15450000Y-115650000D02*
X15450000Y-87350000D01*
%TO.C,C21*%
X80338748Y-99065000D02*
X80861252Y-99065000D01*
X80338748Y-100535000D02*
X80861252Y-100535000D01*
%TO.C,TP1*%
X33500000Y-89200000D02*
G75*
G03*
X33500000Y-89200000I-700000J0D01*
G01*
%TO.C,R6*%
X57672936Y-34290000D02*
X59127064Y-34290000D01*
X57672936Y-36110000D02*
X59127064Y-36110000D01*
%TO.C,R16*%
X68272936Y-108515000D02*
X69727064Y-108515000D01*
X68272936Y-110335000D02*
X69727064Y-110335000D01*
%TO.C,TP6*%
X82300000Y-118200000D02*
G75*
G03*
X82300000Y-118200000I-700000J0D01*
G01*
%TO.C,C5*%
X37538748Y-87515000D02*
X38061252Y-87515000D01*
X37538748Y-88985000D02*
X38061252Y-88985000D01*
%TD*%
M02*
